<svg width="1440" height="3266" viewBox="0 0 1440 3266" fill="none" xmlns="http://www.w3.org/2000/svg">
<g filter="url(#filter0_f_2043_2)">
<ellipse cx="261.831" cy="2518.65" rx="348.035" ry="344.718" transform="rotate(-55.1112 261.831 2518.65)" fill="url(#paint0_linear_2043_2)" fill-opacity="0.6"/>
</g>
<path d="M238.408 2588C240.392 2588 242.004 2586.39 241.958 2584.41C241.277 2555.4 232.361 2527.16 216.215 2503C199.403 2477.84 175.508 2458.23 147.551 2446.65C119.593 2435.07 88.8303 2432.04 59.1512 2437.94C29.4721 2443.84 2.2101 2458.42 -19.1873 2479.81C-40.5848 2501.21 -55.1566 2528.47 -61.0601 2558.15C-66.9637 2587.83 -63.9338 2618.59 -52.3536 2646.55C-40.7734 2674.51 -21.163 2698.4 3.99776 2715.21C28.1621 2731.36 56.4035 2740.28 85.4084 2740.96C87.3914 2741 89 2739.39 89 2737.41V2736.88C89 2734.9 87.3913 2733.29 85.4084 2733.24C57.9288 2732.57 31.178 2724.1 8.28175 2708.8C-15.6109 2692.84 -34.233 2670.15 -45.2295 2643.6C-56.2261 2617.05 -59.1033 2587.84 -53.4973 2559.66C-47.8913 2531.47 -34.0539 2505.58 -13.7348 2485.27C6.58419 2464.95 32.4722 2451.11 60.6555 2445.5C88.8388 2439.9 118.052 2442.77 144.6 2453.77C171.148 2464.77 193.839 2483.39 209.803 2507.28C225.102 2530.18 233.565 2556.93 234.245 2584.41C234.294 2586.39 235.897 2588 237.881 2588H238.408Z" fill="url(#paint1_linear_2043_2)" fill-opacity="0.7"/>
<path d="M-28.602 2582.17C-30.281 2582.09 -31.7135 2583.38 -31.7544 2585.06C-32.3094 2607.89 -26.3826 2630.43 -14.6311 2650.05C-2.35781 2670.55 15.7177 2686.95 37.3096 2697.17C58.9015 2707.39 83.0401 2710.98 106.673 2707.49C130.306 2703.99 152.371 2693.57 170.079 2677.53C187.787 2661.5 200.342 2640.57 206.157 2617.4C211.971 2594.23 210.784 2569.85 202.745 2547.35C194.706 2524.86 180.177 2505.25 160.994 2491.01C142.627 2477.38 120.784 2469.25 98.0149 2467.55C96.3385 2467.42 94.9092 2468.72 94.826 2470.4C94.7428 2472.08 96.0373 2473.5 97.7135 2473.63C119.28 2475.27 139.965 2482.98 157.366 2495.9C175.581 2509.42 189.379 2528.04 197.012 2549.4C204.646 2570.77 205.773 2593.91 200.252 2615.92C194.731 2637.92 182.808 2657.79 165.993 2673.02C149.177 2688.25 128.224 2698.15 105.782 2701.47C83.3405 2704.79 60.4184 2701.38 39.9147 2691.67C19.411 2681.96 2.24647 2666.39 -9.40826 2646.93C-20.5412 2628.34 -26.169 2606.99 -25.6722 2585.37C-25.6336 2583.69 -26.923 2582.26 -28.602 2582.17Z" fill="url(#paint2_linear_2043_2)" fill-opacity="0.7"/>
<path d="M162.88 2599.55C163.935 2599.72 164.926 2599 165.065 2597.94C166.944 2583.56 164.71 2568.93 158.602 2555.75C152.224 2541.98 141.906 2530.42 128.954 2522.51C116.002 2514.61 100.998 2510.73 85.8388 2511.35C70.6794 2511.98 56.0459 2517.08 43.7886 2526.03C31.5313 2534.97 22.2009 2547.34 16.9772 2561.59C11.7535 2575.83 10.8711 2591.31 14.4416 2606.05C18.0121 2620.8 25.8752 2634.16 37.0364 2644.43C47.7232 2654.27 60.9741 2660.87 75.2398 2663.47C76.2901 2663.66 77.2797 2662.94 77.4446 2661.88C77.6096 2660.83 76.8874 2659.84 75.8374 2659.65C62.3272 2657.17 49.7795 2650.91 39.6553 2641.59C29.0565 2631.83 21.5898 2619.15 18.1992 2605.14C14.8086 2591.14 15.6465 2576.45 20.607 2562.92C25.5675 2549.39 34.4277 2537.64 46.0672 2529.15C57.7067 2520.66 71.6027 2515.81 85.998 2515.22C100.393 2514.62 114.641 2518.31 126.941 2525.81C139.24 2533.32 149.037 2544.3 155.094 2557.37C160.881 2569.86 163.005 2583.72 161.244 2597.34C161.107 2598.4 161.825 2599.39 162.88 2599.55Z" fill="url(#paint3_linear_2043_2)" fill-opacity="0.7"/>
<path d="M1528.24 2819.5C1529.77 2819.5 1531 2818.26 1530.97 2816.74C1530.44 2794.47 1523.6 2772.78 1511.2 2754.22C1498.29 2734.9 1479.94 2719.84 1458.47 2710.94C1436.99 2702.05 1413.37 2699.72 1390.58 2704.26C1367.78 2708.79 1346.85 2719.98 1330.41 2736.42C1313.98 2752.85 1302.79 2773.78 1298.26 2796.58C1293.72 2819.37 1296.05 2843 1304.94 2864.47C1313.84 2885.94 1328.9 2904.29 1348.22 2917.2C1366.78 2929.6 1388.47 2936.44 1410.74 2936.97C1412.26 2937 1413.5 2935.77 1413.5 2934.24V2933.84C1413.5 2932.31 1412.26 2931.08 1410.74 2931.04C1389.64 2930.52 1369.09 2924.02 1351.51 2912.27C1333.16 2900.01 1318.86 2882.59 1310.42 2862.2C1301.97 2841.81 1299.76 2819.38 1304.07 2797.73C1308.37 2776.09 1319 2756.21 1334.6 2740.6C1350.21 2725 1370.09 2714.37 1391.73 2710.07C1413.38 2705.76 1435.81 2707.97 1456.2 2716.42C1476.59 2724.86 1494.01 2739.16 1506.27 2757.51C1518.02 2775.09 1524.52 2795.64 1525.04 2816.74C1525.08 2818.26 1526.31 2819.5 1527.84 2819.5H1528.24Z" fill="url(#paint4_linear_2043_2)" fill-opacity="0.7"/>
<path d="M1323.18 2815.02C1321.9 2814.96 1320.8 2815.95 1320.76 2817.25C1320.34 2834.78 1324.89 2852.08 1333.91 2867.16C1343.34 2882.9 1357.22 2895.49 1373.8 2903.34C1390.39 2911.19 1408.92 2913.95 1427.07 2911.26C1445.22 2908.58 1462.17 2900.57 1475.77 2888.26C1489.37 2875.94 1499.01 2859.87 1503.47 2842.08C1507.94 2824.28 1507.03 2805.56 1500.85 2788.29C1494.68 2771.01 1483.52 2755.95 1468.79 2745.01C1454.68 2734.54 1437.91 2728.3 1420.42 2727C1419.14 2726.9 1418.04 2727.9 1417.97 2729.18C1417.91 2730.47 1418.9 2731.57 1420.19 2731.67C1436.75 2732.93 1452.64 2738.85 1466 2748.77C1479.99 2759.15 1490.59 2773.45 1496.45 2789.86C1502.31 2806.26 1503.18 2824.04 1498.94 2840.94C1494.7 2857.84 1485.54 2873.1 1472.63 2884.79C1459.71 2896.49 1443.62 2904.09 1426.39 2906.64C1409.15 2909.19 1391.55 2906.57 1375.8 2899.11C1360.06 2891.66 1346.88 2879.7 1337.92 2864.75C1329.38 2850.48 1325.05 2834.08 1325.43 2817.48C1325.46 2816.19 1324.47 2815.09 1323.18 2815.02Z" fill="url(#paint5_linear_2043_2)" fill-opacity="0.7"/>
<path d="M1470.24 2828.37C1471.05 2828.5 1471.81 2827.95 1471.92 2827.13C1473.36 2816.09 1471.64 2804.85 1466.95 2794.73C1462.05 2784.16 1454.13 2775.28 1444.18 2769.21C1434.24 2763.14 1422.71 2760.16 1411.07 2760.64C1399.43 2761.12 1388.19 2765.04 1378.78 2771.91C1369.37 2778.77 1362.2 2788.28 1358.19 2799.22C1354.18 2810.16 1353.5 2822.04 1356.24 2833.36C1358.98 2844.69 1365.02 2854.95 1373.59 2862.84C1381.8 2870.4 1391.98 2875.46 1402.93 2877.46C1403.74 2877.6 1404.5 2877.05 1404.63 2876.24C1404.75 2875.43 1404.2 2874.67 1403.39 2874.52C1393.02 2872.62 1383.38 2867.81 1375.6 2860.65C1367.47 2853.16 1361.73 2843.42 1359.13 2832.67C1356.52 2821.91 1357.17 2810.63 1360.98 2800.24C1364.79 2789.85 1371.59 2780.83 1380.53 2774.3C1389.47 2767.78 1400.14 2764.06 1411.19 2763.6C1422.25 2763.15 1433.19 2765.98 1442.64 2771.74C1452.08 2777.51 1459.61 2785.94 1464.26 2795.98C1468.7 2805.57 1470.33 2816.21 1468.98 2826.67C1468.88 2827.49 1469.43 2828.25 1470.24 2828.37Z" fill="url(#paint6_linear_2043_2)" fill-opacity="0.7"/>
<g filter="url(#filter1_f_2043_2)">
<ellipse cx="1234.83" cy="1331.65" rx="348.035" ry="344.718" transform="rotate(-55.1112 1234.83 1331.65)" fill="url(#paint7_linear_2043_2)" fill-opacity="0.6"/>
</g>
<path d="M1551.13 688.547C1545.21 695.078 1522.28 705.305 1477.99 693.971C1422.63 679.804 1356.29 686.624 1384.69 749.763C1413.09 812.902 1605.19 960.311 1552.66 1033.47C1500.13 1106.64 1223.1 963.256 1091.61 993.483C1011.88 1007.1 1038.1 1100.62 1046.9 1114" stroke="url(#paint8_linear_2043_2)" stroke-opacity="0.7" stroke-width="6.19666" stroke-linecap="round"/>
<g filter="url(#filter2_f_2043_2)">
<circle cx="1082" cy="416" r="180" fill="url(#paint9_linear_2043_2)"/>
</g>
<g filter="url(#filter3_f_2043_2)">
<ellipse cx="142.805" cy="455.039" rx="261.431" ry="260.208" transform="rotate(140.573 142.805 455.039)" fill="url(#paint10_linear_2043_2)" fill-opacity="0.6"/>
</g>
<g filter="url(#filter4_f_2043_2)">
<path d="M1454.24 142.318L1425.82 244.536L1513.52 304.238L1411.3 275.819L1351.6 363.522L1380.02 261.304L1292.32 201.602L1394.54 230.021L1454.24 142.318Z" fill="url(#paint11_linear_2043_2)" fill-opacity="0.8"/>
</g>
<g filter="url(#filter5_f_2043_2)">
<path d="M176.54 841.45L268.63 953.748L404.531 902.54L292.234 994.63L343.441 1130.53L251.351 1018.23L115.45 1069.44L227.748 977.351L176.54 841.45Z" fill="url(#paint12_linear_2043_2)" fill-opacity="0.8"/>
</g>
<path d="M926.71 515.962C930.36 514.788 933.114 512.521 934.971 509.159C936.828 505.797 937.26 502.265 936.268 498.562C937.26 502.265 939.405 505.107 942.703 507.087C946.002 509.067 949.525 509.653 953.273 508.844C950.867 509.606 948.817 510.894 947.124 512.706C945.431 514.518 944.273 516.627 943.652 519.032C943.03 521.437 943.047 523.862 943.702 526.306C942.705 522.585 940.561 519.728 937.269 517.737C933.978 515.745 930.458 515.153 926.71 515.962Z" fill="#2CA0E2"/>
<path d="M1198.23 345.619C1200.72 344.363 1202.43 342.425 1203.38 339.805C1204.32 337.185 1204.23 334.606 1203.1 332.067C1204.23 334.606 1206.09 336.397 1208.68 337.44C1211.27 338.482 1213.86 338.501 1216.45 337.494C1214.81 338.314 1213.49 339.47 1212.49 340.961C1211.48 342.452 1210.89 344.095 1210.72 345.888C1210.55 347.682 1210.84 349.417 1211.59 351.093C1210.45 348.541 1208.59 346.739 1206 345.687C1203.42 344.636 1200.83 344.613 1198.23 345.619Z" fill="#2CA0E2"/>
<defs>
<filter id="filter0_f_2043_2" x="-484.005" y="1771.67" width="1491.67" height="1493.97" filterUnits="userSpaceOnUse" color-interpolation-filters="sRGB">
<feFlood flood-opacity="0" result="BackgroundImageFix"/>
<feBlend mode="normal" in="SourceGraphic" in2="BackgroundImageFix" result="shape"/>
<feGaussianBlur stdDeviation="200" result="effect1_foregroundBlur_2043_2"/>
</filter>
<filter id="filter1_f_2043_2" x="488.995" y="584.669" width="1491.67" height="1493.97" filterUnits="userSpaceOnUse" color-interpolation-filters="sRGB">
<feFlood flood-opacity="0" result="BackgroundImageFix"/>
<feBlend mode="normal" in="SourceGraphic" in2="BackgroundImageFix" result="shape"/>
<feGaussianBlur stdDeviation="200" result="effect1_foregroundBlur_2043_2"/>
</filter>
<filter id="filter2_f_2043_2" x="663.589" y="-2.4106" width="836.821" height="836.821" filterUnits="userSpaceOnUse" color-interpolation-filters="sRGB">
<feFlood flood-opacity="0" result="BackgroundImageFix"/>
<feBlend mode="normal" in="SourceGraphic" in2="BackgroundImageFix" result="shape"/>
<feGaussianBlur stdDeviation="119.205" result="effect1_foregroundBlur_2043_2"/>
</filter>
<filter id="filter3_f_2043_2" x="-518.142" y="-205.67" width="1321.89" height="1321.42" filterUnits="userSpaceOnUse" color-interpolation-filters="sRGB">
<feFlood flood-opacity="0" result="BackgroundImageFix"/>
<feBlend mode="normal" in="SourceGraphic" in2="BackgroundImageFix" result="shape"/>
<feGaussianBlur stdDeviation="200" result="effect1_foregroundBlur_2043_2"/>
</filter>
<filter id="filter4_f_2043_2" x="1221.08" y="71.078" width="363.684" height="363.684" filterUnits="userSpaceOnUse" color-interpolation-filters="sRGB">
<feFlood flood-opacity="0" result="BackgroundImageFix"/>
<feBlend mode="normal" in="SourceGraphic" in2="BackgroundImageFix" result="shape"/>
<feGaussianBlur stdDeviation="35.6199" result="effect1_foregroundBlur_2043_2"/>
</filter>
<filter id="filter5_f_2043_2" x="44.2105" y="770.211" width="431.56" height="431.56" filterUnits="userSpaceOnUse" color-interpolation-filters="sRGB">
<feFlood flood-opacity="0" result="BackgroundImageFix"/>
<feBlend mode="normal" in="SourceGraphic" in2="BackgroundImageFix" result="shape"/>
<feGaussianBlur stdDeviation="35.6199" result="effect1_foregroundBlur_2043_2"/>
</filter>
<linearGradient id="paint0_linear_2043_2" x1="27.2858" y1="2254.87" x2="605.72" y2="2703.11" gradientUnits="userSpaceOnUse">
<stop stop-color="#65E0E9"/>
<stop offset="1" stop-color="#A839FF"/>
</linearGradient>
<linearGradient id="paint1_linear_2043_2" x1="-30.34" y1="2463.8" x2="143.661" y2="2792.98" gradientUnits="userSpaceOnUse">
<stop stop-color="#15BFFD"/>
<stop offset="1" stop-color="#9C37FD"/>
</linearGradient>
<linearGradient id="paint2_linear_2043_2" x1="-5.21637" y1="2489.95" x2="132.152" y2="2749.83" gradientUnits="userSpaceOnUse">
<stop stop-color="#15BFFD"/>
<stop offset="1" stop-color="#9C37FD"/>
</linearGradient>
<linearGradient id="paint3_linear_2043_2" x1="29.1638" y1="2525.73" x2="116.405" y2="2690.78" gradientUnits="userSpaceOnUse">
<stop stop-color="#15BFFD"/>
<stop offset="1" stop-color="#9C37FD"/>
</linearGradient>
<linearGradient id="paint4_linear_2043_2" x1="1321.85" y1="2724.12" x2="1455.48" y2="2976.92" gradientUnits="userSpaceOnUse">
<stop stop-color="#15BFFD"/>
<stop offset="1" stop-color="#9C37FD"/>
</linearGradient>
<linearGradient id="paint5_linear_2043_2" x1="1341.14" y1="2744.2" x2="1446.64" y2="2943.78" gradientUnits="userSpaceOnUse">
<stop stop-color="#15BFFD"/>
<stop offset="1" stop-color="#9C37FD"/>
</linearGradient>
<linearGradient id="paint6_linear_2043_2" x1="1367.55" y1="2771.68" x2="1434.55" y2="2898.43" gradientUnits="userSpaceOnUse">
<stop stop-color="#15BFFD"/>
<stop offset="1" stop-color="#9C37FD"/>
</linearGradient>
<linearGradient id="paint7_linear_2043_2" x1="1000.29" y1="1067.87" x2="1578.72" y2="1516.11" gradientUnits="userSpaceOnUse">
<stop stop-color="#65E0E9"/>
<stop offset="1" stop-color="#A839FF"/>
</linearGradient>
<linearGradient id="paint8_linear_2043_2" x1="1299.5" y1="626.611" x2="1398.71" y2="1303.51" gradientUnits="userSpaceOnUse">
<stop stop-color="#15BFFD"/>
<stop offset="1" stop-color="#9C37FD"/>
</linearGradient>
<linearGradient id="paint9_linear_2043_2" x1="960.696" y1="278.261" x2="1262" y2="509.522" gradientUnits="userSpaceOnUse">
<stop stop-color="#65E0E9"/>
<stop offset="1" stop-color="#A839FF"/>
</linearGradient>
<linearGradient id="paint10_linear_2043_2" x1="-33.377" y1="255.923" x2="402.712" y2="592.21" gradientUnits="userSpaceOnUse">
<stop stop-color="#65E0E9"/>
<stop offset="1" stop-color="#A839FF"/>
</linearGradient>
<linearGradient id="paint11_linear_2043_2" x1="1454.24" y1="142.318" x2="1351.6" y2="363.522" gradientUnits="userSpaceOnUse">
<stop stop-color="#65E0E9"/>
<stop offset="1" stop-color="#FF90EE"/>
</linearGradient>
<linearGradient id="paint12_linear_2043_2" x1="176.54" y1="841.45" x2="343.441" y2="1130.53" gradientUnits="userSpaceOnUse">
<stop stop-color="#65E0E9"/>
<stop offset="1" stop-color="#FF90EE"/>
</linearGradient>
</defs>
</svg>
