<svg width="1440" height="1908" viewBox="0 0 1440 1908" fill="none" xmlns="http://www.w3.org/2000/svg">
<mask id="mask0_2029_6" style="mask-type:alpha" maskUnits="userSpaceOnUse" x="0" y="1350" width="1440" height="558">
<rect y="1350" width="1440" height="558" fill="#D9D9D9"/>
</mask>
<g mask="url(#mask0_2029_6)">
<g opacity="0.7">
<path d="M1563.54 1199.18C1462.16 1293.32 1346.91 1188.19 1229.96 1222.71C1109.66 1258.8 1111.34 1335.17 948.968 1386.95C846.328 1419.9 550.609 1188.71 445.025 1178.25C317.988 1166.22 253.208 1277.11 129.116 1232.65C55.0806 1205.97 -18.5344 1179.3 -92.5694 1152.62" stroke="url(#paint0_linear_2029_6)" stroke-miterlimit="10"/>
<path d="M1563.54 1253.04C1496.23 1315.81 1422.2 1290.18 1346.06 1276.58C1308.2 1269.78 1269.92 1266.12 1231.22 1277.63C1111.33 1312.67 1110.91 1389.03 950.644 1436.11C918.675 1445.52 869.459 1429.31 813.512 1403.68C694.888 1348.76 546.818 1254.09 465.211 1235.26C458.481 1233.69 452.171 1232.64 446.282 1232.12C342.381 1223.75 279.283 1295.41 191.787 1297.5C172.437 1298.02 151.825 1294.89 129.53 1287.04C55.4953 1260.89 -18.5398 1233.69 -92.5747 1207.02" stroke="url(#paint1_linear_2029_6)" stroke-miterlimit="10"/>
<path d="M1563.54 1306.92C1496.66 1369.16 1423.04 1344.06 1346.9 1330.98C1309.47 1324.18 1271.19 1320.52 1232.49 1331.5C1113.44 1365.5 1110.5 1442.39 952.332 1484.23C920.362 1492.6 871.146 1475.86 815.62 1449.71C696.575 1393.22 549.347 1304.31 466.478 1287.57C459.747 1286 453.438 1284.95 447.549 1284.95C344.068 1278.68 280.128 1348.76 192.632 1350.86C173.282 1351.38 152.67 1348.76 130.376 1340.92C55.92 1315.29 -18.1145 1288.09 -92.1495 1260.89" stroke="url(#paint2_linear_2029_6)" stroke-miterlimit="10"/>
<path d="M1563.53 1360.79C1496.64 1423.03 1423.45 1398.44 1347.73 1385.37C1310.3 1378.57 1272.44 1375.43 1233.74 1385.89C1115.53 1419.37 1110.06 1495.73 954.002 1533.39C921.612 1541.23 872.817 1522.93 817.711 1496.25C697.825 1438.2 551.859 1355.03 467.728 1340.39C460.998 1339.34 454.688 1338.29 448.799 1337.77C346.159 1333.06 281.379 1401.58 193.041 1404.2C173.691 1404.72 153.079 1402.11 130.785 1394.26C56.329 1369.15 -17.7063 1341.43 -92.5825 1314.76" stroke="url(#paint3_linear_2029_6)" stroke-miterlimit="10"/>
<path d="M1563.54 1415.18C1497.07 1476.9 1423.88 1453.37 1348.58 1439.77C1311.57 1433.49 1273.29 1429.83 1235.01 1440.29C1117.65 1472.72 1109.65 1549.08 955.695 1582.03C922.884 1588.83 874.508 1570 819.824 1542.81C699.517 1483.18 554.391 1405.77 468.998 1393.22C462.268 1392.17 455.958 1391.12 450.069 1391.12C347.85 1388.51 282.229 1455.46 193.892 1458.07C174.121 1458.6 153.51 1455.98 131.215 1448.66C56.3387 1424.08 -17.697 1396.35 -92.5733 1369.16" stroke="url(#paint4_linear_2029_6)" stroke-miterlimit="10"/>
<path d="M1563.54 1469.07C1497.5 1530.26 1424.3 1507.25 1349.43 1494.17C1312.41 1487.9 1274.55 1484.76 1236.27 1494.7C1119.75 1526.08 1109.23 1601.92 957.379 1630.69C924.148 1636.96 876.193 1616.56 821.929 1588.84C701.202 1527.65 556.917 1455.99 470.263 1445.53C463.532 1444.48 457.223 1443.96 451.333 1443.96C349.535 1442.91 283.072 1508.29 194.735 1511.43C174.964 1511.96 154.353 1509.34 132.058 1502.02C56.7614 1477.96 -17.2737 1449.71 -92.1499 1422.52" stroke="url(#paint5_linear_2029_6)" stroke-miterlimit="10"/>
<path d="M1563.53 1522.92C1497.91 1584.12 1425.14 1561.63 1350.26 1548.55C1313.24 1542.28 1275.81 1539.14 1237.53 1549.07C1121.85 1579.93 1108.38 1655.25 959.053 1679.31C925.822 1684.54 877.868 1663.1 824.024 1635.38C702.876 1572.61 559.433 1506.71 471.517 1498.34C464.786 1497.82 458.477 1497.29 452.587 1497.29C351.21 1497.82 283.905 1562.15 195.568 1565.29C175.797 1565.81 154.765 1563.2 132.47 1556.4C57.1733 1532.86 -16.8616 1504.09 -92.5791 1476.9" stroke="url(#paint6_linear_2029_6)" stroke-miterlimit="10"/>
<path d="M1563.53 1576.79C1497.91 1637.47 1425.56 1616.02 1351.1 1602.94C1314.51 1596.67 1276.65 1593.53 1238.79 1603.47C1123.95 1632.76 1107.96 1708.08 960.736 1727.95C927.083 1732.66 879.55 1710.17 826.127 1681.4C704.558 1617.07 562.377 1556.39 472.357 1550.12C465.627 1549.59 459.317 1549.07 453.428 1549.07C352.471 1551.69 284.325 1614.45 195.567 1617.59C175.376 1618.11 154.764 1616.02 132.469 1608.7C56.7517 1585.16 -17.2827 1556.92 -93.0002 1529.72" stroke="url(#paint7_linear_2029_6)" stroke-miterlimit="10"/>
<path d="M1563.54 1630.68C1498.33 1691.35 1425.98 1669.91 1351.95 1657.35C1315.35 1651.08 1277.91 1648.46 1240.05 1657.88C1126.06 1686.64 1107.13 1760.91 962.422 1776.61C928.349 1780.27 881.236 1756.73 828.234 1727.96C706.244 1662.06 564.905 1607.14 473.623 1602.96C466.893 1602.43 460.583 1602.43 454.694 1602.43C354.578 1606.62 285.171 1667.81 196.413 1671.47C176.222 1672.52 155.61 1669.91 133.315 1663.11C57.5977 1640.09 -16.8587 1611.33 -92.5762 1584.13" stroke="url(#paint8_linear_2029_6)" stroke-miterlimit="10"/>
<path d="M1563.54 1685.08C1498.76 1745.23 1426.83 1724.83 1352.79 1712.28C1316.62 1706 1279.18 1703.39 1241.32 1712.8C1128.17 1740.52 1106.29 1814.27 964.532 1825.78C930.038 1828.39 883.345 1803.81 830.764 1775.04C707.933 1707.05 567.856 1658.41 475.312 1656.31C468.582 1656.31 462.272 1655.79 456.383 1656.31C356.688 1662.07 286.439 1722.22 197.681 1725.88C177.49 1726.92 156.458 1724.31 134.163 1718.03C58.0248 1695.54 -16.4309 1666.78 -92.1485 1639.05" stroke="url(#paint9_linear_2029_6)" stroke-miterlimit="10"/>
<path d="M1563.53 1738.93C1499.17 1798.56 1427.24 1778.68 1353.62 1766.65C1317.45 1760.9 1280.43 1758.28 1242.57 1767.17C1130.26 1793.85 1105.86 1866.55 966.202 1874.4C931.288 1876.49 885.015 1850.34 832.854 1821.05C709.603 1751.48 570.788 1708.07 476.561 1708.59C469.831 1708.59 463.521 1708.59 457.632 1709.12C358.358 1716.44 287.689 1775.02 198.51 1779.2C178.319 1780.25 157.286 1777.64 134.991 1771.36C58.8532 1749.39 -15.6023 1720.1 -92.1612 1692.38" stroke="url(#paint10_linear_2029_6)" stroke-miterlimit="10"/>
<path d="M1563.53 1792.81C1499.59 1852.44 1427.66 1833.09 1354.47 1821.06C1318.29 1815.3 1281.28 1812.69 1243.84 1821.58C1132.36 1847.21 1105.02 1918.87 967.889 1923.05C932.554 1924.1 886.703 1897.42 834.962 1867.61C711.29 1796.47 573.317 1758.29 477.828 1761.43C471.098 1761.43 464.788 1761.43 458.899 1761.95C360.046 1770.85 288.534 1828.38 198.935 1832.56C178.323 1833.61 157.291 1831.52 135.417 1825.24C58.8585 1803.8 -15.5974 1774.51 -92.1563 1746.79" stroke="url(#paint11_linear_2029_6)" stroke-miterlimit="10"/>
<path d="M1563.54 1846.69C1499.6 1905.8 1428.09 1887.49 1355.32 1875.46C1319.56 1869.71 1282.54 1867.09 1245.11 1875.46C1134.05 1900.57 1103.77 1970.65 969.579 1971.18C933.823 1971.18 888.393 1943.45 837.073 1913.12C712.98 1840.42 575.848 1807.99 479.098 1813.22C472.368 1813.74 466.058 1813.74 460.169 1814.26C362.156 1824.72 289.383 1881.21 199.784 1885.4C179.172 1886.44 158.139 1884.35 135.845 1878.07C58.8652 1857.15 -15.5901 1827.34 -92.149 1799.62" stroke="url(#paint12_linear_2029_6)" stroke-miterlimit="10"/>
<path d="M1563.54 1900.57C1500.02 1959.67 1428.93 1941.36 1356.15 1929.86C1320.4 1924.1 1283.8 1922.01 1246.36 1929.86C1136.15 1953.92 1102.92 2022.43 971.258 2019.82C935.081 2019.3 889.65 1990.01 839.172 1959.67C714.659 1884.87 578.789 1858.2 480.356 1866.05C473.625 1866.57 467.315 1867.09 461.426 1867.61C363.835 1880.17 290.221 1934.56 200.622 1939.27C180.01 1940.32 158.976 1938.22 136.681 1932.47C59.702 1912.07 -14.7532 1881.74 -92.1534 1854.02" stroke="url(#paint13_linear_2029_6)" stroke-miterlimit="10"/>
<path d="M1563.55 1954.97C1500.45 2013.55 1429.36 1996.29 1357 1984.79C1321.67 1979.03 1284.65 1976.94 1247.63 1984.79C1138.26 2007.8 1102.09 2075.27 972.948 2068.99C936.351 2067.43 891.341 2037.09 841.283 2006.23C716.35 1929.87 581.32 1908.42 481.625 1918.88C474.895 1919.41 468.585 1919.93 462.696 1920.97C365.525 1935.1 291.07 1988.45 201.471 1993.15C180.859 1994.2 159.405 1992.11 137.111 1986.35C59.7107 1966.48 -14.7449 1936.14 -92.1451 1907.9" stroke="url(#paint14_linear_2029_6)" stroke-miterlimit="10"/>
</g>
</g>
<g filter="url(#filter0_f_2029_6)">
<circle cx="122" cy="630" r="230" fill="url(#paint15_linear_2029_6)" fill-opacity="0.8"/>
</g>
<g filter="url(#filter1_f_2029_6)">
<path d="M1250.94 112.591L1302.36 266.33L1464.46 266.936L1310.72 318.355L1310.12 480.464L1258.7 326.725L1096.59 326.118L1250.33 274.7L1250.94 112.591Z" fill="url(#paint16_linear_2029_6)" fill-opacity="0.8"/>
</g>
<circle opacity="0.16" cx="75" cy="640" r="374.633" stroke="white" stroke-width="0.733138"/>
<g filter="url(#filter2_f_2029_6)">
<path d="M301.744 630.499C304.093 630.499 306.003 628.594 305.948 626.245C305.141 591.44 294.447 557.548 275.072 528.552C254.909 498.376 226.251 474.857 192.721 460.968C159.191 447.079 122.295 443.446 86.6999 450.526C51.1047 457.606 18.4083 475.083 -7.25445 500.746C-32.9172 526.408 -50.3938 559.105 -57.4741 594.7C-64.5545 630.295 -60.9206 667.191 -47.032 700.721C-33.1434 734.251 -9.6239 762.909 20.5523 783.072C49.5485 802.447 83.4395 813.141 118.245 813.948C120.594 814.003 122.499 812.093 122.499 809.744V809.003C122.499 806.654 120.594 804.755 118.245 804.698C85.2689 803.893 53.1656 793.741 25.6903 775.383C-2.96508 756.236 -25.2992 729.022 -38.4878 697.182C-51.6765 665.341 -55.1272 630.305 -48.4037 596.504C-41.6802 562.703 -25.0844 531.654 -0.715054 507.285C23.6543 482.916 54.7028 466.32 88.5042 459.596C122.305 452.873 157.341 456.324 189.182 469.512C221.022 482.701 248.236 505.035 267.383 533.69C285.741 561.166 295.893 593.269 296.698 626.245C296.755 628.594 298.654 630.499 301.003 630.499H301.744Z" fill="url(#paint17_linear_2029_6)" fill-opacity="0.9"/>
<path d="M-18.5456 623.51C-20.5592 623.41 -22.2774 624.962 -22.3264 626.978C-22.992 654.354 -15.8838 681.386 -1.78977 704.923C12.9301 729.505 34.6087 749.17 60.5047 761.431C86.4008 773.692 115.351 777.999 143.695 773.807C172.039 769.614 198.503 757.111 219.74 737.879C240.978 718.646 256.036 693.547 263.009 665.757C269.983 637.966 268.559 608.732 258.918 581.751C249.276 554.77 231.851 531.253 208.844 514.176C186.816 497.824 160.619 488.079 133.311 486.035C131.3 485.884 129.586 487.441 129.486 489.454C129.387 491.468 130.939 493.176 132.949 493.33C158.815 495.3 183.624 504.547 204.493 520.038C226.339 536.255 242.887 558.586 252.042 584.208C261.198 609.829 262.55 637.59 255.928 663.98C249.306 690.37 235.007 714.203 214.839 732.467C194.672 750.73 169.542 762.603 142.627 766.584C115.711 770.565 88.22 766.475 63.6291 754.832C39.0382 743.189 18.4522 724.515 4.47419 701.172C-8.87795 678.874 -15.6276 653.273 -15.0318 627.339C-14.9854 625.324 -16.5319 623.61 -18.5456 623.51Z" fill="url(#paint18_linear_2029_6)" fill-opacity="0.9"/>
<path d="M211.106 644.356C212.371 644.554 213.56 643.689 213.726 642.419C215.98 625.175 213.301 607.626 205.976 591.818C198.325 575.308 185.951 561.437 170.417 551.959C154.884 542.482 136.889 537.823 118.707 538.573C100.526 539.322 82.9757 545.447 68.2751 556.171C53.5745 566.895 42.3841 581.738 36.1191 598.822C29.8541 615.906 28.7958 634.464 33.0781 652.15C37.3603 669.835 46.7908 685.854 60.177 698.18C72.994 709.982 88.8863 717.891 105.996 721.01C107.255 721.24 108.442 720.372 108.64 719.107C108.838 717.842 107.972 716.659 106.712 716.427C90.5091 713.451 75.4602 705.95 63.3179 694.769C50.6063 683.064 41.6512 667.853 37.5847 651.059C33.5183 634.264 34.5232 616.642 40.4725 600.418C46.4218 584.195 57.0481 570.101 71.0078 559.917C84.9675 549.733 101.634 543.918 118.898 543.206C136.163 542.494 153.252 546.917 168.002 555.917C182.753 564.917 194.504 578.089 201.768 593.767C208.708 608.744 211.256 625.364 209.143 641.703C208.979 642.973 209.841 644.158 211.106 644.356Z" fill="url(#paint19_linear_2029_6)" fill-opacity="0.9"/>
</g>
<defs>
<filter id="filter0_f_2029_6" x="-508" y="0" width="1260" height="1260" filterUnits="userSpaceOnUse" color-interpolation-filters="sRGB">
<feFlood flood-opacity="0" result="BackgroundImageFix"/>
<feBlend mode="normal" in="SourceGraphic" in2="BackgroundImageFix" result="shape"/>
<feGaussianBlur stdDeviation="200" result="effect1_foregroundBlur_2029_6"/>
</filter>
<filter id="filter1_f_2029_6" x="1012.41" y="28.4148" width="536.226" height="536.225" filterUnits="userSpaceOnUse" color-interpolation-filters="sRGB">
<feFlood flood-opacity="0" result="BackgroundImageFix"/>
<feBlend mode="normal" in="SourceGraphic" in2="BackgroundImageFix" result="shape"/>
<feGaussianBlur stdDeviation="42.0881" result="effect1_foregroundBlur_2029_6"/>
</filter>
<filter id="filter2_f_2029_6" x="-65" y="443" width="374.949" height="374.949" filterUnits="userSpaceOnUse" color-interpolation-filters="sRGB">
<feFlood flood-opacity="0" result="BackgroundImageFix"/>
<feBlend mode="normal" in="SourceGraphic" in2="BackgroundImageFix" result="shape"/>
<feGaussianBlur stdDeviation="2" result="effect1_foregroundBlur_2029_6"/>
</filter>
<linearGradient id="paint0_linear_2029_6" x1="735.712" y1="1150.26" x2="735.712" y2="1392.92" gradientUnits="userSpaceOnUse">
<stop stop-color="white"/>
<stop offset="1"/>
</linearGradient>
<linearGradient id="paint1_linear_2029_6" x1="735.707" y1="1204.24" x2="735.707" y2="1441.11" gradientUnits="userSpaceOnUse">
<stop stop-color="white"/>
<stop offset="1"/>
</linearGradient>
<linearGradient id="paint2_linear_2029_6" x1="735.711" y1="1258.23" x2="735.711" y2="1489.38" gradientUnits="userSpaceOnUse">
<stop stop-color="white"/>
<stop offset="1"/>
</linearGradient>
<linearGradient id="paint3_linear_2029_6" x1="735.699" y1="1312.2" x2="735.699" y2="1537.67" gradientUnits="userSpaceOnUse">
<stop stop-color="white"/>
<stop offset="1"/>
</linearGradient>
<linearGradient id="paint4_linear_2029_6" x1="735.708" y1="1366.19" x2="735.708" y2="1586.02" gradientUnits="userSpaceOnUse">
<stop stop-color="white"/>
<stop offset="1"/>
</linearGradient>
<linearGradient id="paint5_linear_2029_6" x1="735.711" y1="1420.18" x2="735.711" y2="1634.43" gradientUnits="userSpaceOnUse">
<stop stop-color="white"/>
<stop offset="1"/>
</linearGradient>
<linearGradient id="paint6_linear_2029_6" x1="735.703" y1="1474.15" x2="735.702" y2="1682.85" gradientUnits="userSpaceOnUse">
<stop stop-color="white"/>
<stop offset="1"/>
</linearGradient>
<linearGradient id="paint7_linear_2029_6" x1="735.702" y1="1528.13" x2="735.702" y2="1731.32" gradientUnits="userSpaceOnUse">
<stop stop-color="white"/>
<stop offset="1"/>
</linearGradient>
<linearGradient id="paint8_linear_2029_6" x1="735.705" y1="1582.12" x2="735.705" y2="1779.86" gradientUnits="userSpaceOnUse">
<stop stop-color="white"/>
<stop offset="1"/>
</linearGradient>
<linearGradient id="paint9_linear_2029_6" x1="735.712" y1="1636.11" x2="735.712" y2="1828.43" gradientUnits="userSpaceOnUse">
<stop stop-color="white"/>
<stop offset="1"/>
</linearGradient>
<linearGradient id="paint10_linear_2029_6" x1="735.7" y1="1690.07" x2="735.7" y2="1877.01" gradientUnits="userSpaceOnUse">
<stop stop-color="white"/>
<stop offset="1"/>
</linearGradient>
<linearGradient id="paint11_linear_2029_6" x1="735.704" y1="1744.06" x2="735.704" y2="1925.67" gradientUnits="userSpaceOnUse">
<stop stop-color="white"/>
<stop offset="1"/>
</linearGradient>
<linearGradient id="paint12_linear_2029_6" x1="735.712" y1="1798.05" x2="735.712" y2="1974.36" gradientUnits="userSpaceOnUse">
<stop stop-color="white"/>
<stop offset="1"/>
</linearGradient>
<linearGradient id="paint13_linear_2029_6" x1="735.707" y1="1852.04" x2="735.707" y2="2023.16" gradientUnits="userSpaceOnUse">
<stop stop-color="white"/>
<stop offset="1"/>
</linearGradient>
<linearGradient id="paint14_linear_2029_6" x1="735.716" y1="1906.03" x2="735.716" y2="2072.2" gradientUnits="userSpaceOnUse">
<stop stop-color="white"/>
<stop offset="1"/>
</linearGradient>
<linearGradient id="paint15_linear_2029_6" x1="-33" y1="454" x2="352" y2="749.5" gradientUnits="userSpaceOnUse">
<stop stop-color="#65E0E9"/>
<stop offset="1" stop-color="#A839FF"/>
</linearGradient>
<linearGradient id="paint16_linear_2029_6" x1="1250.94" y1="112.591" x2="1310.12" y2="480.464" gradientUnits="userSpaceOnUse">
<stop stop-color="#65E0E9"/>
<stop offset="1" stop-color="#FF90EE"/>
</linearGradient>
<linearGradient id="paint17_linear_2029_6" x1="-20.6303" y1="481.546" x2="188.055" y2="876.341" gradientUnits="userSpaceOnUse">
<stop stop-color="#15BFFD"/>
<stop offset="1" stop-color="#9C37FD"/>
</linearGradient>
<linearGradient id="paint18_linear_2029_6" x1="9.50169" y1="512.904" x2="174.253" y2="824.584" gradientUnits="userSpaceOnUse">
<stop stop-color="#15BFFD"/>
<stop offset="1" stop-color="#9C37FD"/>
</linearGradient>
<linearGradient id="paint19_linear_2029_6" x1="50.735" y1="555.816" x2="155.367" y2="753.76" gradientUnits="userSpaceOnUse">
<stop stop-color="#15BFFD"/>
<stop offset="1" stop-color="#9C37FD"/>
</linearGradient>
</defs>
</svg>
