<svg width="120" height="111" viewBox="0 0 120 111" fill="none" xmlns="http://www.w3.org/2000/svg">
<path d="M98.0967 42.8562C103.577 42.6904 108.778 40.3968 112.596 36.4614C116.414 32.5261 118.55 27.2584 118.55 21.7753C118.55 16.2921 116.414 11.0245 112.596 7.08913C108.778 3.15378 103.577 0.860093 98.0967 0.694336V42.8562Z" fill="#AB8BE0"/>
<path d="M98.0968 42.8556C95.2748 42.9409 92.4643 42.4588 89.8321 41.4378C87.1999 40.4168 84.7994 38.8777 82.7731 36.9117C80.7467 34.9457 79.1358 32.5929 78.0356 29.9927C76.9355 27.3926 76.3687 24.598 76.3687 21.7747C76.3687 18.9513 76.9355 16.1568 78.0356 13.5566C79.1358 10.9564 80.7467 8.60361 82.7731 6.63763C84.7994 4.67165 87.1999 3.13253 89.8321 2.11151C92.4643 1.0905 95.2748 0.608372 98.0968 0.693722V42.8556Z" fill="#EDADE3"/>
<path d="M98.0969 64.3517V43.1455C92.44 43.1497 87.0105 45.3737 82.9763 49.3394C78.9422 53.3051 76.6254 58.6957 76.5244 64.3517H98.0969Z" fill="#EDADE3"/>
<path d="M119.669 64.3517C119.568 58.6957 117.251 53.3051 113.217 49.3394C109.183 45.3737 103.754 43.1497 98.0967 43.1455V64.3517H119.669Z" fill="#AB8BE0"/>
<path d="M85.4617 68.3026V64.6397L94.5033 59.4731L85.4617 54.3065V50.6436C85.4617 49.067 84.8368 47.5547 83.7238 46.4381C82.6108 45.3215 81.1005 44.6917 79.524 44.6866H60.1106C59.3267 44.684 58.55 44.8362 57.825 45.1345C57.1001 45.4327 56.4411 45.8711 55.8859 46.4245C55.3307 46.9779 54.8902 47.6355 54.5896 48.3595C54.289 49.0835 54.1343 49.8597 54.1343 50.6436V68.3026C54.1318 69.084 54.2835 69.8582 54.5807 70.5808C54.878 71.3034 55.315 71.9603 55.8666 72.5137C56.4182 73.0671 57.0737 73.5062 57.7953 73.8058C58.517 74.1054 59.2907 74.2596 60.0721 74.2596H79.524C80.3053 74.2596 81.079 74.1054 81.8007 73.8058C82.5224 73.5062 83.1778 73.0671 83.7294 72.5137C84.281 71.9603 84.718 71.3034 85.0153 70.5808C85.3125 69.8582 85.4642 69.084 85.4617 68.3026Z" fill="#1490BD"/>
<path d="M21.7275 73.5273C27.2082 73.3616 32.4089 71.0679 36.227 67.1326C40.0451 63.1972 42.1805 57.9296 42.1805 52.4464C42.1805 46.9632 40.0451 41.6956 36.227 37.7603C32.4089 33.8249 27.2082 31.5312 21.7275 31.3655V73.5273Z" fill="#AB8BE0"/>
<path d="M21.7281 73.5267C18.9061 73.6121 16.0957 73.13 13.4634 72.1089C10.8312 71.0879 8.43077 69.5488 6.40443 67.5828C4.37809 65.6168 2.76711 63.264 1.66699 60.6639C0.566865 58.0637 0 55.2691 0 52.4458C0 49.6225 0.566865 46.8279 1.66699 44.2277C2.76711 41.6276 4.37809 39.2748 6.40443 37.3088C8.43077 35.3428 10.8312 33.8037 13.4634 32.7827C16.0957 31.7616 18.9061 31.2795 21.7281 31.3649V73.5267Z" fill="#EDADE3"/>
<path d="M21.7283 95.0231V73.8169C16.0713 73.821 10.6419 76.0451 6.6077 80.0108C2.5735 83.9765 0.256778 89.3671 0.155762 95.0231H21.7283Z" fill="#EDADE3"/>
<path d="M43.3001 95.0231C43.1991 89.3671 40.8823 83.9765 36.8481 80.0108C32.8139 76.0451 27.3845 73.821 21.7275 73.8169V95.0231H43.3001Z" fill="#AB8BE0"/>
<path d="M34.3352 76.4386V81.663L21.3608 89.0852L34.2966 96.4495V101.713C34.2966 102.828 34.5167 103.933 34.9442 104.963C35.3717 105.994 35.9982 106.929 36.7879 107.717C37.5776 108.505 38.515 109.13 39.5464 109.555C40.5778 109.98 41.6829 110.198 42.7984 110.195H71.716C73.9675 110.195 76.127 109.302 77.7209 107.712C79.3147 106.122 80.2127 103.964 80.2178 101.713V76.4386C80.2127 74.1871 79.3147 72.0296 77.7209 70.4393C76.127 68.8491 73.9675 67.956 71.716 67.9561H42.7984C40.5521 67.9612 38.3995 68.8571 36.8128 70.4473C35.2262 72.0375 34.3352 74.1922 34.3352 76.4386Z" fill="#65E0E9"/>
<path d="M46.8756 97.8076C46.183 97.8076 45.5888 97.5596 45.0927 97.0636C44.5967 96.5676 44.3487 95.9733 44.3487 95.2807C44.3487 94.5882 44.5967 93.9939 45.0927 93.4978C45.5888 93.0018 46.183 92.7538 46.8756 92.7538C47.5682 92.7538 48.1625 93.0018 48.6585 93.4978C49.1545 93.9939 49.4025 94.5882 49.4025 95.2807C49.4025 95.7393 49.2855 96.1605 49.0516 96.5442C48.8269 96.9279 48.5228 97.2367 48.1391 97.4707C47.7647 97.6953 47.3436 97.8076 46.8756 97.8076ZM57.7624 97.8076C57.0698 97.8076 56.4755 97.5596 55.9795 97.0636C55.4835 96.5676 55.2355 95.9733 55.2355 95.2807C55.2355 94.5882 55.4835 93.9939 55.9795 93.4978C56.4755 93.0018 57.0698 92.7538 57.7624 92.7538C58.4549 92.7538 59.0492 93.0018 59.5453 93.4978C60.0413 93.9939 60.2893 94.5882 60.2893 95.2807C60.2893 95.7393 60.1723 96.1605 59.9383 96.5442C59.7137 96.9279 59.4096 97.2367 59.0258 97.4707C58.6515 97.6953 58.2303 97.8076 57.7624 97.8076ZM68.6492 97.8076C67.9566 97.8076 67.3623 97.5596 66.8663 97.0636C66.3703 96.5676 66.1222 95.9733 66.1222 95.2807C66.1222 94.5882 66.3703 93.9939 66.8663 93.4978C67.3623 93.0018 67.9566 92.7538 68.6492 92.7538C69.3417 92.7538 69.936 93.0018 70.432 93.4978C70.9281 93.9939 71.1761 94.5882 71.1761 95.2807C71.1761 95.7393 71.0591 96.1605 70.8251 96.5442C70.6005 96.9279 70.2963 97.2367 69.9126 97.4707C69.5383 97.6953 69.1171 97.8076 68.6492 97.8076Z" fill="white"/>
</svg>
