<svg width="91" height="99" viewBox="0 0 91 99" fill="none" xmlns="http://www.w3.org/2000/svg">
<path d="M90.2418 18.2012C90.2418 15.8597 89.3116 13.6141 87.656 11.9584C86.0003 10.3028 83.7547 9.3726 81.4132 9.3726H9.16418C8.00224 9.369 6.85099 9.59466 5.77639 10.0367C4.70178 10.4787 3.72493 11.1283 2.90178 11.9484C2.07863 12.7685 1.42536 13.7429 0.979369 14.8159C0.533382 15.8889 0.303449 17.0393 0.302734 18.2012V38.2229H90.2418V18.2012Z" fill="#AB8BE0"/>
<path d="M0.669949 38.063V89.9619C0.667069 91.1238 0.893444 92.2749 1.33611 93.3492C1.77877 94.4236 2.42903 95.4 3.24964 96.2227C4.07025 97.0453 5.04508 97.698 6.11831 98.1433C7.19154 98.5886 8.34208 98.8178 9.50403 98.8178H81.7804C84.1224 98.8164 86.368 97.885 88.0235 96.2285C89.6791 94.5719 90.609 92.3258 90.609 89.9838V38.063H0.669949Z" fill="#FFFFFA"/>
<path d="M15.7162 0.877686H12.2789C10.9337 0.877686 9.84326 1.96817 9.84326 3.31335V20.3685C9.84326 21.7137 10.9337 22.8042 12.2789 22.8042H15.7162C17.0614 22.8042 18.1519 21.7137 18.1519 20.3685V3.31335C18.1519 1.96817 17.0614 0.877686 15.7162 0.877686Z" fill="#EDADE3"/>
<path d="M34.8507 0.877686C32.5628 0.877686 30.6909 2.51971 30.6909 4.57224V19.1096C30.6909 21.1402 32.5628 22.7987 34.8507 22.7987C37.1331 22.7987 39.005 21.1567 39.005 19.1096V4.57224C39.005 2.53613 37.1331 0.877686 34.8507 0.877686Z" fill="#EDADE3"/>
<path d="M55.6992 0.877686C53.4114 0.877686 51.5449 2.51971 51.5449 4.57224V19.1096C51.5449 21.1402 53.4114 22.7987 55.6992 22.7987C57.9817 22.7987 59.8536 21.1567 59.8536 19.1096V4.57224C59.8426 2.53613 57.9817 0.877686 55.6992 0.877686Z" fill="#EDADE3"/>
<path d="M78.2665 0.877686H74.8292C73.484 0.877686 72.3936 1.96817 72.3936 3.31335V20.3685C72.3936 21.7137 73.484 22.8042 74.8292 22.8042H78.2665C79.6117 22.8042 80.7022 21.7137 80.7022 20.3685V3.31335C80.7022 1.96817 79.6117 0.877686 78.2665 0.877686Z" fill="#EDADE3"/>
<rect x="8.03662" y="44.6111" width="9.00364" height="9.00364" rx="1.63703" fill="#65E0E9"/>
<rect x="21.1328" y="44.6111" width="9.00364" height="9.00364" rx="1.63703" fill="#65E0E9"/>
<rect x="47.3252" y="44.6111" width="9.00364" height="9.00364" rx="1.63703" fill="#65E0E9"/>
<rect x="60.4219" y="44.6111" width="9.00364" height="9.00364" rx="1.63703" fill="#65E0E9"/>
<rect x="73.5181" y="44.6111" width="9.00364" height="9.00364" rx="1.63703" fill="#65E0E9"/>
<rect x="34.229" y="44.6111" width="9.00364" height="9.00364" rx="1.63703" fill="#65E0E9"/>
<rect x="8.03662" y="57.707" width="9.00364" height="9.00364" rx="1.63703" fill="#65E0E9"/>
<rect x="21.1328" y="57.7073" width="9.00364" height="9.00364" rx="1.63703" fill="#1490BD"/>
<rect x="47.3252" y="57.7073" width="9.00364" height="9.00364" rx="1.63703" fill="#1490BD"/>
<rect x="60.4219" y="57.7073" width="9.00364" height="9.00364" rx="1.63703" fill="#1490BD"/>
<rect x="73.5181" y="57.7073" width="9.00364" height="9.00364" rx="1.63703" fill="#1490BD"/>
<rect x="34.229" y="57.7073" width="9.00364" height="9.00364" rx="1.63703" fill="#1490BD"/>
<rect x="8.03662" y="70.8032" width="9.00364" height="9.00364" rx="1.63703" fill="#1490BD"/>
<rect x="21.1328" y="70.803" width="9.00364" height="9.00364" rx="1.63703" fill="#1490BD"/>
<rect x="47.3252" y="70.803" width="9.00364" height="9.00364" rx="1.63703" fill="#65E0E9"/>
<rect x="60.4219" y="70.803" width="9.00364" height="9.00364" rx="1.63703" fill="#65E0E9"/>
<rect x="73.5181" y="70.803" width="9.00364" height="9.00364" rx="1.63703" fill="#65E0E9"/>
<rect x="34.229" y="70.803" width="9.00364" height="9.00364" rx="1.63703" fill="#65E0E9"/>
<rect x="8.03662" y="83.8999" width="9.00364" height="9.00364" rx="1.63703" fill="#65E0E9"/>
<rect x="21.1328" y="83.8999" width="9.00364" height="9.00364" rx="1.63703" fill="#65E0E9"/>
<rect x="47.3252" y="83.8999" width="9.00364" height="9.00364" rx="1.63703" fill="#65E0E9"/>
<rect x="60.4219" y="83.8999" width="9.00364" height="9.00364" rx="1.63703" fill="#65E0E9"/>
<rect x="73.5181" y="83.8999" width="9.00364" height="9.00364" rx="1.63703" fill="#65E0E9"/>
<rect x="34.229" y="83.8999" width="9.00364" height="9.00364" rx="1.63703" fill="#65E0E9"/>
</svg>
