<svg width="100" height="110" viewBox="0 0 100 110" fill="none" xmlns="http://www.w3.org/2000/svg">
<path d="M99.6094 74.2434C99.6094 76.3947 98.9715 78.4976 97.7763 80.2863C96.5811 82.0751 94.8824 83.4692 92.8949 84.2924C90.9074 85.1157 88.7204 85.3311 86.6104 84.9114C84.5005 84.4917 82.5624 83.4558 81.0413 81.9346C79.5201 80.4134 78.4842 78.4753 78.0645 76.3654C77.6448 74.2555 77.8602 72.0685 78.6834 70.081C79.5067 68.0935 80.9008 66.3947 82.6895 65.1996C84.4782 64.0044 86.5812 63.3665 88.7324 63.3665C90.1613 63.3649 91.5764 63.6452 92.8967 64.1912C94.2171 64.7373 95.4168 65.5384 96.4271 66.5488C97.4374 67.5591 98.2386 68.7588 98.7846 70.0791C99.3307 71.3995 99.611 72.8146 99.6094 74.2434Z" fill="#EDADE3"/>
<path d="M95.9715 74.2429C95.9739 75.6752 95.5513 77.0761 94.7572 78.2682C93.9632 79.4602 92.8334 80.39 91.5107 80.9397C90.1881 81.4895 88.7321 81.6346 87.3271 81.3566C85.922 81.0786 84.6309 80.39 83.6173 79.378C82.6036 78.3661 81.913 77.0762 81.6327 75.6715C81.3524 74.2669 81.495 72.8107 82.0426 71.4872C82.5902 70.1636 83.5181 69.0323 84.7089 68.2363C85.8996 67.4403 87.2998 67.0154 88.7321 67.0154C90.6501 67.0154 92.4896 67.7765 93.8469 69.1316C95.2043 70.4866 95.9684 72.325 95.9715 74.2429Z" fill="#AB8BE0"/>
<path d="M21.9971 74.2434C21.9971 76.3947 21.3592 78.4976 20.164 80.2863C18.9688 82.075 17.2701 83.4692 15.2826 84.2924C13.2951 85.1157 11.1081 85.3311 8.99814 84.9114C6.88822 84.4917 4.95013 83.4558 3.42896 81.9346C1.90779 80.4134 0.871857 78.4753 0.452167 76.3654C0.0324768 74.2555 0.247877 72.0685 1.07113 70.081C1.89438 68.0935 3.28851 66.3947 5.07721 65.1996C6.86592 64.0044 8.96887 63.3665 11.1201 63.3665C14.0049 63.3665 16.7715 64.5124 18.8113 66.5522C20.8511 68.5921 21.9971 71.3587 21.9971 74.2434Z" fill="#EDADE3"/>
<path d="M18.3592 74.2429C18.3616 75.6752 17.939 77.0761 17.1449 78.2682C16.3509 79.4602 15.2211 80.39 13.8984 80.9397C12.5758 81.4895 11.1198 81.6346 9.71475 81.3566C8.30965 81.0786 7.0186 80.39 6.00496 79.378C4.99132 78.3661 4.30065 77.0762 4.02035 75.6715C3.74005 74.2669 3.88272 72.8107 4.4303 71.4872C4.97789 70.1636 5.90577 69.0323 7.09655 68.2363C8.28732 67.4403 9.68746 67.0154 11.1198 67.0154C13.0377 67.0154 14.8773 67.7765 16.2346 69.1316C17.5919 70.4866 18.3561 72.325 18.3592 74.2429Z" fill="#AB8BE0"/>
<path d="M94.4031 51.8001C94.4031 79.5334 76.0846 109.727 49.9204 109.727C23.7563 109.727 5.44971 79.5215 5.44971 51.8001C5.44971 24.0787 23.7682 3.06177 49.9204 3.06177C76.0727 3.06177 94.4031 24.0668 94.4031 51.8001Z" fill="#AB8BE0"/>
<path d="M39.6144 80.9595H21.6406V84.0145H39.6144V80.9595Z" fill="#2C5871"/>
<path d="M78.2125 80.9595H60.2388V84.0145H78.2125V80.9595Z" fill="#2C5871"/>
<path d="M58.9195 102.952V99.8965C58.9195 99.8965 53.4529 100.711 49.9265 100.711C46.405 100.71 40.9458 99.8965 40.9458 99.8965V102.952C40.9458 102.952 46.4041 104.228 49.9265 104.228C53.4537 104.228 58.9195 102.952 58.9195 102.952Z" fill="#2C5871"/>
<path d="M91.4906 39.5084C91.4906 60.0141 72.8868 76.6327 49.8847 76.6327C26.8826 76.6327 8.27881 59.9903 8.27881 39.5084C8.27881 19.0264 26.9777 2.38403 49.9322 2.38403C72.8868 2.38403 91.4906 19.0026 91.4906 39.5084Z" fill="#EDADE3"/>
<path d="M86.4738 38.5577C86.4738 56.5553 70.1049 71.1886 49.932 71.1886C29.7591 71.1886 13.3901 56.5553 13.3901 38.5577C13.3901 20.5602 29.7472 5.90308 49.932 5.90308C70.1168 5.90308 86.4738 20.5246 86.4738 38.5577Z" fill="#2C5871"/>
<path d="M50.0865 4.10742V15.1033L49.3613 17.5164V6.50868L50.0865 4.10742Z" fill="#65E0E9"/>
<path d="M46.9138 13.7601V24.756C46.9106 23.8323 46.6828 22.9233 46.2499 22.1073C45.8171 21.2914 45.1923 20.593 44.4293 20.0723C43.4045 19.3676 42.1901 18.9904 40.9463 18.9906C40.0096 18.9775 39.083 19.1861 38.2422 19.5993C37.4014 20.0124 36.6702 20.6185 36.1082 21.3681C35.3564 22.3302 34.9391 23.5113 34.9194 24.7322V13.7601C34.9373 12.5426 35.355 11.3647 36.1082 10.4079C37.0554 9.15465 38.4513 8.31711 40.0028 8.07108C41.5544 7.82505 43.1409 8.18966 44.4293 9.08838C45.1928 9.60567 45.8183 10.3017 46.2513 11.116C46.6843 11.9302 46.9117 12.8379 46.9138 13.7601Z" fill="#65E0E9"/>
<path d="M43.7751 13.76V24.7677C43.7751 25.5181 43.477 26.2377 42.9464 26.7683C42.4159 27.2989 41.6962 27.5969 40.9459 27.5969C40.1955 27.5969 39.4759 27.2989 38.9454 26.7683C38.4148 26.2377 38.1167 25.5181 38.1167 24.7677V13.76C38.1167 14.5104 38.4148 15.23 38.9454 15.7606C39.4759 16.2911 40.1955 16.5892 40.9459 16.5892C41.6962 16.5892 42.4159 16.2911 42.9464 15.7606C43.477 15.23 43.7751 14.5104 43.7751 13.76Z" fill="#AB8BE0"/>
<path d="M75.502 21.7722V32.7681L74.4678 36.2392V25.2433L75.502 21.7722Z" fill="#7EAABC"/>
<path d="M52.191 14.3664L51.3113 17.9921V22.0338L50.9071 22.5568L48.4227 21.8673L45.1417 23.805L44.69 26.2895L41.5399 26.7887L40.2917 24.5896L36.5234 23.7456L34.3955 25.1602L32.5173 23.8644V20.9639L30.5916 17.9207V9.4688L29.1175 7.40039V17.5522L27.9407 17.3383L27.4414 14.2951V25.3028L27.9407 28.346L30.4965 28.7858L31.8041 30.8304V34.3729L34.3955 36.156L36.5234 34.7414L40.2917 35.5854L41.5399 37.7846L44.69 37.2972L45.1417 34.8127L48.4227 32.8632L50.9071 33.5645L52.7734 31.0563V25.0651L54.4614 24.1616V13.1658L52.191 14.3664Z" fill="#65E0E9"/>
<path d="M39.5425 26.0042V37.0119L38.8174 39.425V28.4173L39.5425 26.0042Z" fill="#AB8BE0"/>
<path d="M47.4483 29.5108V40.5067L45.3086 37.5348V26.5271L47.4483 29.5108Z" fill="#7EAABC"/>
<path d="M36.3684 35.633V46.6407C36.3642 45.7172 36.1359 44.8086 35.7031 43.9928C35.2704 43.177 34.6461 42.4784 33.8839 41.9571C32.5916 41.0699 31.0083 40.7122 29.4602 40.9577C27.9121 41.2032 26.5171 42.0332 25.5627 43.2766C24.8395 44.2493 24.4478 45.4286 24.4453 46.6407V35.633C24.4495 34.4211 24.841 33.2424 25.5627 32.2688C26.1305 31.5226 26.8645 30.9191 27.7065 30.5063C28.5485 30.0936 29.4751 29.883 30.4128 29.8914C31.6563 29.8927 32.8703 30.2698 33.8958 30.9731C34.6511 31.4949 35.2699 32.1906 35.7002 33.0016C36.1305 33.8125 36.3597 34.715 36.3684 35.633Z" fill="#AB8BE0"/>
<path d="M70.9502 35.6448V46.6525C70.9449 45.3228 70.6177 44.0141 69.9967 42.8383C69.3757 41.6625 68.4793 40.6545 67.384 39.9005C65.5259 38.6108 63.242 38.0876 61.0077 38.4397C58.7735 38.7917 56.7611 39.992 55.3897 41.7905C54.3275 43.1853 53.7476 44.8875 53.7373 46.6406V35.6329C53.7373 33.8839 54.3046 32.182 55.354 30.7828C56.7291 28.9892 58.7409 27.7927 60.9735 27.4409C63.206 27.0891 65.4883 27.6089 67.3484 28.8927C68.4502 29.6428 69.3536 30.6491 69.9809 31.8251C70.6083 33.0012 70.9409 34.3119 70.9502 35.6448Z" fill="#7EAABC"/>
<path d="M33.2315 35.6328V46.6405C33.1849 47.3576 32.8672 48.0302 32.3429 48.5216C31.8185 49.013 31.1268 49.2864 30.4082 49.2864C29.6896 49.2864 28.9979 49.013 28.4736 48.5216C27.9492 48.0302 27.6315 47.3576 27.585 46.6405V35.6328C27.6315 36.3499 27.9492 37.0224 28.4736 37.5139C28.9979 38.0053 29.6896 38.2787 30.4082 38.2787C31.1268 38.2787 31.8185 38.0053 32.3429 37.5139C32.8672 37.0224 33.1849 36.3499 33.2315 35.6328Z" fill="#9FC8DD"/>
<path d="M65.1848 35.6328V46.6405C65.1848 47.3909 64.8867 48.1105 64.3561 48.6411C63.8255 49.1717 63.1059 49.4697 62.3556 49.4697C61.6052 49.4697 60.8856 49.1717 60.355 48.6411C59.8244 48.1105 59.5264 47.3909 59.5264 46.6405V35.6328C59.5264 36.3832 59.8244 37.1028 60.355 37.6334C60.8856 38.1639 61.6052 38.462 62.3556 38.462C63.1059 38.462 63.8255 38.1639 64.3561 37.6334C64.8867 37.1028 65.1848 36.3832 65.1848 35.6328Z" fill="#65E0E9"/>
<path d="M43.9061 35.0618L41.6356 36.2744L40.7559 39.9V43.9536L40.3755 44.4648L37.8792 43.7753L34.6102 45.7129L34.1347 48.1974L30.9964 48.6967L29.7363 46.4975L25.9918 45.6416L23.8521 47.0562L21.9858 45.7724V42.86L20.0481 39.8287V31.3649L18.5622 29.3083V39.4483L17.4091 39.2462L16.8979 36.203V47.1989L17.4091 50.2539L19.9649 50.6938L21.2725 52.7384V56.2808L23.8521 58.0639L25.9918 56.6494L29.7363 57.4934L30.9964 59.6925L34.1347 59.1933L34.6102 56.7088L37.8792 54.7711L40.3755 55.4725L42.2419 52.9643V46.9492L43.9061 46.0696V35.0618Z" fill="#AB8BE0"/>
<path d="M81.8153 34.8245L78.5344 36.56L77.2624 41.7667V47.6034L76.7037 48.3523L73.1137 47.3419L68.4063 50.1711L67.7406 53.7135L63.2115 54.4387L61.4047 51.2766L56.0078 50.0522L52.9171 52.0968L50.2424 50.2305V46.0343L47.3181 41.4933L43.633 40.8395L42.896 36.453V47.4608L43.633 51.8353L47.3181 52.4891L49.1963 55.4253V60.5131L52.9171 63.0927L56.0078 61.048L61.4047 62.2725L63.2115 65.4345L67.7406 64.7094L68.4063 61.1669L73.1137 58.3496L76.7037 59.3482L79.3903 55.7344V47.1041L81.8153 45.8322V34.8245Z" fill="#7EAABC"/>
<path d="M30.4023 32.8984C30.9392 32.9148 31.4594 33.0889 31.8979 33.3991C32.3365 33.7093 32.6739 34.1418 32.8682 34.6426C33.0624 35.1434 33.1048 35.6903 32.9901 36.2151C32.8754 36.7399 32.6086 37.2192 32.2232 37.5933C31.8377 37.9674 31.3506 38.2197 30.8226 38.3186C30.2946 38.4175 29.7492 38.3587 29.2544 38.1496C28.7597 37.9404 28.3375 37.5901 28.0406 37.1425C27.7437 36.6949 27.5852 36.1697 27.585 35.6325C27.5975 34.8968 27.901 34.1961 28.429 33.6837C28.957 33.1712 29.6665 32.8889 30.4023 32.8984Z" fill="white"/>
<path d="M40.9459 10.9904C41.4841 11.0067 42.0057 11.181 42.4457 11.4914C42.8857 11.8019 43.2247 12.2348 43.4205 12.7365C43.6164 13.2381 43.6604 13.7862 43.5471 14.3126C43.4339 14.8391 43.1683 15.3206 42.7836 15.6973C42.3988 16.074 41.9117 16.3293 41.383 16.4313C40.8542 16.5334 40.3072 16.4777 39.8098 16.2713C39.3125 16.0649 38.8868 15.7167 38.5858 15.2703C38.2847 14.8238 38.1216 14.2986 38.1167 13.7602C38.1182 13.3918 38.1929 13.0275 38.3363 12.6882C38.4798 12.349 38.6892 12.0416 38.9524 11.7839C39.2156 11.5263 39.5273 11.3234 39.8696 11.1872C40.2118 11.051 40.5776 10.9841 40.9459 10.9904Z" fill="#EDADE3"/>
<path d="M52.191 14.3667L51.3588 17.9924L52.821 20.0489L50.9071 22.5571L48.4226 21.8677L45.1417 23.8053L44.69 26.2898L41.5399 26.8366L40.2917 24.6374L36.5353 23.7934L34.4074 25.208L31.8041 23.413L32.5173 21.0355L30.4965 17.8497L27.9407 17.3267L27.4414 14.2835L29.7119 13.0948L30.5916 9.52855L29.1175 7.4007L30.972 4.89246L33.4802 5.60571L36.7373 3.64429L37.201 1.17171L40.363 0.684326L41.5517 2.87161L45.4151 3.71561L47.543 2.28912L50.1344 4.1079L49.4093 6.48537L51.3588 9.67119L53.9146 10.111L54.4258 13.1661L52.191 14.3667ZM45.7837 17.1008C46.249 16.4887 46.5842 15.7879 46.7685 15.0414C46.9528 14.2949 46.9824 13.5186 46.8555 12.7603C46.7285 12.002 46.4477 11.2776 46.0303 10.6319C45.6129 9.98614 45.0678 9.43266 44.4285 9.0055C43.14 8.10678 41.5535 7.74216 40.002 7.98819C38.4504 8.23422 37.0545 9.07177 36.1073 10.325C35.6506 10.9355 35.3228 11.6325 35.1438 12.3737C34.9649 13.1148 34.9385 13.8846 35.0664 14.6363C35.1943 15.388 35.4737 16.1057 35.8876 16.746C36.3016 17.3863 36.8414 17.9357 37.4744 18.3609C38.7633 19.255 40.3473 19.6181 41.897 19.3746C43.4467 19.131 44.843 18.2997 45.7955 17.0533L45.7837 17.1008Z" fill="#14B0BF"/>
<path d="M78.5344 36.5604L77.2624 41.7789L79.3903 44.7389L76.7037 48.3051L73.1375 47.2947L68.3826 50.112L67.7169 53.6782L63.2472 54.439L61.4403 51.2769L56.0434 50.0882L52.9527 52.1328L49.232 49.5533L50.2781 46.0703L47.3181 41.4936L43.633 40.8398L42.896 36.4534L46.1769 34.7178L47.4489 29.5111L45.3091 26.5274L47.9957 22.9612L51.5619 23.9716L56.3169 21.1543L56.9826 17.5881L61.5235 16.8867L63.3185 20.0488L68.7273 21.2375L71.7942 19.181L75.515 21.7843L74.4808 25.2554L77.3932 29.7964L81.0783 30.4027L81.8272 34.801L78.5344 36.5604ZM69.3336 40.4832C69.9899 39.6022 70.4609 38.5973 70.7181 37.5293C70.9753 36.4612 71.0134 35.3521 70.8301 34.2689C70.6468 33.1857 70.2458 32.1508 69.6515 31.2269C69.0572 30.3029 68.2818 29.509 67.3721 28.893C65.5121 27.6091 63.2298 27.0894 60.9972 27.4412C58.7647 27.793 56.7528 28.9894 55.3778 30.7831C54.7194 31.6628 54.2459 32.6668 53.9858 33.7344C53.7257 34.802 53.6844 35.9112 53.8643 36.9952C54.0442 38.0792 54.4417 39.1155 55.0328 40.0418C55.6238 40.9682 56.3962 41.7653 57.3035 42.3852C58.7744 43.4014 60.5203 43.9447 62.3081 43.9424C63.662 43.9494 64.9988 43.6403 66.2122 43.0397C67.4257 42.4392 68.4822 41.5638 69.2979 40.4832H69.3336Z" fill="#9FC8DD"/>
<path d="M62.3541 32.8991C62.8904 32.9178 63.4094 33.0938 63.8463 33.4054C64.2832 33.7169 64.6188 34.1502 64.8113 34.6511C65.0037 35.1521 65.0445 35.6986 64.9285 36.2225C64.8125 36.7465 64.5449 37.2247 64.159 37.5976C63.7731 37.9705 63.286 38.2216 62.7584 38.3196C62.2308 38.4177 61.686 38.3582 61.1919 38.1488C60.6978 37.9394 60.2763 37.5892 59.9799 37.1418C59.6835 36.6945 59.5252 36.1698 59.5249 35.6332C59.5311 35.2679 59.6092 34.9074 59.7547 34.5723C59.9003 34.2371 60.1104 33.934 60.3731 33.6801C60.6359 33.4262 60.946 33.2265 61.2859 33.0925C61.6258 32.9585 61.9888 32.8928 62.3541 32.8991Z" fill="#14B0BF"/>
<path d="M41.6353 36.2751L40.7556 39.9126L42.2416 41.9691L40.3752 44.4774L37.8789 43.7879L34.6098 45.7255L34.1343 48.2338L30.9961 48.7331L29.736 46.5339L25.9915 45.678L23.8518 47.045L21.2722 45.2619L21.9854 42.8845L19.9646 39.7105L17.4088 39.2707L16.8857 36.2037L19.1562 35.015L20.0359 31.3893L18.55 29.3328L20.452 26.8365L22.9483 27.5378L26.2292 25.5764L26.6928 23.1038L29.8311 22.6165L31.0793 24.8037L34.8357 25.6596L36.9635 24.2331L39.5669 26.04L38.8418 28.4175L40.8388 31.5914L43.4065 32.0313L43.9058 35.0744L41.6353 36.2751ZM35.2399 38.9973C35.6975 38.3865 36.0263 37.6892 36.2062 36.9476C36.3862 36.206 36.4137 35.4355 36.287 34.683C36.1603 33.9304 35.882 33.2115 35.4691 32.5697C35.0561 31.9279 34.5171 31.3767 33.8847 30.9495C32.8593 30.2462 31.6452 29.8691 30.4017 29.8678C29.4641 29.8594 28.5374 30.07 27.6954 30.4827C26.8535 30.8955 26.1194 31.499 25.5517 32.2452C25.0946 32.8567 24.7666 33.5547 24.5875 34.2968C24.4084 35.0388 24.382 35.8096 24.5099 36.5622C24.6377 37.3148 24.9172 38.0336 25.3312 38.6749C25.7453 39.3162 26.2854 39.8667 26.9187 40.293C27.9398 40.9961 29.15 41.3732 30.3898 41.3748C31.3275 41.3831 32.2541 41.1725 33.0961 40.7598C33.9381 40.347 34.6721 39.7435 35.2399 38.9973Z" fill="#EDADE3"/>
</svg>
