<svg width="113" height="110" viewBox="0 0 113 110" fill="none" xmlns="http://www.w3.org/2000/svg">
<path d="M102.846 8.11914H9.6333V68.02H102.846V8.11914Z" fill="#1490BD"/>
<path d="M102.828 8.11914H56.1953V68.02H102.828V8.11914Z" fill="#00609A"/>
<path d="M94.2913 15.6948H18.188V60.4426H94.2913V15.6948Z" fill="white"/>
<path d="M94.2914 15.6948H56.1953V60.4426H94.2914V15.6948Z" fill="#65E0E9"/>
<path d="M9.6338 68.0017L0.243164 83.3504H112.237L102.847 68.0017H9.6338Z" fill="#65E0E9"/>
<path d="M112.237 83.3328H0.243164V91.4962H112.237V83.3328Z" fill="#1490BD"/>
<path d="M82.1786 0.684326H30.21V60.4251H82.1786V0.684326Z" fill="#EDADE3"/>
<path d="M112.237 83.3328H56.1953V91.4962H112.237V83.3328Z" fill="#00609A"/>
<path d="M56.1953 83.3504H112.237L102.846 68.0017H56.1953V83.3504Z" fill="#4FC2D9"/>
<path d="M82.1796 0.684326H56.1953V60.4251H82.1796V0.684326Z" fill="#AB8BE0"/>
<path d="M76.6665 8.36719H35.5825V25.2632H76.6665V8.36719Z" fill="#9FC8DD"/>
<path d="M76.666 8.36719H56.124V25.2632H76.666V8.36719Z" fill="#7EAABC"/>
<path d="M76.6665 29.6025H35.5825V46.4986H76.6665V29.6025Z" fill="#9FC8DD"/>
<path d="M76.666 29.6025H56.124V46.4986H76.666V29.6025Z" fill="#7EAABC"/>
<path d="M76.6665 50.8394H35.5825V60.4256H76.6665V50.8394Z" fill="#9FC8DD"/>
<path d="M76.666 50.8394H56.124V60.4256H76.666V50.8394Z" fill="#7EAABC"/>
<path d="M72.6826 12.031H52.0161V13.774H72.6826V12.031Z" fill="white"/>
<path d="M72.6826 15.9441H52.0161V17.6871H72.6826V15.9441Z" fill="white"/>
<path d="M72.6826 19.8745H52.0161V21.6175H72.6826V19.8745Z" fill="white"/>
<path d="M72.6826 33.1953H52.0161V34.9383H72.6826V33.1953Z" fill="white"/>
<path d="M72.6826 37.1267H52.0161V38.8697H72.6826V37.1267Z" fill="white"/>
<path d="M72.6826 41.0391H52.0161V42.782H72.6826V41.0391Z" fill="white"/>
<path d="M72.6826 54.3782H52.0161V56.1211H72.6826V54.3782Z" fill="white"/>
<path d="M48.6893 12.031H39.103V21.6173H48.6893V12.031Z" fill="white"/>
<path d="M48.6893 33.2666H39.103V42.8529H48.6893V33.2666Z" fill="white"/>
<path d="M48.6893 54.5024H39.103V60.3716H48.6893V54.5024Z" fill="white"/>
<path d="M15.2536 100.94C14.9644 100.939 14.6857 100.831 14.471 100.637C14.3421 100.531 14.2361 100.4 14.1596 100.252C14.0831 100.104 14.0376 99.9412 14.0259 99.7747C14.0143 99.6083 14.0367 99.4412 14.0918 99.2837C14.147 99.1262 14.2336 98.9816 14.3465 98.8587L27.312 83.919C27.4195 83.7952 27.5502 83.6938 27.6969 83.6206C27.8435 83.5473 28.0031 83.5037 28.1666 83.4921C28.3301 83.4806 28.4943 83.5013 28.6498 83.5532C28.8052 83.6051 28.949 83.6871 29.0728 83.7945C29.1966 83.902 29.298 84.0327 29.3712 84.1794C29.4445 84.326 29.4881 84.4856 29.4997 84.6491C29.5112 84.8126 29.4905 84.9768 29.4386 85.1323C29.3867 85.2878 29.3047 85.4315 29.1973 85.5553L16.2496 100.513C16.1256 100.653 15.972 100.765 15.7997 100.838C15.6274 100.912 15.4409 100.947 15.2536 100.94Z" fill="#EDADE3"/>
<path d="M7.24999 108.908C6.57733 108.318 6.16455 107.487 6.10129 106.594C6.03802 105.702 6.32937 104.82 6.91207 104.142L16.0893 93.3281C16.6792 92.6555 17.5106 92.2427 18.403 92.1794C19.2955 92.1161 20.1768 92.4075 20.8557 92.9902C21.5284 93.5801 21.9412 94.4115 22.0044 95.304C22.0677 96.1964 21.7764 97.0778 21.1937 97.7566L12.0164 108.57C11.4265 109.243 10.5951 109.656 9.70267 109.719C8.81024 109.782 7.92888 109.491 7.24999 108.908Z" fill="#AB8BE0"/>
<path d="M50.0424 59.5894C47.2539 57.1501 43.8045 55.5926 40.1306 55.1141C36.4567 54.6356 32.7235 55.2576 29.4032 56.9012C26.0828 58.5449 23.3246 61.1365 21.4775 64.3481C19.6304 67.5597 18.7773 71.247 19.0262 74.9435C19.2751 78.64 20.6149 82.1796 22.8759 85.1146C25.137 88.0495 28.2177 90.2479 31.7284 91.4316C35.2392 92.6153 39.0221 92.731 42.5986 91.7643C46.1752 90.7976 49.3846 88.7917 51.8209 86.0006C55.0848 82.2612 56.7309 77.3791 56.3974 72.4269C56.0639 67.4747 53.7782 62.8574 50.0424 59.5894ZM29.8205 82.9059C28.0075 81.3303 26.7024 79.2525 26.0701 76.9352C25.4377 74.6179 25.5066 72.1652 26.2679 69.8871C27.0293 67.6089 28.4489 65.6076 30.3475 64.1362C32.246 62.6647 34.5381 61.7891 36.9342 61.6201C39.3302 61.4511 41.7226 61.9962 43.8089 63.1866C45.8952 64.377 47.5817 66.1592 48.6553 68.3079C49.729 70.4566 50.1414 72.8753 49.8407 75.2584C49.5399 77.6415 48.5394 79.8819 46.9655 81.6965C45.9196 82.9024 44.6463 83.8903 43.2184 84.6038C41.7905 85.3172 40.236 85.7423 38.6437 85.8546C37.0514 85.9669 35.4526 85.7643 33.9386 85.2584C32.4247 84.7524 31.0253 83.953 29.8205 82.9059Z" fill="#AB8BE0"/>
</svg>
