<svg width="106" height="110" viewBox="0 0 106 110" fill="none" xmlns="http://www.w3.org/2000/svg">
<path d="M53.5205 23.9493C59.0715 23.7838 64.5993 24.7342 69.7763 26.7442C74.9533 28.7542 79.6742 31.7829 83.6592 35.6509C87.6442 39.5189 90.8123 44.1474 92.9757 49.2621C95.1391 54.3769 96.2538 59.8739 96.2538 65.4274C96.2538 70.9809 95.1391 76.4779 92.9757 81.5927C90.8123 86.7075 87.6442 91.336 83.6592 95.204C79.6742 99.0719 74.9533 102.101 69.7763 104.111C64.5993 106.121 59.0715 107.071 53.5205 106.906V23.9493Z" fill="#4FC2D9"/>
<path d="M53.5205 106.924C42.7339 106.602 32.4968 102.091 24.9807 94.3475C17.4646 86.604 13.2607 76.237 13.2607 65.4456C13.2607 54.6542 17.4646 44.2873 24.9807 36.5437C32.4968 28.8002 42.7339 24.2892 53.5205 23.9675V106.924Z" fill="#65E0E9"/>
<path d="M53.5205 25.682C56.8354 25.682 60.0145 24.3652 62.3584 22.0212C64.7024 19.6773 66.0192 16.4982 66.0192 13.1833C66.0192 9.86843 64.7024 6.68933 62.3584 4.34536C60.0145 2.0014 56.8354 0.68457 53.5205 0.68457V25.682Z" fill="#AB8BE0"/>
<path d="M53.5202 25.682C50.2053 25.682 47.0262 24.3652 44.6823 22.0212C42.3383 19.6773 41.0215 16.4982 41.0215 13.1833C41.0215 9.86843 42.3383 6.68933 44.6823 4.34536C47.0262 2.0014 50.2053 0.68457 53.5202 0.68457V25.682Z" fill="#EDADE3"/>
<path d="M53.5199 38.4387V25.8293C50.1602 25.8291 46.9357 27.1522 44.5446 29.5123C42.1535 31.8723 40.7883 35.0793 40.7446 38.4387H53.5199Z" fill="#EDADE3"/>
<path d="M66.3142 38.4387C66.2658 35.0776 64.8965 31.8707 62.5024 29.5111C60.1084 27.1516 56.8819 25.829 53.5205 25.8293V38.4387H66.3142Z" fill="#AB8BE0"/>
<path d="M13.6475 96.8175C16.9623 96.8175 20.1414 95.5007 22.4854 93.1567C24.8294 90.8128 26.1462 87.6337 26.1462 84.3188C26.1462 81.0039 24.8294 77.8248 22.4854 75.4809C20.1414 73.1369 16.9623 71.8201 13.6475 71.8201V96.8175Z" fill="#AB8BE0"/>
<path d="M13.6467 96.8175C10.3318 96.8175 7.15271 95.5007 4.80874 93.1567C2.46477 90.8128 1.14795 87.6337 1.14795 84.3188C1.14795 81.0039 2.46477 77.8248 4.80874 75.4809C7.15271 73.1369 10.3318 71.8201 13.6467 71.8201V96.8175Z" fill="#EDADE3"/>
<path d="M13.6468 109.574V96.9648C10.2872 96.9646 7.06264 98.2877 4.67153 100.648C2.28041 103.008 0.915214 106.215 0.871582 109.574H13.6468Z" fill="#EDADE3"/>
<path d="M26.4411 109.574C26.3927 106.213 25.0235 103.006 22.6294 100.647C20.2354 98.2871 17.0089 96.9645 13.6475 96.9648V109.574H26.4411Z" fill="#AB8BE0"/>
<path d="M93.2065 96.8175C96.5214 96.8175 99.7005 95.5007 102.044 93.1567C104.388 90.8128 105.705 87.6337 105.705 84.3188C105.705 81.0039 104.388 77.8248 102.044 75.4809C99.7005 73.1369 96.5214 71.8201 93.2065 71.8201V96.8175Z" fill="#AB8BE0"/>
<path d="M93.2062 96.8175C89.8914 96.8175 86.7123 95.5007 84.3683 93.1567C82.0243 90.8128 80.7075 87.6337 80.7075 84.3188C80.7075 81.0039 82.0243 77.8248 84.3683 75.4809C86.7123 73.1369 89.8914 71.8201 93.2062 71.8201V96.8175Z" fill="#EDADE3"/>
<path d="M93.2059 109.574V96.9648C89.8463 96.9646 86.6217 98.2877 84.2306 100.648C81.8395 103.008 80.4743 106.215 80.4307 109.574H93.2059Z" fill="#EDADE3"/>
<path d="M106 109.574C105.952 106.213 104.583 103.006 102.188 100.647C99.7944 98.2871 96.5679 96.9645 93.2065 96.9648V109.574H106Z" fill="#AB8BE0"/>
<path d="M22.9933 66.2566C22.7782 66.2566 22.5719 66.1712 22.4198 66.019C22.2677 65.8669 22.1822 65.6606 22.1822 65.4455C22.1705 60.3042 23.4238 55.2389 25.8317 50.6964C28.2397 46.1538 31.7282 42.2734 35.9898 39.3973C36.1683 39.2777 36.387 39.2338 36.5978 39.2753C36.8086 39.3167 36.9944 39.4402 37.1143 39.6185C37.176 39.706 37.2193 39.8052 37.2416 39.91C37.2639 40.0147 37.2648 40.1229 37.2441 40.228C37.2234 40.3331 37.1816 40.4329 37.1213 40.5214C37.061 40.6099 36.9834 40.6853 36.8931 40.743C32.8566 43.4677 29.5506 47.1416 27.2653 51.4422C24.98 55.7427 23.7853 60.5386 23.786 65.4086C23.791 65.5167 23.7743 65.6246 23.7369 65.7261C23.6995 65.8276 23.6422 65.9206 23.5683 65.9996C23.4944 66.0786 23.4055 66.142 23.3068 66.1862C23.208 66.2303 23.1015 66.2543 22.9933 66.2566Z" fill="#1490BD"/>
<path d="M53.5214 96.8031C46.755 96.8204 40.1672 94.6331 34.7549 90.5721C34.669 90.508 34.5965 90.4275 34.5416 90.3354C34.4868 90.2432 34.4506 90.1412 34.4352 90.035C34.4198 89.9289 34.4255 89.8208 34.4519 89.7168C34.4782 89.6129 34.5248 89.5151 34.589 89.4292C34.6531 89.3433 34.7336 89.2708 34.8257 89.2159C34.9179 89.1611 35.02 89.1249 35.1261 89.1095C35.2322 89.0941 35.3404 89.0998 35.4443 89.1262C35.5483 89.1525 35.646 89.1991 35.7319 89.2633C40.8604 93.118 47.1058 95.1955 53.5214 95.1808C60.512 95.1804 67.2795 92.7201 72.6382 88.2309C72.8028 88.0986 73.0126 88.0357 73.2229 88.0556C73.4331 88.0755 73.6273 88.1767 73.7642 88.3375C73.9011 88.4984 73.9698 88.7063 73.9557 88.9171C73.9417 89.1278 73.846 89.3248 73.689 89.4661C68.0395 94.209 60.8979 96.8071 53.5214 96.8031Z" fill="#1490BD"/>
<path d="M84.0854 66.2565C83.8702 66.2565 83.6639 66.171 83.5118 66.0189C83.3597 65.8668 83.2742 65.6605 83.2742 65.4453C83.2711 60.2551 81.9078 55.1564 79.3202 50.6572C76.7326 46.158 73.011 42.4155 68.5265 39.8027C68.3551 39.6881 68.2338 39.5127 68.1871 39.312C68.1404 39.1112 68.1719 38.9002 68.2752 38.7219C68.3784 38.5435 68.5457 38.4111 68.7431 38.3517C68.9404 38.2922 69.153 38.31 69.3376 38.4016C74.0498 41.1695 77.9563 45.1215 80.6695 49.8654C83.3826 54.6094 84.808 59.9803 84.8043 65.4453C84.8056 65.6454 84.7329 65.8389 84.6002 65.9886C84.4675 66.1383 84.2841 66.2337 84.0854 66.2565Z" fill="#1490BD"/>
<path d="M53.5216 54.1454C53.3064 54.1454 53.1001 54.0599 52.948 53.9078C52.7959 53.7557 52.7104 53.5493 52.7104 53.3342V44.2459C52.7104 44.1394 52.7314 44.0339 52.7722 43.9355C52.813 43.8371 52.8727 43.7477 52.948 43.6724C53.0233 43.597 53.1128 43.5373 53.2112 43.4965C53.3096 43.4558 53.4151 43.4348 53.5216 43.4348C53.6288 43.4323 53.7354 43.4515 53.8349 43.4914C53.9345 43.5313 54.0249 43.5909 54.1007 43.6667C54.1766 43.7426 54.2362 43.833 54.2761 43.9325C54.316 44.0321 54.3352 44.1387 54.3327 44.2459V53.2605C54.343 53.373 54.3296 53.4865 54.2935 53.5936C54.2573 53.7007 54.1992 53.799 54.1229 53.8823C54.0465 53.9656 53.9536 54.0321 53.85 54.0774C53.7465 54.1227 53.6346 54.1458 53.5216 54.1454Z" fill="#1490BD"/>
<path d="M76.5459 77.2991C76.4094 77.297 76.2758 77.2588 76.1588 77.1885L64.2316 70.3861C64.1379 70.3345 64.0556 70.2645 63.9897 70.1802C63.9238 70.096 63.8756 69.9993 63.8481 69.896C63.8205 69.7926 63.8141 69.6848 63.8294 69.5789C63.8446 69.4731 63.8811 69.3714 63.9366 69.28C64.0445 69.0945 64.2214 68.9594 64.4287 68.9041C64.636 68.8488 64.8568 68.8779 65.0427 68.985L76.9515 75.769C77.0449 75.8209 77.1271 75.8907 77.1934 75.9744C77.2597 76.0582 77.3089 76.1542 77.338 76.2569C77.3671 76.3597 77.3756 76.4672 77.3631 76.5733C77.3506 76.6794 77.3172 76.7819 77.2649 76.8751C77.1963 77.0056 77.0928 77.1145 76.9657 77.1894C76.8387 77.2643 76.6934 77.3023 76.5459 77.2991Z" fill="#1490BD"/>
<path d="M29.9245 77.2992C29.781 77.2952 29.641 77.254 29.5182 77.1796C29.3954 77.1053 29.294 77.0004 29.2239 76.8752C29.1716 76.7821 29.1383 76.6795 29.1257 76.5734C29.1132 76.4673 29.1217 76.3598 29.1508 76.257C29.18 76.1543 29.2291 76.0583 29.2954 75.9745C29.3617 75.8908 29.4439 75.821 29.5373 75.7691L41.778 68.893C41.9662 68.7878 42.1885 68.7618 42.3959 68.8206C42.6033 68.8794 42.7789 69.0181 42.884 69.2064C42.9892 69.3946 43.0152 69.6169 42.9564 69.8243C42.8977 70.0317 42.7589 70.2073 42.5707 70.3124L30.3669 77.1886C30.2334 77.268 30.0796 77.3065 29.9245 77.2992Z" fill="#1490BD"/>
<path d="M53.5205 57.6477C55.5886 57.6477 57.5721 58.4693 59.0344 59.9317C60.4968 61.394 61.3184 63.3775 61.3184 65.4456C61.3184 67.5137 60.4968 69.4971 59.0344 70.9595C57.5721 72.4219 55.5886 73.2435 53.5205 73.2435V57.6477Z" fill="#00609A"/>
<path d="M53.521 73.2432C51.4529 73.2432 49.4695 72.4217 48.0071 70.9593C46.5447 69.4969 45.7231 67.5135 45.7231 65.4453C45.7231 63.3772 46.5447 61.3938 48.0071 59.9314C49.4695 58.469 51.4529 57.6475 53.521 57.6475V73.2432Z" fill="#1490BD"/>
</svg>
