<svg width="1440" height="3294" viewBox="0 0 1440 3294" fill="none" xmlns="http://www.w3.org/2000/svg">
<g filter="url(#filter0_f_2033_154)">
<circle cx="230" cy="2517" r="230" fill="url(#paint0_linear_2033_154)" fill-opacity="0.6"/>
</g>
<g filter="url(#filter1_f_2033_154)">
<circle cx="1300.73" cy="928.732" r="230" transform="rotate(140.573 1300.73 928.732)" fill="url(#paint1_linear_2033_154)" fill-opacity="0.6"/>
</g>
<g filter="url(#filter2_f_2033_154)">
<ellipse cx="178.346" cy="468.5" rx="280.335" ry="293.178" transform="rotate(140.573 178.346 468.5)" fill="url(#paint2_linear_2033_154)" fill-opacity="0.6"/>
</g>
<path d="M-420.264 1888.91C-386.6 1894.42 -289.387 1866.74 -169.846 1711.94C-20.4209 1518.44 210.904 1364.11 256.921 1645.47C302.938 1926.83 0.157038 2918.49 332.101 3017.14C664.044 3115.78 1252.63 1911.24 1747.77 1659.84C2037.68 1492.04 2157.52 1866.58 2158.23 1933.62" stroke="url(#paint3_linear_2033_154)" stroke-opacity="0.7" stroke-width="5"/>
<path d="M2027.53 2807.71C1986.63 2792.73 1878.92 2784.32 1775.34 2870.48C1645.87 2978.17 1410.72 3028.85 1289.36 2789.58C1168 2550.3 1287.06 1852.99 873.125 1669.93C459.19 1486.86 54.908 2264.53 -467.279 2309.92C-768.102 2352.96 -998.554 2016.04 -1015.4 1962.25" stroke="url(#paint4_linear_2033_154)" stroke-opacity="0.7" stroke-width="5"/>
<path d="M1387.11 2195.83C1390.5 2197.65 1392.8 2200.37 1394.03 2203.99C1395.26 2207.61 1395.06 2211.13 1393.42 2214.54C1395.06 2211.13 1397.67 2208.77 1401.27 2207.46C1404.87 2206.15 1408.44 2206.24 1411.98 2207.73C1409.75 2206.54 1407.96 2204.9 1406.62 2202.82C1405.28 2200.74 1404.51 2198.47 1404.33 2196.01C1404.15 2193.56 1404.59 2191.2 1405.67 2188.95C1404.03 2192.38 1401.41 2194.76 1397.82 2196.08C1394.23 2197.4 1390.66 2197.31 1387.11 2195.83Z" fill="#2CA0E2"/>
<path d="M408.006 2754.16C412.214 2753.28 416.148 2753.94 419.809 2756.15C423.469 2758.35 425.833 2761.51 426.9 2765.6C425.833 2761.51 426.365 2757.6 428.495 2753.89C430.626 2750.17 433.742 2747.67 437.845 2746.39C435.078 2746.98 432.37 2746.87 429.721 2746.06C427.072 2745.25 424.783 2743.86 422.854 2741.9C420.926 2739.93 419.609 2737.59 418.905 2734.89C419.977 2739.01 419.454 2742.93 417.337 2746.65C415.219 2750.37 412.109 2752.87 408.006 2754.16Z" fill="#2CA0E2"/>
<path d="M1365.05 2146.48C1370.27 2145.39 1375.14 2146.21 1379.68 2148.95C1384.22 2151.68 1387.15 2155.59 1388.47 2160.67C1387.15 2155.59 1387.81 2150.75 1390.45 2146.14C1393.09 2141.54 1396.96 2138.44 1402.04 2136.85C1398.61 2137.58 1395.25 2137.45 1391.97 2136.44C1388.69 2135.44 1385.85 2133.72 1383.46 2131.28C1381.07 2128.84 1379.43 2125.95 1378.56 2122.59C1379.89 2127.7 1379.24 2132.56 1376.62 2137.17C1373.99 2141.79 1370.14 2144.89 1365.05 2146.48Z" fill="#2CA0E2"/>
<path d="M456.614 2774.59C459.065 2775.38 460.917 2776.89 462.17 2779.12C463.424 2781.35 463.722 2783.69 463.066 2786.14C463.722 2783.69 465.154 2781.81 467.361 2780.51C469.569 2779.2 471.93 2778.83 474.446 2779.37C472.83 2778.86 471.452 2778 470.312 2776.8C469.173 2775.59 468.391 2774.19 467.969 2772.6C467.546 2771 467.551 2769.4 467.985 2767.78C467.325 2770.24 465.894 2772.13 463.691 2773.44C461.488 2774.75 459.129 2775.14 456.614 2774.59Z" fill="#2CA0E2"/>
<g filter="url(#filter3_f_2033_154)">
<path d="M1409.18 145.515L1385.16 292.337L1516.52 362.181L1369.7 338.158L1299.85 469.518L1323.88 322.696L1192.52 252.852L1339.34 276.875L1409.18 145.515Z" fill="url(#paint5_linear_2033_154)" fill-opacity="0.8"/>
</g>
<g filter="url(#filter4_f_2033_154)">
<path d="M95.7635 994.61L149.324 1070.24L238.136 1043.76L162.507 1097.32L188.982 1186.14L135.421 1110.51L46.6094 1136.98L122.238 1083.42L95.7635 994.61Z" fill="url(#paint6_linear_2033_154)" fill-opacity="0.8"/>
</g>
<defs>
<filter id="filter0_f_2033_154" x="-400" y="1887" width="1260" height="1260" filterUnits="userSpaceOnUse" color-interpolation-filters="sRGB">
<feFlood flood-opacity="0" result="BackgroundImageFix"/>
<feBlend mode="normal" in="SourceGraphic" in2="BackgroundImageFix" result="shape"/>
<feGaussianBlur stdDeviation="200" result="effect1_foregroundBlur_2033_154"/>
</filter>
<filter id="filter1_f_2033_154" x="670.725" y="298.725" width="1260.01" height="1260.01" filterUnits="userSpaceOnUse" color-interpolation-filters="sRGB">
<feFlood flood-opacity="0" result="BackgroundImageFix"/>
<feBlend mode="normal" in="SourceGraphic" in2="BackgroundImageFix" result="shape"/>
<feGaussianBlur stdDeviation="200" result="effect1_foregroundBlur_2033_154"/>
</filter>
<filter id="filter2_f_2033_154" x="-507.244" y="-219.579" width="1371.18" height="1376.16" filterUnits="userSpaceOnUse" color-interpolation-filters="sRGB">
<feFlood flood-opacity="0" result="BackgroundImageFix"/>
<feBlend mode="normal" in="SourceGraphic" in2="BackgroundImageFix" result="shape"/>
<feGaussianBlur stdDeviation="200" result="effect1_foregroundBlur_2033_154"/>
</filter>
<filter id="filter3_f_2033_154" x="1121.28" y="74.2757" width="466.481" height="466.482" filterUnits="userSpaceOnUse" color-interpolation-filters="sRGB">
<feFlood flood-opacity="0" result="BackgroundImageFix"/>
<feBlend mode="normal" in="SourceGraphic" in2="BackgroundImageFix" result="shape"/>
<feGaussianBlur stdDeviation="35.6199" result="effect1_foregroundBlur_2033_154"/>
</filter>
<filter id="filter4_f_2033_154" x="-24.6303" y="923.37" width="334.006" height="334.006" filterUnits="userSpaceOnUse" color-interpolation-filters="sRGB">
<feFlood flood-opacity="0" result="BackgroundImageFix"/>
<feBlend mode="normal" in="SourceGraphic" in2="BackgroundImageFix" result="shape"/>
<feGaussianBlur stdDeviation="35.6199" result="effect1_foregroundBlur_2033_154"/>
</filter>
<linearGradient id="paint0_linear_2033_154" x1="75" y1="2341" x2="460" y2="2636.5" gradientUnits="userSpaceOnUse">
<stop stop-color="#65E0E9"/>
<stop offset="1" stop-color="#A839FF"/>
</linearGradient>
<linearGradient id="paint1_linear_2033_154" x1="1145.73" y1="752.732" x2="1530.73" y2="1048.23" gradientUnits="userSpaceOnUse">
<stop stop-color="#65E0E9"/>
<stop offset="1" stop-color="#A839FF"/>
</linearGradient>
<linearGradient id="paint2_linear_2033_154" x1="-10.5755" y1="244.155" x2="474.077" y2="599.846" gradientUnits="userSpaceOnUse">
<stop stop-color="#65E0E9"/>
<stop offset="1" stop-color="#A839FF"/>
</linearGradient>
<linearGradient id="paint3_linear_2033_154" x1="264.309" y1="1017.4" x2="1676.93" y2="3335.24" gradientUnits="userSpaceOnUse">
<stop stop-color="#15BFFD"/>
<stop offset="1" stop-color="#9C37FD"/>
</linearGradient>
<linearGradient id="paint4_linear_2033_154" x1="1430.78" y1="3289.12" x2="995.253" y2="694.675" gradientUnits="userSpaceOnUse">
<stop stop-color="#15BFFD"/>
<stop offset="1" stop-color="#9C37FD"/>
</linearGradient>
<linearGradient id="paint5_linear_2033_154" x1="1409.18" y1="145.515" x2="1299.85" y2="469.518" gradientUnits="userSpaceOnUse">
<stop stop-color="#65E0E9"/>
<stop offset="1" stop-color="#FF90EE"/>
</linearGradient>
<linearGradient id="paint6_linear_2033_154" x1="95.7635" y1="994.61" x2="188.982" y2="1186.14" gradientUnits="userSpaceOnUse">
<stop stop-color="#65E0E9"/>
<stop offset="1" stop-color="#FF90EE"/>
</linearGradient>
</defs>
</svg>
