<svg width="736" height="312" viewBox="0 0 736 312" fill="none" xmlns="http://www.w3.org/2000/svg">
<path fill-rule="evenodd" clip-rule="evenodd" d="M548.095 142.848L546.404 162.594L546.693 165.733C544.418 176.714 541.238 187.488 537.187 197.945C534.004 200.973 520.847 206.85 520.847 206.85L512.989 222.678C508.359 227.13 498.074 228.889 498.074 228.889V231.783C492.515 230.726 487.072 229.131 481.823 227.019L479.196 218.537C476.124 216.89 464.882 209.076 464.882 209.076L462.433 198.969C462.433 198.969 454.152 191.378 453.529 187.839C453.529 187.438 453.328 186.525 453.106 185.167C451.503 174.949 445.782 140.889 445.782 140.889C445.015 139.056 444.621 137.088 444.624 135.101C444.802 132.363 445.648 123.97 445.648 123.97C445.648 123.97 484.873 113.908 491.596 113.263C498.319 112.617 525.589 113.129 525.589 113.129L526.235 93.4943L535.74 82.742C537.607 85.043 538.999 87.6912 539.836 90.5336C539.836 90.7339 539.836 90.9343 539.992 91.1124C540.443 92.6551 540.8 94.2237 541.061 95.8095V95.9431C541.174 96.5469 541.256 97.1562 541.306 97.7685L540.794 88.018L544.511 82.0742C545.382 74.8586 545.754 67.5915 545.624 60.3247L548.429 58.0986L549.253 45.3205L553.839 44.3855L556.577 61.1261L558.803 65.3558C558.803 65.3558 558.158 84.6565 557.668 92.7597C557.178 100.863 559.115 125.039 559.115 125.039C556.735 131.684 552.98 137.753 548.095 142.848Z" fill="url(#paint0_linear_107_2419)"/>
<path fill-rule="evenodd" clip-rule="evenodd" d="M445.67 123.926L456.423 128.735C456.423 128.735 467.798 125.796 468.911 124.839C470.024 123.882 478.105 118.16 478.105 118.16L498.141 116.602L499.365 122.123C499.365 122.123 505.22 121.589 511.475 120.72C517.731 119.852 521.76 120.409 524.098 118.761C526.435 117.114 525.7 116.001 528.683 115.734C531.667 115.467 534.672 115.289 534.672 115.289L525.5 113.062C525.5 113.062 499.61 113.641 491.485 113.196C483.359 112.751 449.922 121.166 445.67 123.926Z" fill="url(#paint1_linear_107_2419)"/>
<path fill-rule="evenodd" clip-rule="evenodd" d="M465.016 166.557L459.361 172.545C459.361 172.545 474.41 174.571 479.063 174.905C483.715 175.239 494.846 174.526 494.846 174.526C494.846 174.526 512.655 171.343 517.753 170.809C522.851 170.274 542.063 166.356 542.063 166.356L545.914 165.11L542.174 163.173C542.174 163.173 531.978 162.884 527.993 164.509C524.008 166.134 509.85 168.961 504.997 170.163C500.314 171.052 495.561 171.529 490.794 171.588C490.794 171.588 469.535 166.334 465.016 166.557Z" fill="url(#paint2_linear_107_2419)"/>
<path fill-rule="evenodd" clip-rule="evenodd" d="M526.235 93.472L532.49 96.0989C534.265 95.6789 535.942 94.9232 537.432 93.8727C538.403 92.8369 539.22 91.6674 539.859 90.4C538.788 87.6963 537.406 85.1264 535.741 82.742C532.189 85.9601 529.001 89.5583 526.235 93.472Z" fill="#A0FFED"/>
<path fill-rule="evenodd" clip-rule="evenodd" d="M540.838 88.0403C540.838 88.0403 545.647 87.3057 548.496 87.2166C550.895 86.8853 553.217 86.1316 555.353 84.9905V82.141H544.444C543.038 83.975 541.829 85.9524 540.838 88.0403Z" fill="#A0FFED"/>
<path fill-rule="evenodd" clip-rule="evenodd" d="M545.669 60.3474L549.209 65.8015L554.729 67.9608L557.801 68.8958L552.303 65.5789L550.255 60.5032L548.474 58.188L545.669 60.3474Z" fill="#A0FFED"/>
<path fill-rule="evenodd" clip-rule="evenodd" d="M549.231 45.3205L550.7 52.9339L553.305 55.2046L554.084 51.153L553.817 44.3855L549.231 45.3205Z" fill="#A0FFED"/>
<path fill-rule="evenodd" clip-rule="evenodd" d="M547.049 117.937L542.508 122.634L535.763 124.326L530.91 124.17L537.477 121.009L540.326 117.381L542.129 114.62L547.049 117.937Z" fill="url(#paint3_linear_107_2419)"/>
<path fill-rule="evenodd" clip-rule="evenodd" d="M548.095 142.848L546.404 162.594L546.693 165.733C544.418 176.714 541.238 187.488 537.187 197.945C534.004 200.973 520.847 206.85 520.847 206.85L512.989 222.678C508.359 227.13 498.074 228.889 498.074 228.889V231.783C492.515 230.727 487.072 229.131 481.823 227.019L479.196 218.537C476.124 216.89 464.882 209.076 464.882 209.076L462.433 198.969C462.433 198.969 454.152 191.378 453.529 187.839C453.529 187.438 453.328 186.525 453.106 185.167L458.738 188.484L461.276 184.032L460.608 172.456L464.103 191.356L464.659 204L467.331 207.406L476.235 212.705L483.893 219.383L489.993 215.599L491.106 182.362L489.325 177.754L491.997 180.537L494.646 203.867L496.159 216.868L506.288 217.202L512.967 208.119L520.202 200.528L529.396 190.866L534.739 179.98L540.081 167.135L545.914 165.11L542.174 163.173L530.665 163.818L521.115 166.468C521.115 166.468 508.292 169.362 503.55 170.475C499.34 171.223 495.071 171.595 490.794 171.588L473.742 167.781L472.674 162.728L469.691 154.736L469.245 136.17L468.911 124.928L478.105 118.249L498.141 116.691L499.365 122.212L499.165 156.361L504.352 168.85L512.611 166.223L521.827 155.827L523.608 135.791L524.187 118.739C527.036 115.355 528.773 115.711 528.773 115.711L528.639 119.808L530.108 148.747L532.334 140.867L531.867 124.772L535.896 124.327L542.575 122.635L546.337 119.54L541.573 116.669L536.698 121.41L534.828 115.333L534.16 107.319L532.557 96.1881L537.477 93.962L539.903 90.5337L540.037 91.157L541.105 95.8542V95.9878L542.129 114.643L547.027 117.938L547.138 127.376L552.837 123.614L553.705 120.097C552.602 115.735 552.138 111.236 552.325 106.74C552.963 101.54 553.937 96.3869 555.241 91.3128L555.553 82.1856L555.42 68.8287H557.913L555.932 67.3595L556.043 64.1538C555.182 63.442 554.483 62.5539 553.995 61.5492C553.525 59.4669 553.286 57.3393 553.282 55.2047L554.062 51.1531L553.794 44.4747L556.533 61.2153L558.759 65.445C558.759 65.445 558.158 84.6567 557.668 92.7598C557.178 100.863 559.115 125.039 559.115 125.039C556.735 131.684 552.98 137.753 548.095 142.848Z" fill="url(#paint4_linear_107_2419)"/>
<path fill-rule="evenodd" clip-rule="evenodd" d="M564.191 2.33345C563.782 10.2108 562.74 18.0425 561.074 25.7525L557.69 30.2048C557.211 33.7326 556.512 37.227 555.598 40.6677C554.707 42.8939 550.455 40.5119 550.455 40.5119C549.174 35.4679 548.186 30.3541 547.495 25.196C546.489 18.856 546.332 12.4103 547.027 6.02885C547.027 6.02885 552.214 1.15359 556.599 0.485744C558.478 0.220685 560.393 0.466773 562.143 1.19811C562.839 1.47772 563.497 1.84423 564.102 2.28892L564.191 2.33345Z" fill="url(#paint5_linear_107_2419)"/>
<path fill-rule="evenodd" clip-rule="evenodd" d="M564.191 2.33323C563.782 10.2106 562.74 18.0423 561.074 25.7523L557.69 30.2046C557.211 33.7323 556.512 37.2268 555.598 40.6675C554.707 42.8937 550.455 40.5117 550.455 40.5117C549.174 35.4677 548.185 30.3539 547.494 25.1958L549.609 33.7664L555.13 32.0523L555.798 27.6L558.024 8.58871L557.512 23.682L560.384 20.4096L560.584 14.3322L562.142 1.22015L564.101 2.31097L564.191 2.33323Z" fill="url(#paint6_linear_107_2419)"/>
<path fill-rule="evenodd" clip-rule="evenodd" d="M579.061 188.083L575.433 191.934L569.288 197.9C569.033 200.335 568.099 202.648 566.595 204.579C565.291 205.768 563.664 206.542 561.92 206.805L560.495 200.973C558.258 200.091 556.111 198.995 554.084 197.7C553.877 197.544 553.697 197.356 553.55 197.144C552.77 195.897 550.611 175.728 551.323 170.207C551.355 169.81 551.445 169.42 551.591 169.05C556.043 160.279 570.157 162.616 570.157 162.616L572.962 168.738C574.469 168.688 575.974 168.891 577.414 169.339C578.291 169.62 579.066 170.155 579.64 170.875C579.906 171.231 580.089 171.641 580.174 172.077C581.154 175.973 579.061 188.083 579.061 188.083Z" fill="url(#paint7_linear_107_2419)"/>
<path fill-rule="evenodd" clip-rule="evenodd" d="M580.419 172.3C577.397 172.037 574.358 172.037 571.337 172.3L570.58 173.413C565.014 174.103 552.259 170.608 551.413 170.385C551.444 169.988 551.534 169.598 551.68 169.228C556.132 160.457 570.246 162.794 570.246 162.794L573.051 168.916C573.051 168.916 579.618 168.627 580.419 172.3Z" fill="#68F6FF"/>
<path fill-rule="evenodd" clip-rule="evenodd" d="M579.061 188.083L577.904 179.023L573.563 181.249L569.823 194.606L567.174 197.366L563.923 197.856L560.584 201.262C558.347 200.38 556.2 199.285 554.173 197.99L553.705 197.366L560.384 197.545L565.148 193.649L567.819 186.013L570.557 173.458L569.734 171.031L577.525 169.562L579.751 171.098C580.017 171.454 580.2 171.864 580.286 172.3C581.154 175.973 579.061 188.083 579.061 188.083Z" fill="url(#paint8_linear_107_2419)"/>
<path fill-rule="evenodd" clip-rule="evenodd" d="M12.9421 215.686C12.9421 215.686 11.9573 230.95 12.9421 237.372C13.6147 238.731 14.5894 239.918 15.7917 240.842C16.994 241.766 18.3919 242.402 19.8782 242.702V254.926C19.8782 254.926 29.5759 257.067 32.8299 253.535C36.0839 250.003 50.0631 212.432 50.0631 212.432L33.2152 214.273L12.9421 215.686Z" fill="url(#paint9_linear_107_2419)"/>
<path fill-rule="evenodd" clip-rule="evenodd" d="M12.9419 215.686C12.9419 215.686 24.8446 214.701 26.8355 213.545L30.903 211.576L50.17 212.496C48.4838 213.647 46.7404 214.712 44.9465 215.686C42.3562 217.078 30.2608 217.827 25.1015 217.463C21.021 217.076 16.9626 216.483 12.9419 215.686Z" fill="url(#paint10_linear_107_2419)"/>
<path fill-rule="evenodd" clip-rule="evenodd" d="M12.9419 237.372L19.0645 238.528L22.3399 237.372L24.4807 224.527V237.372L25.3798 242.189L31.3526 244.458C31.3526 244.458 35.4415 242.617 36.1479 239.898C36.8544 237.179 42.0565 216.521 42.0565 216.521L50.1272 212.475C50.1272 212.475 39.5518 243.088 34.8635 250.217L31.3526 255.633L20.4988 257.581L19.1287 253.578L19.9422 242.745C19.9422 242.745 13.2844 240.904 12.9419 237.372Z" fill="url(#paint11_linear_107_2419)"/>
<path fill-rule="evenodd" clip-rule="evenodd" d="M26.8354 213.502C29.3405 213.861 31.8632 214.083 34.3924 214.166C36.5332 214.166 40.9432 213.502 40.9432 213.502C37.6945 212.419 34.3202 211.757 30.9029 211.533C30.9029 211.533 27.4349 212.325 26.8354 213.502Z" fill="#A0FFED"/>
<path fill-rule="evenodd" clip-rule="evenodd" d="M446.578 211.919C447.934 214.715 449.449 217.431 451.116 220.054C452.262 221.767 453.536 223.392 454.927 224.913L453.021 227.782L383.446 230.95L317.082 236.752C318.773 239.204 320.588 241.569 322.52 243.838C323.681 244.944 324.942 245.94 326.287 246.813C326.287 246.813 327.679 253.557 328.171 256.34C328.435 258.161 328.168 260.019 327.401 261.692L330.355 271.197L424.849 291.042H485.326L607.971 302.73L735.775 309.153V242.789L619.852 226.069L446.578 211.919Z" fill="url(#paint12_linear_107_2419)"/>
<path fill-rule="evenodd" clip-rule="evenodd" d="M472.845 228.231C469.823 226.762 466.63 225.676 463.34 224.998C459.615 224.57 364.864 228.017 359.234 228.231L346.625 227.246C346.625 227.246 344.077 224.484 341.551 224.977C339.945 225.295 338.39 225.827 336.927 226.561C336.547 227.862 335.969 229.097 335.214 230.222C333.867 230.889 332.421 231.337 330.933 231.549L328.321 233.69L324.296 230.95L319.843 233.626L317.018 236.751C317.018 236.751 323.847 237.65 325.923 238.25C328 238.849 360.283 236.901 369.809 238.25C379.336 239.598 390.018 239.577 390.767 240.39C395.339 241.97 400.146 242.759 404.982 242.724C408.621 242.317 445.229 236.815 445.229 236.815L466.315 232.534L472.845 228.231Z" fill="url(#paint13_linear_107_2419)"/>
<path fill-rule="evenodd" clip-rule="evenodd" d="M735.989 204.254H568.581C566.286 205.277 563.868 205.996 561.388 206.395C558.412 206.652 523.453 207.102 518.572 207.166C513.691 207.23 500.333 206.502 491.919 207.166C483.506 207.83 472.781 208.258 469.42 208.836C466.059 209.414 456.575 210.42 453.064 210.976C449.553 211.533 445.828 210.976 446.642 211.961C447.455 212.946 455.376 213.16 458.159 214.552C460.942 215.943 473.444 216.928 476.399 217.72C479.353 218.512 495.452 220.696 499.112 221.873L505.727 224.014C505.727 224.014 474.13 227.589 470.212 228.766C466.294 229.944 462.719 230.907 462.719 230.907C462.719 230.907 415.151 236.473 410.484 238.25C405.817 240.027 402.863 240.819 403.441 242.018C404.019 243.217 421.102 244.394 425.063 244.801C429.023 245.208 446.471 240.626 449.425 242.21C452.131 243.35 454.756 244.673 457.282 246.171C458.951 247.562 464.132 246.385 468.671 247.562C473.209 248.74 546.381 249.703 550.341 250.538C554.302 251.373 557.877 255.098 562.244 256.104C566.611 257.11 735.861 257.282 735.861 257.282L735.989 204.254Z" fill="url(#paint14_radial_107_2419)"/>
<path fill-rule="evenodd" clip-rule="evenodd" d="M713.704 257.56L717.407 306.498L674.313 307.525L617.005 302.837L610.111 279.16L604.674 257.56L604.032 280.916L604.674 296.415L594.976 306.498L571.042 301.403L562.265 256.147L550.362 250.581L546.081 275.778L541.114 277.918L542.912 290.506L515.082 291.277L474.407 292.647L468.627 247.584L465.074 247.07L469.248 272.245L458.908 246.813L458.223 281.065L454.134 262.676L445.571 262.483L446.278 241.932L424.87 244.843L426.368 259.465L410.184 261.606L401.043 259.465L389.611 240.005L370.516 239.063L376.167 250.773L377.559 257.324L381.048 273.979L365.356 270.661L355.359 247.327L354.481 241.996L351.398 237.715L325.923 238.143L317.018 236.644C317.018 236.644 321.299 242.638 322.455 243.73C323.611 244.822 326.223 246.706 326.223 246.706L334.593 247.327L340.373 251.009L344.655 257.217L335.814 259.358L332.41 261.777L327.657 262.376L329.798 269.163L344.056 275.585L452.079 299.369L579.712 310.18L717.3 311.208L735.689 308.938V257.324L713.704 257.56Z" fill="url(#paint15_linear_107_2419)"/>
<path fill-rule="evenodd" clip-rule="evenodd" d="M393.443 261.692L398.239 289.522C405.117 292.196 412.135 294.497 419.261 296.415C425.234 297.571 432.106 293.653 432.106 293.653L443.131 292.669L450.709 287.531L454.092 262.676L435.296 262.484L393.443 261.692Z" fill="url(#paint16_linear_107_2419)"/>
<path fill-rule="evenodd" clip-rule="evenodd" d="M393.443 261.692C393.443 261.692 411.683 254.755 414.166 254.948C416.649 255.141 424.977 254.948 424.977 254.948C428.46 256.506 432.119 257.634 435.874 258.309C440.048 258.716 454.113 262.591 454.113 262.591C454.113 262.591 444.437 264.175 441.268 264.175L442.531 266.166C436.847 266.914 431.089 266.914 425.405 266.166C425.405 266.166 417.035 264.475 393.443 261.692Z" fill="url(#paint17_linear_107_2419)"/>
<path fill-rule="evenodd" clip-rule="evenodd" d="M328.128 259.037L335.214 258.181L339.325 258.609L335.835 259.465L332.431 261.884L327.679 262.484C327.413 261.927 327.313 261.305 327.393 260.694C327.473 260.082 327.728 259.506 328.128 259.037Z" fill="url(#paint18_linear_107_2419)"/>
<path fill-rule="evenodd" clip-rule="evenodd" d="M502.688 223.029L544.818 222.686L569.651 223.029L599.194 225.79L658.044 230.115H584.872L553.638 229.023L509.302 224.806L502.688 223.029Z" fill="url(#paint19_linear_107_2419)"/>
<path fill-rule="evenodd" clip-rule="evenodd" d="M399.845 243.452L424.999 244.844C432.204 244.474 439.365 243.5 446.407 241.932L458.973 246.835L468.692 247.605L470.619 249.746L550.363 250.495L580.89 246.214L596.047 243.409L658.129 230.072L586.991 227.932L574.746 230.072L550.02 228.638L505.749 223.971C505.749 223.971 475.628 227.461 470.233 228.724C464.839 229.987 428.403 235.146 428.403 235.146L393.529 241.29C393.529 241.29 393.208 242.596 399.845 243.452Z" fill="url(#paint20_linear_107_2419)"/>
<path fill-rule="evenodd" clip-rule="evenodd" d="M336.927 226.668L339.325 228.488L343.221 227.589L345.019 226.668L343.97 224.913C341.516 224.925 339.1 225.527 336.927 226.668Z" fill="#C2FFFF"/>
<path fill-rule="evenodd" clip-rule="evenodd" d="M330.077 232.277H333.352L335.707 230.394C334.686 230.231 333.641 230.318 332.661 230.646C331.681 230.974 330.794 231.534 330.077 232.277Z" fill="#C2FFFF"/>
<path fill-rule="evenodd" clip-rule="evenodd" d="M324.296 230.95L320.55 233.819L321.406 235.082H325.517L328.385 233.626L324.296 230.95Z" fill="#C2FFFF"/>
<path fill-rule="evenodd" clip-rule="evenodd" d="M676.304 230.286L735.775 228.381L735.989 235.082L676.304 230.286Z" fill="url(#paint21_linear_107_2419)"/>
<path fill-rule="evenodd" clip-rule="evenodd" d="M604.588 257.56L625.225 259.465H635.308L656.417 258.502L666.885 259.037L681.121 259.465L687.094 263.083L700.431 262.484L711.756 261.307L715.588 257.56L727.983 256.897L735.775 257.325L683.433 252.315L655.796 254.948H629.4L604.588 257.56Z" fill="url(#paint22_linear_107_2419)"/>
<path fill-rule="evenodd" clip-rule="evenodd" d="M370.537 239.064L377.794 238.315L382.975 237.308L391.238 238.186L403.312 239.064L417.42 236.752L393.443 241.226L389.975 240.627L388.477 241.226L370.537 239.064Z" fill="url(#paint23_linear_107_2419)"/>
<path fill-rule="evenodd" clip-rule="evenodd" d="M550.298 250.581L563.978 248.633L580.804 246.257L599.301 242.725L575.688 245.444L541.821 250.132L548.093 261.692L550.298 250.581Z" fill="url(#paint24_linear_107_2419)"/>
<path fill-rule="evenodd" clip-rule="evenodd" d="M568.581 204.254L595.148 207.016L597.374 209.778L586.371 208.921H566.74L552.097 207.016L568.581 204.254Z" fill="url(#paint25_linear_107_2419)"/>
<path fill-rule="evenodd" clip-rule="evenodd" d="M57.2989 195.563C57.2989 195.563 54.6871 208.408 54.9868 211.533C55.2866 214.659 61.1737 221.445 61.1737 221.445C61.1737 221.445 67.4033 234.825 69.3729 241.376C71.3424 247.926 78.0644 256.233 78.0644 256.233C78.0644 256.233 118.332 262.484 129.443 262.484C140.554 262.484 145.991 257.324 145.991 257.324C145.991 257.324 161.426 230.372 162.689 229.023C163.952 227.675 171.788 224.913 171.788 224.913C171.788 224.913 184.375 202.178 185.36 196.205L150.38 197.639L57.2989 195.563Z" fill="url(#paint26_linear_107_2419)"/>
<path fill-rule="evenodd" clip-rule="evenodd" d="M57.2988 195.563L73.847 193.422L83.4805 191.86C83.4805 191.86 128.993 191.967 142.074 192.737C142.074 192.737 152.97 188.327 155.946 188.22C158.921 188.113 164.616 193.487 164.616 193.487L185.446 196.205C180.011 198.063 174.337 199.13 168.598 199.374L175.534 201.729C174.199 202.706 172.698 203.431 171.103 203.869C168.341 204.726 147.554 205.325 137.578 205.218C127.602 205.111 123.363 201.664 123.363 201.664L127.88 199.952L122.55 199.309C122.55 199.309 106.344 202.135 100.157 202.349C95.4241 202.336 90.7021 201.891 86.0495 201.022L85.45 198.881C76.0058 198.369 66.6033 197.261 57.2988 195.563Z" fill="url(#paint27_linear_107_2419)"/>
<path fill-rule="evenodd" clip-rule="evenodd" d="M81.5967 198.71V207.701L72.477 209.264C72.477 209.264 72.0702 209.435 71.0641 212.026C69.4116 215.149 67.5222 218.14 65.4124 220.974L61.1309 221.445L64.5133 229.024C66.8498 229 69.1688 229.429 71.3424 230.287C73.2905 231.485 77.5934 235.082 77.5934 235.082L80.1838 242.168C80.1838 242.168 82.7741 229.066 82.9454 227.011C83.1166 224.956 85.6213 215.965 85.2788 214.552C85.105 212.098 85.1552 209.633 85.4287 207.188L86.1137 201.086C86.1137 201.086 99.3437 202.885 100.714 203.398C102.084 203.912 102.748 209.542 102.748 209.542L107.265 219.925L102.212 235.103L104.16 247.948L104.781 257.624L111.931 265.203H117.605C117.605 265.203 122.25 240.049 122.614 238.507C122.558 236.714 122.135 234.951 121.372 233.326L123.642 217.528L123.427 201.686L127.944 199.973L122.614 199.331C122.614 199.331 105.787 201.857 103.004 202.114C100.221 202.371 86.0709 199.738 86.0709 199.738L94.634 197.597L81.5967 198.71Z" fill="url(#paint28_linear_107_2419)"/>
<path fill-rule="evenodd" clip-rule="evenodd" d="M154.126 205.261L165.451 207.144L163.653 211.426L158.75 223.286L152.82 228.916L146.162 231.378L141.003 234.975H145.563L145.22 239.77L142.801 251.223V259.358L145.841 258.93C145.841 258.93 157.98 236.965 162.968 228.959C162.968 228.959 171.21 226.411 172.066 224.849C172.922 223.286 184.589 201.514 185.638 196.141L168.79 199.309L175.534 201.728C172.897 202.902 170.151 203.813 167.335 204.447C164.124 204.961 154.126 205.261 154.126 205.261Z" fill="url(#paint29_linear_107_2419)"/>
<path fill-rule="evenodd" clip-rule="evenodd" d="M142.031 192.737L138.37 194.557C138.37 194.557 141.046 195.156 142.652 195.585C146.491 195.769 150.339 195.532 154.126 194.878C155.646 194.45 161.234 192.737 161.234 192.737L161.533 190.982C161.533 190.982 157.252 187.236 156.096 187.428C154.94 187.621 144.236 191.646 142.031 192.737Z" fill="url(#paint30_linear_107_2419)"/>
<path fill-rule="evenodd" clip-rule="evenodd" d="M165.13 193.55L161.576 195.563L156.031 195.691H144.193C144.193 195.691 153.291 194.92 154.661 194.621C156.031 194.321 161.276 192.737 161.276 192.737L161.576 190.981L165.13 193.55Z" fill="url(#paint31_linear_107_2419)"/>
<path fill-rule="evenodd" clip-rule="evenodd" d="M81.5967 207.701L85.4287 216.671L86.0923 199.781L94.5698 197.725L81.5967 198.71V207.701Z" fill="url(#paint32_linear_107_2419)"/>
<path fill-rule="evenodd" clip-rule="evenodd" d="M168.598 199.373L175.534 201.728L172.515 223.628C172.515 223.628 181.913 205.71 185.36 196.205L168.598 199.373Z" fill="url(#paint33_linear_107_2419)"/>
<path fill-rule="evenodd" clip-rule="evenodd" d="M103.004 202.157L111.931 210.784L117.433 216.672L118.568 221.702L123.492 218.534L123.427 201.729L127.944 200.016L122.593 199.374L103.004 202.157Z" fill="url(#paint34_linear_107_2419)"/>
<path fill-rule="evenodd" clip-rule="evenodd" d="M30.9031 169.617C30.9031 169.617 28.484 177.11 26.6215 179.079C24.7591 181.049 11.6361 182.119 11.6361 182.119C11.6361 182.119 2.13105 176.746 0.846585 173.706C0.681771 173.228 0.573986 172.732 0.525468 172.229C-0.330843 166.598 -0.266619 149.986 1.74571 147.588C3.45348 145.327 5.4631 143.31 7.71848 141.594C10.0733 140.267 21.9975 144.548 24.0098 145.876C24.3275 146.123 24.5962 146.428 24.8019 146.775L24.9089 146.925C25.6073 148.457 25.9652 150.122 25.9579 151.806C25.9579 151.806 28.8694 153.561 29.4045 154.995C29.9612 156.922 30.9031 169.617 30.9031 169.617Z" fill="url(#paint35_linear_107_2419)"/>
<path fill-rule="evenodd" clip-rule="evenodd" d="M30.903 169.617C30.903 169.617 28.4839 177.11 26.6215 179.079C24.759 181.049 11.636 182.119 11.636 182.119C11.636 182.119 2.13097 176.746 0.846507 173.706C0.681693 173.228 0.573908 172.732 0.525391 172.229C2.54358 174.189 4.88222 175.789 7.4401 176.96C9.12922 177.471 10.9317 177.471 12.6208 176.96L13.2416 172.208L13.7768 165.164L14.2906 157.393L15.4466 153.24V160.712C15.4466 160.712 18.5293 158.228 18.7434 156.43C19.0776 154.715 19.6018 153.042 20.3062 151.442L24.7804 146.925L24.8874 147.075C25.7947 148.53 26.1657 150.256 25.9364 151.956L23.4103 157.757L23.0892 163.709L24.6519 170.559C24.6519 170.559 26.6215 167.905 27.4564 166.663C28.0482 165.098 28.3317 163.433 28.2913 161.761L29.3831 155.146C29.9611 156.922 30.903 169.617 30.903 169.617Z" fill="url(#paint36_linear_107_2419)"/>
<path fill-rule="evenodd" clip-rule="evenodd" d="M1.2959 148.423L13.4769 151.228H18.9359L21.0767 150.693L24.8873 146.861C24.7408 146.212 24.4351 145.61 23.9979 145.109C23.5606 144.609 23.0054 144.225 22.3825 143.992C20.2418 143.093 8.53172 140.417 8.53172 140.417L7.20444 141.316C5.02208 143.5 3.04431 145.879 1.2959 148.423Z" fill="#A0FFED"/>
<path fill-rule="evenodd" clip-rule="evenodd" d="M25.9365 151.912L23.4104 157.714L26.4717 158.463L28.9764 157.542L29.4046 155.166C28.5195 153.825 27.3316 152.71 25.9365 151.912Z" fill="url(#paint37_linear_107_2419)"/>
<path fill-rule="evenodd" clip-rule="evenodd" d="M101.891 65.0395L103.625 76.0859C103.625 76.0859 109.469 78.0554 110.39 79.9607C111.311 81.866 115.035 116.161 115.035 116.161L119.082 119.33C119.082 119.33 121.629 125.602 123.684 124.896C125.739 124.189 127.837 115.669 127.837 115.669C127.837 115.669 128.158 115.284 128.651 114.62C129.344 113.706 129.987 112.756 130.578 111.773C131.871 108.08 132.74 104.252 133.168 100.362C133.553 97.8148 133.81 95.8881 133.81 95.8881L144.107 93.7473L145.37 91.1998L153.933 86.0405C156.417 73.3243 153.762 57.3113 153.762 57.3113C150.958 55.1705 138.049 52.0878 133.789 52.4732C129.254 53.2654 124.793 54.4326 120.452 55.9626H120.345L118.91 63.9691C112.081 62.0638 101.891 65.0395 101.891 65.0395Z" fill="url(#paint38_linear_107_2419)"/>
<path fill-rule="evenodd" clip-rule="evenodd" d="M101.891 65.0402L103.625 76.0866C103.625 76.0866 109.469 78.0562 110.39 79.9614C111.311 81.8667 115.035 116.162 115.035 116.162L119.082 119.33C119.082 119.33 121.629 125.603 123.684 124.896C125.739 124.19 127.837 115.67 127.837 115.67C127.837 115.67 128.158 115.284 128.651 114.621L126.51 113.636L122.721 116.997L120.944 112.416L119.959 86.8547L125.525 88.5031L131.948 96.0815L133.018 100.363C133.403 97.8155 133.66 95.8888 133.66 95.8888L143.957 93.748L145.22 91.2005L153.784 86.0413L147.982 87.0046L147.318 81.0961L145.285 89.9375H142.63L136.572 88.3747C135.616 86.4448 134.801 84.4487 134.131 82.4019C133.575 80.2612 132.269 66.8385 132.269 66.8385L131.776 54.5504L128.437 53.7155L120.43 55.8563H120.323L118.91 63.9698C112.081 62.0645 101.891 65.0402 101.891 65.0402Z" fill="url(#paint39_linear_107_2419)"/>
<path fill-rule="evenodd" clip-rule="evenodd" d="M189.256 103.488C190.305 103.188 191.119 100.726 191.782 98.4783V98.2214C192.103 97.1297 192.36 96.0807 192.596 95.417C193.366 93.2762 194.244 88.0742 192.596 86.8539C191.918 86.4657 191.146 86.2705 190.365 86.2893C189.584 86.3082 188.823 86.5405 188.164 86.961C186.923 87.6246 186.024 88.5665 186.024 89.1017C185.916 90.1079 187.651 104.002 189.256 103.488Z" fill="url(#paint40_linear_107_2419)"/>
<path fill-rule="evenodd" clip-rule="evenodd" d="M189.256 103.488C190.305 103.188 191.119 100.726 191.782 98.4787V98.2218H190.305L188.956 96.2951L188.25 87.0469C187.008 87.7106 186.109 88.6525 186.109 89.1877C185.917 90.1082 187.651 104.002 189.256 103.488Z" fill="url(#paint41_linear_107_2419)"/>
<path fill-rule="evenodd" clip-rule="evenodd" d="M222.631 187.449V187.578C222.481 188.819 221.261 198.86 220.79 201.193C220.319 203.526 219.42 203.655 219.42 203.655C219.42 203.655 216.872 210.655 214.667 211.768C212.462 212.882 205.505 211.383 205.505 211.383C205.505 211.383 196.813 204.789 195.357 188.348C195.357 188.348 203.514 184.431 209.272 184.709C213.813 185.126 218.293 186.045 222.631 187.449Z" fill="url(#paint42_linear_107_2419)"/>
<path fill-rule="evenodd" clip-rule="evenodd" d="M222.631 187.578C222.481 188.819 221.261 198.86 220.79 201.193C220.319 203.527 219.42 203.655 219.42 203.655C219.42 203.655 216.872 210.655 214.667 211.769C212.462 212.882 205.505 211.383 205.505 211.383C205.505 211.383 196.813 204.79 195.357 188.348C195.357 188.348 197.498 199.609 201.501 204.254C205.505 208.9 209.594 207.187 209.594 207.187L213.554 198.431L215.459 191.56L216.829 188.541L218.585 194.385L217.664 200.187H220.255L222.631 187.578Z" fill="url(#paint43_linear_107_2419)"/>
<path fill-rule="evenodd" clip-rule="evenodd" d="M195.357 188.348L202.893 188.134L210 187.492L219.313 187.342L222.545 187.492C218.458 185.881 214.219 184.683 209.893 183.917C205.291 183.532 195.357 188.348 195.357 188.348Z" fill="#A0FFED"/>
<defs>
<linearGradient id="paint0_linear_107_2419" x1="498.521" y1="231.839" x2="504.793" y2="42.7431" gradientUnits="userSpaceOnUse">
<stop stop-color="#4C51DD"/>
<stop offset="0.99" stop-color="#86F9FF"/>
</linearGradient>
<linearGradient id="paint1_linear_107_2419" x1="445.83" y1="119.436" x2="534.538" y2="122.379" gradientUnits="userSpaceOnUse">
<stop stop-color="#BDFFFF"/>
<stop offset="1" stop-color="#39D0DD"/>
</linearGradient>
<linearGradient id="paint2_linear_107_2419" x1="459.542" y1="167.378" x2="545.757" y2="170.238" gradientUnits="userSpaceOnUse">
<stop stop-color="#4CFFED"/>
<stop offset="1" stop-color="#39D0DD"/>
</linearGradient>
<linearGradient id="paint3_linear_107_2419" x1="531.101" y1="119.212" x2="547.01" y2="119.74" gradientUnits="userSpaceOnUse">
<stop stop-color="#84FFED"/>
<stop offset="1" stop-color="#39D0DD"/>
</linearGradient>
<linearGradient id="paint4_linear_107_2419" x1="558.168" y1="184.883" x2="487.181" y2="100.293" gradientUnits="userSpaceOnUse">
<stop stop-color="#2933B7"/>
<stop offset="1" stop-color="#1E7ABA"/>
</linearGradient>
<linearGradient id="paint5_linear_107_2419" x1="554.281" y1="41.5559" x2="555.65" y2="0.283501" gradientUnits="userSpaceOnUse">
<stop offset="0.01" stop-color="#86F9FF"/>
<stop offset="1" stop-color="#7D8CDD"/>
</linearGradient>
<linearGradient id="paint6_linear_107_2419" x1="554.926" y1="41.577" x2="556.272" y2="0.994412" gradientUnits="userSpaceOnUse">
<stop stop-color="#3E1EC0"/>
<stop offset="1" stop-color="#4395BA"/>
</linearGradient>
<linearGradient id="paint7_linear_107_2419" x1="565.92" y1="207.035" x2="565.925" y2="162.554" gradientUnits="userSpaceOnUse">
<stop stop-color="#4C51DD"/>
<stop offset="0.99" stop-color="#86F9FF"/>
</linearGradient>
<linearGradient id="paint8_linear_107_2419" x1="566.619" y1="201.401" x2="567.686" y2="169.228" gradientUnits="userSpaceOnUse">
<stop stop-color="#3E1EC0"/>
<stop offset="1" stop-color="#4395BA"/>
</linearGradient>
<linearGradient id="paint9_linear_107_2419" x1="31.2885" y1="255.611" x2="31.2885" y2="212.453" gradientUnits="userSpaceOnUse">
<stop offset="0.01" stop-color="#86F9FF"/>
<stop offset="1" stop-color="#4C51DD"/>
</linearGradient>
<linearGradient id="paint10_linear_107_2419" x1="12.9419" y1="214.551" x2="50.063" y2="214.551" gradientUnits="userSpaceOnUse">
<stop stop-color="#4CCCED"/>
<stop offset="1" stop-color="#39D0DD"/>
</linearGradient>
<linearGradient id="paint11_linear_107_2419" x1="31.5024" y1="257.56" x2="31.5024" y2="212.453" gradientUnits="userSpaceOnUse">
<stop stop-color="#239ABA"/>
<stop offset="1" stop-color="#3E47BE"/>
</linearGradient>
<linearGradient id="paint12_linear_107_2419" x1="526.407" y1="309.153" x2="526.407" y2="211.919" gradientUnits="userSpaceOnUse">
<stop stop-color="#00AABA"/>
<stop offset="1" stop-color="#000E77"/>
</linearGradient>
<linearGradient id="paint13_linear_107_2419" x1="317.018" y1="233.818" x2="472.845" y2="233.818" gradientUnits="userSpaceOnUse">
<stop stop-color="#6BEBED"/>
<stop offset="1" stop-color="#3994DD"/>
</linearGradient>
<radialGradient id="paint14_radial_107_2419" cx="0" cy="0" r="1" gradientUnits="userSpaceOnUse" gradientTransform="translate(569.651 230.8) scale(119.113 119.113)">
<stop stop-color="#4CCCED"/>
<stop offset="1" stop-color="#39A5DD"/>
</radialGradient>
<linearGradient id="paint15_linear_107_2419" x1="526.407" y1="311.422" x2="526.407" y2="236.751" gradientUnits="userSpaceOnUse">
<stop stop-color="#097098"/>
<stop offset="1" stop-color="#003194"/>
</linearGradient>
<linearGradient id="paint16_linear_107_2419" x1="423.778" y1="296.629" x2="423.778" y2="261.692" gradientUnits="userSpaceOnUse">
<stop stop-color="#00B4BA"/>
<stop offset="1" stop-color="#0031A2"/>
</linearGradient>
<linearGradient id="paint17_linear_107_2419" x1="393.443" y1="260.857" x2="454.113" y2="260.857" gradientUnits="userSpaceOnUse">
<stop stop-color="#4CCCED"/>
<stop offset="1" stop-color="#39BDDD"/>
</linearGradient>
<linearGradient id="paint18_linear_107_2419" x1="327.358" y1="260.343" x2="339.325" y2="260.343" gradientUnits="userSpaceOnUse">
<stop stop-color="#4CCCED"/>
<stop offset="1" stop-color="#39BDDD"/>
</linearGradient>
<linearGradient id="paint19_linear_107_2419" x1="502.709" y1="226.411" x2="658.044" y2="226.411" gradientUnits="userSpaceOnUse">
<stop stop-color="#0059A2"/>
<stop offset="1" stop-color="#000E77"/>
</linearGradient>
<linearGradient id="paint20_linear_107_2419" x1="393.444" y1="237.308" x2="658.044" y2="237.308" gradientUnits="userSpaceOnUse">
<stop stop-color="#4CCCED"/>
<stop offset="1" stop-color="#39BDDD"/>
</linearGradient>
<linearGradient id="paint21_linear_107_2419" x1="676.304" y1="231.742" x2="735.989" y2="231.742" gradientUnits="userSpaceOnUse">
<stop stop-color="#0059A2"/>
<stop offset="1" stop-color="#000E77"/>
</linearGradient>
<linearGradient id="paint22_linear_107_2419" x1="604.588" y1="257.689" x2="735.797" y2="257.689" gradientUnits="userSpaceOnUse">
<stop stop-color="#4CCCED"/>
<stop offset="1" stop-color="#39BDDD"/>
</linearGradient>
<linearGradient id="paint23_linear_107_2419" x1="393.979" y1="241.226" x2="393.979" y2="236.752" gradientUnits="userSpaceOnUse">
<stop stop-color="#4CCCED"/>
<stop offset="1" stop-color="#39BDDD"/>
</linearGradient>
<linearGradient id="paint24_linear_107_2419" x1="570.571" y1="261.692" x2="570.571" y2="242.725" gradientUnits="userSpaceOnUse">
<stop stop-color="#0059A2"/>
<stop offset="1" stop-color="#000E77"/>
</linearGradient>
<linearGradient id="paint25_linear_107_2419" x1="552.097" y1="207.016" x2="597.374" y2="207.016" gradientUnits="userSpaceOnUse">
<stop stop-color="#4CCCED"/>
<stop offset="1" stop-color="#39BDDD"/>
</linearGradient>
<linearGradient id="paint26_linear_107_2419" x1="120.216" y1="262.484" x2="120.216" y2="195.563" gradientUnits="userSpaceOnUse">
<stop offset="0.01" stop-color="#86F9FF"/>
<stop offset="1" stop-color="#4C51DD"/>
</linearGradient>
<linearGradient id="paint27_linear_107_2419" x1="57.2988" y1="196.762" x2="185.446" y2="196.762" gradientUnits="userSpaceOnUse">
<stop stop-color="#4CCCED"/>
<stop offset="1" stop-color="#39D0DD"/>
</linearGradient>
<linearGradient id="paint28_linear_107_2419" x1="94.5698" y1="265.245" x2="94.5698" y2="197.725" gradientUnits="userSpaceOnUse">
<stop stop-color="#239ABA"/>
<stop offset="1" stop-color="#3E47BE"/>
</linearGradient>
<linearGradient id="paint29_linear_107_2419" x1="163.246" y1="259.465" x2="163.246" y2="196.205" gradientUnits="userSpaceOnUse">
<stop stop-color="#239ABA"/>
<stop offset="1" stop-color="#3E47BE"/>
</linearGradient>
<linearGradient id="paint30_linear_107_2419" x1="138.37" y1="191.56" x2="161.576" y2="191.56" gradientUnits="userSpaceOnUse">
<stop stop-color="#4CFFED"/>
<stop offset="1" stop-color="#39D0DD"/>
</linearGradient>
<linearGradient id="paint31_linear_107_2419" x1="144.193" y1="193.336" x2="165.13" y2="193.336" gradientUnits="userSpaceOnUse">
<stop stop-color="#514DAE"/>
<stop offset="0.98" stop-color="#0037A9"/>
</linearGradient>
<linearGradient id="paint32_linear_107_2419" x1="88.0832" y1="216.671" x2="88.0832" y2="197.725" gradientUnits="userSpaceOnUse">
<stop stop-color="#2257AE"/>
<stop offset="0.98" stop-color="#0037A9"/>
</linearGradient>
<linearGradient id="paint33_linear_107_2419" x1="177.032" y1="223.628" x2="177.032" y2="196.205" gradientUnits="userSpaceOnUse">
<stop stop-color="#2257AE"/>
<stop offset="0.98" stop-color="#0037A9"/>
</linearGradient>
<linearGradient id="paint34_linear_107_2419" x1="115.485" y1="221.702" x2="115.485" y2="199.374" gradientUnits="userSpaceOnUse">
<stop stop-color="#2257AE"/>
<stop offset="0.98" stop-color="#0037A9"/>
</linearGradient>
<linearGradient id="paint35_linear_107_2419" x1="15.4467" y1="182.119" x2="15.4467" y2="141.316" gradientUnits="userSpaceOnUse">
<stop stop-color="#4C51DD"/>
<stop offset="0.99" stop-color="#86F9FF"/>
</linearGradient>
<linearGradient id="paint36_linear_107_2419" x1="15.7035" y1="182.119" x2="15.7035" y2="146.861" gradientUnits="userSpaceOnUse">
<stop stop-color="#3E47BE"/>
<stop offset="1" stop-color="#239ABA"/>
</linearGradient>
<linearGradient id="paint37_linear_107_2419" x1="23.4104" y1="155.187" x2="29.4046" y2="155.187" gradientUnits="userSpaceOnUse">
<stop stop-color="#4CCCED"/>
<stop offset="1" stop-color="#39D0DD"/>
</linearGradient>
<linearGradient id="paint38_linear_107_2419" x1="155.834" y1="87.5802" x2="103.021" y2="89.6927" gradientUnits="userSpaceOnUse">
<stop stop-color="#4CCCED"/>
<stop offset="1" stop-color="#39D0DD"/>
</linearGradient>
<linearGradient id="paint39_linear_107_2419" x1="130.066" y1="124.699" x2="127.226" y2="53.689" gradientUnits="userSpaceOnUse">
<stop stop-color="#1F4D95"/>
<stop offset="0.98" stop-color="#291689"/>
</linearGradient>
<linearGradient id="paint40_linear_107_2419" x1="189.834" y1="103.509" x2="189.834" y2="86.3615" gradientUnits="userSpaceOnUse">
<stop stop-color="#4CCCED"/>
<stop offset="1" stop-color="#39D0DD"/>
</linearGradient>
<linearGradient id="paint41_linear_107_2419" x1="188.956" y1="103.51" x2="188.956" y2="87.0469" gradientUnits="userSpaceOnUse">
<stop stop-color="#0E2463"/>
<stop offset="1" stop-color="#004D93"/>
</linearGradient>
<linearGradient id="paint42_linear_107_2419" x1="208.951" y1="212.175" x2="208.951" y2="184.688" gradientUnits="userSpaceOnUse">
<stop stop-color="#4C51DD"/>
<stop offset="0.99" stop-color="#57CFFF"/>
</linearGradient>
<linearGradient id="paint43_linear_107_2419" x1="208.951" y1="212.175" x2="208.951" y2="187.578" gradientUnits="userSpaceOnUse">
<stop stop-color="#3E47BE"/>
<stop offset="1" stop-color="#239ABA"/>
</linearGradient>
</defs>
</svg>
