<svg width="280" height="257" viewBox="0 0 280 257" fill="none" xmlns="http://www.w3.org/2000/svg">
<ellipse opacity="0.8" cx="139.659" cy="129.222" rx="137.55" ry="30.0892" transform="rotate(-19.6468 139.659 129.222)" fill="url(#paint0_radial_107_7158)"/>
<g filter="url(#filter0_f_107_7158)">
<circle cx="139.873" cy="128.671" r="81.6705" fill="#7ACFFF"/>
</g>
<path style="mix-blend-mode:screen" fill-rule="evenodd" clip-rule="evenodd" d="M189.267 78.9846C199.186 88.7671 205.977 101.275 208.779 114.922C211.58 128.569 210.266 142.741 205.002 155.64C199.739 168.539 190.764 179.585 179.214 187.376C167.665 195.168 154.062 199.354 140.13 199.404C126.199 199.454 112.566 195.366 100.961 187.658C89.3555 179.95 80.3007 168.969 74.9445 156.109C69.5883 143.248 68.1719 129.086 70.875 115.419C73.5781 101.752 80.2789 89.1952 90.1277 79.3415C96.6108 72.8031 104.319 67.6068 112.812 64.0498C121.305 60.4928 130.416 58.6449 139.623 58.6118C148.831 58.5786 157.955 60.3609 166.473 63.8566C174.991 67.3524 182.737 72.493 189.267 78.9846Z" fill="url(#paint1_radial_107_7158)"/>
<path fill-rule="evenodd" clip-rule="evenodd" d="M211.379 128.789C211.446 146.273 205.095 163.174 193.53 176.286C181.965 189.399 165.99 197.811 148.634 199.928C131.279 202.046 113.75 197.721 99.3716 187.773C84.9932 177.826 74.765 162.948 70.6268 145.96C69.2492 140.341 68.5553 134.575 68.5602 128.789C68.5741 126.196 68.7309 123.606 69.0299 121.03C69.199 119.433 69.4244 117.855 69.6875 116.296C71.5569 105.752 75.7741 95.7645 82.0268 87.0719C88.2794 78.3793 96.4074 71.2045 105.809 66.0789C115.21 60.9534 125.644 58.0083 136.338 57.4618C147.032 56.9152 157.712 58.7813 167.587 62.9217C180.562 68.3649 191.64 77.5211 199.428 89.2401C207.216 100.959 211.367 114.718 211.36 128.789H211.379Z" fill="url(#paint2_radial_107_7158)"/>
<path style="mix-blend-mode:multiply" opacity="0.2" fill-rule="evenodd" clip-rule="evenodd" d="M211.379 128.789C211.446 146.273 205.095 163.174 193.53 176.286C181.965 189.399 165.99 197.811 148.634 199.928C131.279 202.046 113.75 197.721 99.3716 187.773C84.9931 177.826 74.765 162.948 70.6268 145.96L71.2092 146.749C71.5791 147.273 71.8526 147.858 72.017 148.478C72.1298 148.835 72.111 149.248 72.2237 149.567C72.3364 149.887 72.8812 150.469 72.6558 149.774C72.9564 150.432 73.0315 151.033 73.3321 151.653C73.7402 152.576 74.0915 153.524 74.3842 154.49C74.6097 155.297 74.7599 156.124 75.0042 156.913C75.2484 157.702 75.6054 158.303 75.8872 159.017C76.7956 161.148 77.9494 163.166 79.3252 165.029C79.6634 165.536 79.87 166.119 80.227 166.607C80.5839 167.096 81.11 167.584 81.5045 168.11C81.9966 168.623 82.5674 169.054 83.1953 169.388C83.8153 169.763 84.3413 170.233 84.9237 170.646C85.9517 171.289 87.1508 171.603 88.3617 171.548C89.6897 171.37 91.0355 171.37 92.3634 171.548C94.6178 172.149 94.9184 175.118 96.1208 176.79C96.6566 177.475 97.4136 177.953 98.2625 178.142C99.2083 178.347 100.095 178.765 100.855 179.364C101.471 179.877 102.234 180.18 103.034 180.228C103.861 180.228 103.673 179.815 103.673 179.119C103.673 178.067 102.94 177.541 102.358 176.733C102.096 176.288 101.882 175.815 101.719 175.324C101.588 174.986 101.381 174.817 101.55 174.441C102.109 174.581 102.622 174.866 103.034 175.268C103.967 175.943 104.984 176.492 106.059 176.903C106.527 177.097 106.969 177.35 107.374 177.654C107.622 177.887 107.893 178.095 108.182 178.274C108.971 178.593 109.929 177.316 110.061 176.658C110.138 176.244 110.121 175.818 110.01 175.411C109.899 175.004 109.698 174.628 109.422 174.31C108.491 173.35 107.642 172.313 106.886 171.21C105.954 170.105 105.135 168.91 104.443 167.641C103.759 166.332 103.417 164.871 103.448 163.395C103.606 162.482 103.857 161.588 104.199 160.727C104.293 160.227 104.451 159.74 104.669 159.28C105.026 158.717 105.871 158.811 106.435 158.923C107.541 158.991 108.63 159.226 109.666 159.618C110.549 160.126 111.132 161.291 112.24 161.497C113.95 161.741 115.453 160.276 116.523 159.186C117.594 158.097 118.646 156.556 120.055 156.162C120.901 155.917 121.671 156.462 122.46 156.669C122.815 156.798 123.179 156.898 123.55 156.97C124.155 156.974 124.742 156.761 125.203 156.368C125.775 156.062 126.405 155.879 127.052 155.831C127.699 155.782 128.349 155.869 128.96 156.087C129.523 156.311 130.044 156.628 130.501 157.026C131.328 157.608 132.154 158.172 133 158.717C133.834 159.093 134.502 159.761 134.878 160.595C135.01 160.921 135.01 161.285 134.878 161.61C134.767 161.926 134.767 162.271 134.878 162.587C135.085 163.057 135.818 163.188 136.212 163.451C136.797 163.823 137.345 164.251 137.847 164.729C138.432 165.283 138.901 165.95 139.223 166.689C139.546 167.428 139.717 168.224 139.725 169.031C139.8 169.519 139.769 170.018 139.637 170.494C139.504 170.97 139.272 171.413 138.955 171.792C138.166 172.619 136.795 172.638 136.118 173.54C135.601 174.311 135.296 175.205 135.235 176.132C135.242 176.659 135.172 177.184 135.029 177.692C134.723 178.335 134.385 178.962 134.014 179.57C133.719 180.034 133.455 180.517 133.225 181.017C133.112 181.317 133.037 181.637 132.906 181.937C132.594 182.661 132.053 183.262 131.365 183.647C130.504 184.267 129.492 184.644 128.434 184.737C127.753 184.802 127.068 184.802 126.387 184.737C126.199 184.737 126.067 184.568 125.861 184.511C125.638 184.46 125.419 184.397 125.203 184.323C124.931 184.235 124.68 184.09 124.467 183.899C124.253 183.709 124.082 183.476 123.963 183.215C123.682 182.734 123.289 182.328 122.817 182.031C122.419 181.801 122.005 181.6 121.577 181.43C121.295 181.28 120.845 181.224 120.619 181.017C120.394 180.81 120.619 180.209 120.957 179.796C121.482 178.866 122.154 178.029 122.949 177.316C123.28 177.038 123.663 176.827 124.076 176.696C124.312 176.62 124.563 176.601 124.807 176.64C125.052 176.679 125.284 176.776 125.485 176.921C125.956 177.193 126.321 177.617 126.518 178.124C126.222 178.395 125.894 178.628 125.541 178.819C125.259 178.932 124.771 178.819 124.715 179.288C125.616 180.265 126.368 180.867 127.645 179.946C128.303 179.458 129.862 178.669 129.825 177.748C129.825 177.241 128.867 176.602 128.51 176.339C128.153 176.076 127.739 175.869 127.382 175.587C127.025 175.306 126.819 174.855 126.481 174.535C126.142 174.216 125.692 173.878 125.316 173.54C124.976 173.269 124.595 173.054 124.189 172.901C123.807 172.638 123.397 172.418 122.967 172.243C122.364 172.009 121.732 171.858 121.089 171.792C120.425 171.928 119.795 172.196 119.237 172.58C118.678 172.964 118.203 173.457 117.839 174.028C117.219 174.817 115.96 176.358 116.392 177.466C116.542 177.917 116.993 178.105 117.181 178.481C117.282 178.723 117.358 178.974 117.406 179.232C117.557 179.871 117.406 180.491 117.594 181.111C118.214 183.083 118.534 185.394 120.525 186.428C120.825 186.604 121.139 186.755 121.464 186.878C121.821 186.878 122.235 186.991 122.592 187.123C123.285 187.469 124.017 187.733 124.771 187.912C125.683 188.069 126.607 188.15 127.533 188.156C128.8 188.306 130.085 188.164 131.29 187.743C131.889 187.384 132.433 186.941 132.906 186.428C133.39 185.79 133.683 185.027 133.751 184.229C133.92 183.534 133.883 182.351 134.446 181.881C135.01 181.411 135.686 181.317 136.193 180.829C136.94 180.051 137.572 179.172 138.072 178.218C138.692 176.978 139.556 175.888 140.233 174.667C140.625 173.894 141.132 173.185 141.736 172.563C142.32 172.095 143.036 171.819 143.783 171.774C144.427 171.695 145.058 171.537 145.662 171.304C146.263 171.079 146.958 170.816 147.541 170.553C148.027 170.229 148.469 169.844 148.856 169.407C149.932 168.536 151.237 167.995 152.613 167.847C153.105 167.707 153.625 167.707 154.116 167.847C154.557 168.032 155.009 168.189 155.469 168.317C156.142 168.559 156.864 168.637 157.573 168.542C159.922 167.847 158.306 165.743 157.893 164.184C157.248 161.039 156.996 157.827 157.141 154.621C157.002 153.573 157.066 152.508 157.329 151.484C157.498 151.033 157.554 150.544 157.761 150.093C157.968 149.643 158.249 149.567 158.362 149.286C158.475 149.004 158.475 148.515 159.095 148.196C159.682 147.922 160.327 147.8 160.974 147.839C162.908 147.596 164.872 147.756 166.741 148.309C167.453 148.685 168.121 149.139 168.733 149.661C169.409 150.169 169.935 150.544 170.01 151.54C170.016 152.075 170.187 152.595 170.5 153.029C170.812 153.463 171.252 153.789 171.757 153.964C172.728 154.305 173.738 154.52 174.763 154.602C175.383 154.484 176.011 154.408 176.642 154.377C176.83 154.377 177.055 154.565 177.187 154.584C177.524 154.553 177.851 154.451 178.145 154.283C178.81 154.03 179.519 153.915 180.23 153.945C181.621 153.945 182.109 153.062 183.011 152.235C183.941 151.233 185.217 150.622 186.58 150.526C187.44 150.418 188.256 150.088 188.949 149.567C189.641 149.046 190.184 148.353 190.526 147.557C191.803 145.265 192.987 142.278 191.972 139.685C191.497 138.778 190.93 137.922 190.281 137.13C189.741 136.203 189.353 135.194 189.135 134.143C188.967 133.633 188.682 133.17 188.304 132.788C187.926 132.407 187.464 132.118 186.956 131.945C186.167 131.739 185.322 131.945 184.702 131.25C184.075 130.639 183.52 129.958 183.048 129.221C182.474 128.053 182.184 126.765 182.203 125.464C182.197 125.202 182.132 124.946 182.015 124.712C182.015 124.43 182.015 124.111 182.015 123.81C181.865 122.965 181.602 122.12 181.433 121.237C181.067 120.262 180.821 119.246 180.7 118.212C180.746 117.353 181.123 116.545 181.752 115.957C182.42 115.377 182.996 114.699 183.462 113.947C183.753 113.58 183.993 113.176 184.176 112.745C184.279 112.32 184.336 111.886 184.345 111.449C184.412 111.119 184.58 110.82 184.826 110.591C185.072 110.362 185.383 110.215 185.716 110.171C186.148 110.171 186.58 110.171 187.012 110.171C187.645 110.046 188.215 109.708 188.628 109.213C189.318 107.939 189.543 106.464 189.267 105.042C189.267 103.596 188.252 102.919 187.52 101.83C187.14 101.292 186.926 100.656 186.902 99.9987C186.879 99.3413 187.048 98.6914 187.388 98.1286C187.707 97.7153 188.196 97.4335 188.365 96.8511C188.435 96.1642 188.284 95.4729 187.933 94.8784C187.464 93.8883 186.828 92.986 186.054 92.2107C185.775 91.8653 185.565 91.47 185.434 91.0459C185.152 90.4823 184.796 90.0126 184.551 89.449C184.369 89.0052 184.108 88.598 183.781 88.2466C183.574 88.0587 183.48 87.8145 183.293 87.6078C182.804 87.0254 182.09 86.7249 181.639 86.0861C181.248 85.5348 180.884 84.9642 180.55 84.3765C180.314 83.7795 180.212 83.1384 180.249 82.4978C180.146 81.6955 179.828 80.9361 179.328 80.2997C179.15 79.988 178.935 79.698 178.69 79.4355C178.288 78.9476 177.93 78.4259 177.619 77.8762C177.235 77.3951 176.729 77.0254 176.153 76.8053C175.909 76.655 175.834 76.5611 175.534 76.6174C175.069 76.8058 174.652 77.0945 174.312 77.4629C173.632 78.0193 172.836 78.4172 171.983 78.6276C171.156 78.9095 170.292 79.1537 169.447 79.3979C168.601 79.6421 167.211 79.7549 166.084 80.0179C164.581 80.3936 163.19 80.6942 162.477 82.1596C162.122 83.2819 162.019 84.4687 162.176 85.6352C162.129 86.0409 162.129 86.4507 162.176 86.8564C162.307 87.4575 162.627 88.0024 162.74 88.5848C162.924 90.2166 162.678 91.8684 162.026 93.3755C161.489 94.8441 160.567 96.1417 159.358 97.1329C157.836 98.5419 155.6 98.5231 153.722 99.3309C152.501 99.8758 150.66 100.627 150.321 102.074C150.077 103.182 150.697 103.953 150.904 104.873C151.035 105.531 150.904 106.207 151.054 106.752C151.204 107.297 151.054 107.954 150.34 108.499C149.953 108.739 149.651 109.093 149.476 109.514C149.382 109.777 149.476 110.058 149.476 110.321C149.408 110.549 149.283 110.755 149.112 110.92C148.94 111.085 148.729 111.202 148.499 111.261C147.73 111.361 146.982 111.583 146.282 111.918C145.662 112.313 145.418 112.952 144.648 113.102C144.096 113.214 143.527 113.214 142.976 113.102C141.937 113.051 140.903 112.945 139.876 112.782C138.116 112.365 136.311 112.163 134.503 112.181C133.037 112.181 132.192 112.651 130.745 111.824C129.862 111.298 128.979 110.716 128.059 110.246C127.138 109.777 125.879 109.344 124.771 108.912C123.128 108.298 121.454 107.771 119.755 107.334C118.109 106.618 116.668 105.5 115.565 104.084C114.309 102.924 113.393 101.443 112.916 99.8006C112.7 98.823 112.7 97.8099 112.916 96.8323C113.255 94.4275 112.015 92.2107 112.39 89.8247C112.613 87.3111 113.156 84.8363 114.006 82.4602C114.457 81.4269 115.227 80.5815 115.734 79.6609C116.347 78.7617 117.249 78.0989 118.289 77.7822C119.033 77.3814 119.852 77.1384 120.694 77.0683C121.727 77.0683 121.427 77.7071 121.765 78.4022C122.04 78.8588 122.404 79.255 122.836 79.567C123.681 80.3373 124.903 79.567 125.729 79.041C126.556 78.5149 128.04 77.3126 129.28 77.6131C130.219 77.8386 131.159 78.2519 131.966 77.6131C132.289 77.4378 132.531 77.1432 132.64 76.7922C132.748 76.4413 132.716 76.0617 132.549 75.7344C131.816 74.5321 130.069 74.4945 128.791 74.5133C127.343 74.4601 125.893 74.5103 124.452 74.6636C123.586 74.8791 122.689 74.9364 121.803 74.8327C120.893 74.5541 120.018 74.1761 119.191 73.7054C118.507 73.4911 117.785 73.4239 117.072 73.5081C116.36 73.5922 115.674 73.826 115.058 74.1939C113.28 74.7717 111.802 76.0274 110.944 77.6883C110.565 79.1595 110.419 80.6809 110.512 82.1972C110.461 82.8976 110.335 83.5904 110.136 84.2638C109.734 85.2145 109.175 86.091 108.483 86.8564C107.897 87.5291 107.464 88.321 107.214 89.1773C106.965 90.0336 106.904 90.934 107.036 91.8161C107.195 92.4528 107.1 93.1262 106.773 93.6948C106.379 94.2923 106.033 94.9206 105.74 95.5735C105.571 96.2123 106.022 96.325 106.491 96.7008C107.094 97.1829 107.533 97.8388 107.75 98.5795C107.902 99.4293 107.805 100.305 107.472 101.101C107.139 101.898 106.583 102.581 105.871 103.07C104.969 103.746 103.711 103.99 103.053 104.948C102.715 105.474 102.396 106.038 102.076 106.583C101.567 107.387 100.818 108.012 99.9346 108.368C98.9576 108.837 97.8116 108.912 97.0226 109.701C96.6337 110.137 96.3281 110.64 96.1208 111.186C95.7075 112.087 95.1814 112.933 94.7118 113.816C94.3191 114.607 93.6972 115.262 92.927 115.694C91.9125 116.258 90.9168 116.765 89.9399 117.404C88.9901 118.15 88.1211 118.994 87.3472 119.922C86.3702 120.801 85.1539 121.369 83.8529 121.556C81.8802 121.988 79.87 122.533 77.8786 122.834C76.1966 123.22 74.4436 123.168 72.7873 122.683C71.4988 122.225 70.2433 121.679 69.0299 121.049C70.9056 102.806 79.7298 85.9846 93.6729 74.0721C107.616 62.1596 125.609 56.0698 143.921 57.0651C162.233 58.0604 179.459 66.0646 192.029 79.4181C204.599 92.7716 211.548 110.45 211.436 128.789H211.379Z" fill="url(#paint3_linear_107_7158)"/>
<path fill-rule="evenodd" clip-rule="evenodd" d="M167.587 62.9217C167.399 62.9217 164.186 62.3393 161.255 61.9635C158.325 61.5878 158.775 60.2915 156.145 59.5588C153.463 58.7886 150.714 58.2728 147.935 58.0182C146.84 58.4864 145.669 58.7536 144.479 58.8073C142.75 58.8073 139.613 58.5631 137.321 58.8073C135.029 59.0515 131.234 57.9807 129.806 59.0891C128.378 60.1975 123.362 61.6254 119.548 62.715C116.883 63.3642 114.344 64.4497 112.033 65.9276C109.215 67.5433 107.957 69.685 104.65 71.8831C101.344 74.0812 99.7842 73.4236 97.5674 73.9121C95.3505 74.4005 96.008 74.532 92.6827 77.0307C89.3574 79.5294 89.2447 81.9153 87.5351 84.1134C85.778 86.0676 83.8545 87.8653 81.7863 89.4865L79.1749 94.3711L76.9956 98.1285C76.9956 98.1285 78.5549 100.496 75.1169 104.272C71.6788 108.048 69.6123 116.258 69.6123 116.258C71.4837 105.708 75.7056 95.7153 81.9651 87.0196C88.2246 78.3239 96.3611 71.1486 105.771 66.0258C115.182 60.9029 125.624 57.9639 136.325 57.4265C147.026 56.8892 157.71 58.7673 167.587 62.9217Z" fill="#B5FFFF"/>
<path fill-rule="evenodd" clip-rule="evenodd" d="M150.754 199.391C150.754 199.391 156.183 195.464 156.69 192.045C157.197 188.626 154.098 188.288 153.929 186.24C153.759 184.192 157.911 178.631 158.494 174.968C159.149 171.891 158.647 168.68 157.085 165.95C155.638 163.883 147.579 160.126 146.339 155.786C145.099 151.446 137.809 145.998 137.903 141.677C137.997 137.356 141.661 133.862 142.224 127.587C142.788 121.312 141.679 119.433 141.679 119.433C143.009 122.147 143.537 125.184 143.201 128.188C142.882 133.824 138.711 137.75 138.392 141.771C138.072 145.791 147.315 153.907 147.503 155.279C147.491 155.953 147.631 156.621 147.914 157.233C148.197 157.845 148.616 158.384 149.138 158.811C150.754 160.502 156.784 164.127 158.325 166.607C159.865 169.087 161.688 167.058 162.082 163.47C162.477 159.882 162.082 155.072 164.468 152.724C166.854 150.375 168.564 150.187 169.221 146.731C169.879 143.274 169.935 140.456 168.432 138.126C166.929 135.797 164.111 134.106 164.468 131.062C164.265 124.525 162.27 118.169 158.7 112.689C156.589 110.231 155.06 107.328 154.229 104.197C155.547 107.362 157.46 110.245 159.865 112.689C163.717 116.446 164.487 130.217 165.182 132.622C165.877 135.026 168.564 133.599 169.634 140.136C170.705 146.674 169.522 149.361 168.413 150.601C167.305 151.841 164.562 152.592 163.641 154.358C162.721 156.124 163.078 163.639 162.852 165.95C162.627 168.261 160.861 168.599 160.016 170.477C159.17 172.356 159.471 174.742 156.991 180.002C154.511 185.263 154.755 186.803 156.991 188.738C159.226 190.673 165.257 190.937 165.746 192.346C166.234 193.755 163.867 194.994 164.017 195.521C164.167 196.047 167.042 194.938 167.042 194.938C161.815 197.082 156.345 198.578 150.754 199.391Z" fill="#DAFFFF"/>
<path fill-rule="evenodd" clip-rule="evenodd" d="M90.5599 180.359C90.5599 180.359 99.9534 183.459 103.016 180.115C106.078 176.771 104.894 173.089 105.702 167.847C106.51 162.606 106.717 160.746 110.831 159.074C114.945 157.402 118.797 158.022 120.225 155.185C121.913 152.531 123.892 150.074 126.124 147.858C126.124 147.858 121.389 151.972 120.938 155.786C120.488 159.6 112.24 156.368 108.22 161.535C105.383 165.142 107.882 173.652 105.702 178.894C103.523 184.136 94.43 183.478 94.43 183.478C93.0015 182.623 91.699 181.573 90.5599 180.359Z" fill="#DAFFFF"/>
<path fill-rule="evenodd" clip-rule="evenodd" d="M211.379 128.789C211.41 145.462 205.578 161.615 194.903 174.423C193.444 172.423 192.672 170.003 192.705 167.528C192.461 160.332 192.498 156.838 189.887 151.972C187.275 147.106 184.251 149.586 183.556 144.176C182.934 140.304 181.856 136.521 180.343 132.903C181.697 134.816 182.802 136.893 183.631 139.084C184.025 140.963 183.631 144.476 184.645 146.261C185.66 148.046 188.985 149.417 190.281 150.432C191.578 151.446 192.874 157.364 192.874 160.257C192.874 163.15 194.959 163.564 195.767 163.489C197.96 162.092 199.753 160.15 200.971 157.852C201.366 156.331 205.217 147.163 202.023 142.936C198.829 138.709 195.485 139.723 193.081 136.229C190.676 132.734 189.267 133.035 183.105 129.24C183.593 129.447 187.614 131.119 190.619 132.809C193.625 134.5 193.531 135.966 195.279 137.581C197.026 139.197 199.9 139.779 201.554 140.888C203.207 141.996 204.184 146.956 205.311 148.91C206.438 150.864 210.045 147.858 208.824 140.324C207.603 132.791 204.729 132.941 204.296 129.803C203.864 126.666 207.904 128.507 209.313 125.313C210.722 122.12 208.805 116.746 207.866 114.229C206.927 111.712 204.296 110.603 201.347 108.33C198.397 106.057 199.036 104.836 195.335 102.694C192.954 101.484 190.353 100.769 187.689 100.59C190.337 100.669 192.973 100.996 195.56 101.567C198.022 102.356 199.487 106.207 201.347 107.616C203.207 109.025 206.645 109.495 207.19 108.236C207.734 106.977 206.927 103.765 204.146 99.857C202.204 96.6936 200.717 93.2719 199.731 89.6932C207.353 101.306 211.403 114.898 211.379 128.789Z" fill="#DAFFFF"/>
<path fill-rule="evenodd" clip-rule="evenodd" d="M68.5602 130.067C70.2807 131.014 72.1281 131.71 74.046 132.133C76.0374 132.34 79.0058 130.874 82.4814 130.574C85.957 130.273 89.7895 131.645 92.9082 131.363C92.9082 131.363 87.629 131.588 85.5249 131.363C84.2873 131.126 83.026 131.038 81.7675 131.1C79.2876 131.1 76.8453 132.546 74.4781 132.979C72.111 133.411 72.0922 132.396 70.4013 133.242C68.7105 134.087 68.7857 135.214 68.7857 135.214C68.7857 135.214 68.579 130.78 68.5602 130.067Z" fill="#DAFFFF"/>
<path fill-rule="evenodd" clip-rule="evenodd" d="M72.4867 105.343C78.0119 109.362 84.3782 112.073 91.1047 113.271C95.0875 113.966 99.7467 112.595 101.945 116.822C103.467 119.752 109.121 120.748 109.121 120.748C106.973 120.913 104.829 120.372 103.016 119.208C100.273 117.329 101.888 115.732 98.2813 114.473C94.6742 113.215 92.8143 114.379 90.3344 113.985C87.8545 113.59 81.7675 109.701 80.0391 111.355C78.3107 113.008 80.49 115.601 83.5523 117.761C86.6146 119.922 90.0338 118.25 92.1755 118.813C93.0874 119.009 93.9802 119.286 94.8433 119.64C94.8433 119.64 92.9646 119.396 90.0714 119.208C87.1782 119.02 86.7837 120.26 84.6044 119.208C82.1262 117.819 80.0885 115.762 78.724 113.271C77.6907 111.186 78.0665 109.758 76.3381 108.33C74.6097 106.902 71.5286 108.33 71.5286 108.33L72.4867 105.343Z" fill="#DAFFFF"/>
<path fill-rule="evenodd" clip-rule="evenodd" d="M154.304 59.0892C154.304 59.0892 157.817 63.7671 157.817 65.5707C157.817 69.8917 155.15 74.1564 154.06 76.8429C153.185 79.0313 152.72 81.3622 152.689 83.719V87.777C152.693 85.5712 152.938 83.3725 153.421 81.2203C154.135 79.0973 155.544 78.9283 155.939 77.3126C156.333 75.6969 155.713 73.7618 156.69 71.3195C157.667 68.8772 158.569 68.8208 158.569 67.1488C158.569 65.4768 158.381 62.7714 159.865 62.0012C160.87 61.5298 161.952 61.2435 163.059 61.1557C160.224 60.1519 157.289 59.4589 154.304 59.0892Z" fill="#DAFFFF"/>
<path fill-rule="evenodd" clip-rule="evenodd" d="M111.714 63.1284C111.714 63.1284 113.029 63.786 113.95 67.5246C114.046 69.2687 114.774 70.918 115.997 72.165C117.424 73.3951 118.592 74.8957 119.435 76.5799C119.905 77.9138 120.619 80.7694 120.619 80.7694C119.977 78.8087 119.133 76.9199 118.102 75.1333C117.068 73.8746 116.843 74.2879 115.734 73.2546C114.626 72.2213 114.908 71.3759 113.856 68.6706C112.804 65.9653 108.483 64.6502 108.483 64.6502L111.714 63.1284Z" fill="#DAFFFF"/>
<defs>
<filter id="filter0_f_107_7158" x="11.6661" y="0.464077" width="256.413" height="256.413" filterUnits="userSpaceOnUse" color-interpolation-filters="sRGB">
<feFlood flood-opacity="0" result="BackgroundImageFix"/>
<feBlend mode="normal" in="SourceGraphic" in2="BackgroundImageFix" result="shape"/>
<feGaussianBlur stdDeviation="23.268" result="effect1_foregroundBlur_107_7158"/>
</filter>
<radialGradient id="paint0_radial_107_7158" cx="0" cy="0" r="1" gradientUnits="userSpaceOnUse" gradientTransform="translate(139.659 129.222) scale(137.55 30.0892)">
<stop offset="0.924224" stop-color="#D9D9D9" stop-opacity="0"/>
<stop offset="1" stop-color="#7ACFFF"/>
</radialGradient>
<radialGradient id="paint1_radial_107_7158" cx="0" cy="0" r="1" gradientUnits="userSpaceOnUse" gradientTransform="translate(146.968 118.437) rotate(-45) scale(70.2251 69.6375)">
<stop stop-color="#40CCFF"/>
<stop offset="0.22" stop-color="#3FCAFC"/>
<stop offset="0.36" stop-color="#3DC3F4"/>
<stop offset="0.47" stop-color="#3AB8E5"/>
<stop offset="0.57" stop-color="#34A7D1"/>
<stop offset="0.66" stop-color="#2E92B6"/>
<stop offset="0.75" stop-color="#267896"/>
<stop offset="0.83" stop-color="#1C596F"/>
<stop offset="0.91" stop-color="#103442"/>
<stop offset="0.98" stop-color="#040D10"/>
<stop offset="1"/>
</radialGradient>
<radialGradient id="paint2_radial_107_7158" cx="0" cy="0" r="1" gradientUnits="userSpaceOnUse" gradientTransform="translate(121.126 103.558) scale(147.854 147.854)">
<stop stop-color="#5ECEFF"/>
<stop offset="0.12" stop-color="#7DDCFF"/>
<stop offset="0.26" stop-color="#9AE9FF"/>
<stop offset="0.41" stop-color="#B1F3FF"/>
<stop offset="0.57" stop-color="#C1FAFF"/>
<stop offset="0.75" stop-color="#CAFEFF"/>
<stop offset="0.99" stop-color="#CDFFFF"/>
</radialGradient>
<linearGradient id="paint3_linear_107_7158" x1="140.176" y1="200.198" x2="140.176" y2="57.3607" gradientUnits="userSpaceOnUse">
<stop stop-color="#E8DDFF"/>
<stop offset="1" stop-color="#AA8AD8"/>
</linearGradient>
</defs>
</svg>
