<svg width="1451" height="171" viewBox="0 0 1451 171" fill="none" xmlns="http://www.w3.org/2000/svg">
<g filter="url(#filter0_dii_107_802)">
<rect x="4.47205" y="46.4031" width="1442.83" height="63.3352" rx="16.9001" transform="rotate(0.565803 4.47205 46.4031)" fill="#D9D9D9" fill-opacity="0.1" shape-rendering="crispEdges"/>
</g>
<g opacity="0.8">
<path d="M33.1902 76.6925C35.1541 77.4002 36.2351 78.8187 36.2067 81.6966C36.165 85.9197 33.3299 87.894 29.9827 87.8609C27.6052 87.8375 16.5939 87.7288 16.5939 87.7288L16.8101 65.8313L25.225 65.9144C25.8506 65.9205 26.7265 65.9292 27.9465 65.9412C32.4824 65.986 35.4047 67.8607 35.3612 72.2715C35.3377 74.6489 34.574 75.9553 33.1902 76.6925ZM26.5272 70.2759C25.3072 70.2638 22.179 70.2329 21.5221 70.2264L21.4767 74.8249C23.2285 74.8422 25.4808 74.8644 26.7008 74.8765C28.8905 74.8981 30.6745 74.8219 30.6962 72.6321C30.7178 70.4424 28.8421 70.2987 26.5272 70.2759ZM27.3976 83.5181C29.7438 83.5412 31.5284 83.4024 31.5506 81.1501C31.571 79.0855 30.2606 78.7284 28.0708 78.7068C26.5693 78.692 22.7216 78.654 21.439 78.6413L21.3914 83.4588L25.3643 83.498C27.2412 83.5165 25.8022 83.5023 27.3976 83.5181ZM54.2004 81.9368L54.3557 66.2019L59.1106 66.2489L58.8944 88.1464L52.0437 88.0787L42.5951 72.2803L42.0633 72.275L41.9083 87.9787L37.1534 87.9317L37.3695 66.0343L43.7824 66.0976L43.7821 66.1288L44.22 66.1332L53.6373 81.9313L54.2004 81.9368ZM77.4069 80.0073L82.3495 80.056C81.8633 84.9317 77.575 88.3308 71.475 88.2705C65.1873 88.2085 60.4385 84.3761 60.5107 77.0561C60.5818 69.8612 65.4068 65.9669 71.6946 66.029C77.7946 66.0892 82.1379 69.7924 82.4044 74.4878L77.4619 74.439C76.7971 72.0548 75.1816 70.9126 71.6467 70.8777C67.8928 70.8406 65.2773 72.7545 65.2343 77.1027C65.1914 81.4509 67.769 83.3848 71.5229 83.4218C75.1829 83.458 76.7912 82.1599 77.4069 80.0073ZM100.991 80.2401L105.933 80.2889C105.447 85.1645 101.159 88.5636 95.0588 88.5034C88.7711 88.4413 84.0223 84.6089 84.0945 77.2889C84.1656 70.094 88.9906 66.1997 95.2783 66.2618C101.378 66.322 105.722 70.0252 105.988 74.7206L101.046 74.6719C100.381 72.2876 98.7653 71.1454 95.2305 71.1105C91.4766 71.0734 88.8611 72.9873 88.8181 77.3355C88.7752 81.6837 91.3528 83.6176 95.1066 83.6546C98.7666 83.6908 100.375 82.3927 100.991 80.2401Z" fill="white"/>
<path d="M387.727 80.1925C389.691 80.9002 390.772 82.3187 390.744 85.1966C390.702 89.4197 387.867 91.394 384.52 91.3609C382.142 91.3375 371.131 91.2288 371.131 91.2288L371.347 69.3313L379.762 69.4144C380.387 69.4205 381.263 69.4292 382.483 69.4412C387.019 69.486 389.942 71.3607 389.898 75.7715C389.875 78.1489 389.111 79.4553 387.727 80.1925ZM381.064 73.7759C379.844 73.7638 376.716 73.7329 376.059 73.7264L376.013 78.3249C377.765 78.3422 380.018 78.3644 381.238 78.3765C383.427 78.3981 385.211 78.3219 385.233 76.1321C385.255 73.9424 383.379 73.7987 381.064 73.7759ZM381.934 87.0181C384.281 87.0412 386.065 86.9024 386.087 84.6501C386.108 82.5855 384.797 82.2284 382.608 82.2068C381.106 82.192 377.258 82.154 375.976 82.1413L375.928 86.9588L379.901 86.998C381.778 87.0165 380.339 87.0023 381.934 87.0181ZM408.737 85.4368L408.893 69.7019L413.647 69.7489L413.431 91.6464L406.58 91.5787L397.132 75.7803L396.6 75.775L396.445 91.4787L391.69 91.4317L391.906 69.5343L398.319 69.5976L398.319 69.6288L398.757 69.6332L408.174 85.4313L408.737 85.4368ZM431.944 83.5073L436.886 83.556C436.4 88.4317 432.112 91.8308 426.012 91.7705C419.724 91.7085 414.975 87.8761 415.048 80.5561C415.119 73.3612 419.944 69.4669 426.231 69.529C432.331 69.5892 436.675 73.2924 436.941 77.9878L431.999 77.939C431.334 75.5548 429.718 74.4126 426.184 74.3777C422.43 74.3406 419.814 76.2545 419.771 80.6027C419.728 84.9509 422.306 86.8848 426.06 86.9218C429.72 86.958 431.328 85.6599 431.944 83.5073ZM455.527 83.7401L460.47 83.7889C459.984 88.6645 455.696 92.0636 449.596 92.0034C443.308 91.9413 438.559 88.1089 438.631 80.7889C438.702 73.594 443.527 69.6997 449.815 69.7618C455.915 69.822 460.259 73.5252 460.525 78.2206L455.582 78.1719C454.918 75.7876 453.302 74.6454 449.767 74.6105C446.013 74.5735 443.398 76.4873 443.355 80.8355C443.312 85.1837 445.89 87.1176 449.643 87.1546C453.303 87.1908 454.912 85.8927 455.527 83.7401Z" fill="white"/>
<path d="M742.265 83.6925C744.229 84.4001 745.31 85.8186 745.282 88.6966C745.24 92.9197 742.405 94.8939 739.058 94.8609C736.68 94.8374 725.669 94.7287 725.669 94.7287L725.885 72.8312L734.3 72.9143C734.926 72.9205 735.801 72.9291 737.021 72.9412C741.557 72.9859 744.48 74.8606 744.436 79.2714C744.413 81.6488 743.649 82.9553 742.265 83.6925ZM735.602 77.2758C734.382 77.2638 731.254 77.2329 730.597 77.2264L730.552 81.8249C732.303 81.8421 734.556 81.8644 735.776 81.8764C737.965 81.898 739.749 81.8218 739.771 79.6321C739.793 77.4423 737.917 77.2986 735.602 77.2758ZM736.473 90.518C738.819 90.5412 740.603 90.4024 740.626 88.1501C740.646 86.0854 739.335 85.7284 737.146 85.7067C735.644 85.6919 731.796 85.6539 730.514 85.6413L730.466 90.4587L734.439 90.4979C736.316 90.5165 734.877 90.5023 736.473 90.518ZM763.275 88.9368L763.431 73.2019L768.186 73.2488L767.969 95.1463L761.119 95.0787L751.67 79.2802L751.138 79.275L750.983 94.9786L746.228 94.9317L746.444 73.0342L752.857 73.0975L752.857 73.1288L753.295 73.1331L762.712 88.9312L763.275 88.9368ZM786.482 87.0072L791.424 87.056C790.938 91.9317 786.65 95.3307 780.55 95.2705C774.262 95.2084 769.513 91.376 769.586 84.056C769.657 76.8611 774.482 72.9668 780.769 73.0289C786.869 73.0891 791.213 76.7924 791.479 81.4878L786.537 81.439C785.872 79.0547 784.256 77.9125 780.722 77.8776C776.968 77.8406 774.352 79.7544 774.309 84.1026C774.266 88.4509 776.844 90.3847 780.598 90.4218C784.258 90.4579 785.866 89.1598 786.482 87.0072ZM810.066 87.24L815.008 87.2888C814.522 92.1645 810.234 95.5635 804.134 95.5033C797.846 95.4412 793.097 91.6088 793.169 84.2888C793.24 77.0939 798.066 73.1996 804.353 73.2617C810.453 73.3219 814.797 77.0252 815.063 81.7206L810.121 81.6718C809.456 79.2876 807.84 78.1453 804.305 78.1104C800.552 78.0734 797.936 79.9872 797.893 84.3355C797.85 88.6837 800.428 90.6175 804.182 90.6546C807.842 90.6907 809.45 89.3926 810.066 87.24Z" fill="white"/>
<path d="M1096.8 87.1924C1098.77 87.9001 1099.85 89.3186 1099.82 92.1965C1099.78 96.4196 1096.94 98.3939 1093.59 98.3608C1091.22 98.3374 1080.21 98.2287 1080.21 98.2287L1080.42 76.3312L1088.84 76.4142C1089.46 76.4204 1090.34 76.4291 1091.56 76.4411C1096.09 76.4859 1099.02 78.3606 1098.97 82.7713C1098.95 85.1488 1098.19 86.4552 1096.8 87.1924ZM1090.14 80.7757C1088.92 80.7637 1085.79 80.7328 1085.13 80.7263L1085.09 85.3248C1086.84 85.3421 1089.09 85.3643 1090.31 85.3764C1092.5 85.398 1094.29 85.3217 1094.31 83.132C1094.33 80.9422 1092.45 80.7986 1090.14 80.7757ZM1091.01 94.0179C1093.36 94.0411 1095.14 93.9023 1095.16 91.65C1095.18 89.5854 1093.87 89.2283 1091.68 89.2067C1090.18 89.1919 1086.33 89.1539 1085.05 89.1412L1085 93.9587L1088.98 93.9979C1090.85 94.0164 1089.41 94.0022 1091.01 94.0179ZM1117.81 92.4367L1117.97 76.7018L1122.72 76.7488L1122.51 98.6462L1115.66 98.5786L1106.21 82.7802L1105.68 82.7749L1105.52 98.4785L1100.77 98.4316L1100.98 76.5341L1107.39 76.5974L1107.39 76.6287L1107.83 76.633L1117.25 92.4312L1117.81 92.4367ZM1141.02 90.5071L1145.96 90.5559C1145.48 95.4316 1141.19 98.8306 1135.09 98.7704C1128.8 98.7084 1124.05 94.876 1124.12 87.556C1124.19 80.3611 1129.02 76.4668 1135.31 76.5288C1141.41 76.5891 1145.75 80.2923 1146.02 84.9877L1141.07 84.9389C1140.41 82.5547 1138.79 81.4125 1135.26 81.3776C1131.5 81.3405 1128.89 83.2544 1128.85 87.6026C1128.8 91.9508 1131.38 93.8846 1135.13 93.9217C1138.79 93.9578 1140.4 92.6597 1141.02 90.5071ZM1164.6 90.7399L1169.55 90.7887C1169.06 95.6644 1164.77 99.0635 1158.67 99.0032C1152.38 98.9412 1147.63 95.1088 1147.71 87.7888C1147.78 80.5939 1152.6 76.6996 1158.89 76.7617C1164.99 76.8219 1169.33 80.5251 1169.6 85.2205L1164.66 85.1717C1163.99 82.7875 1162.38 81.6453 1158.84 81.6104C1155.09 81.5733 1152.47 83.4872 1152.43 87.8354C1152.39 92.1836 1154.96 94.1175 1158.72 94.1545C1162.38 94.1906 1163.99 92.8925 1164.6 90.7399Z" fill="white"/>
<path d="M210.459 78.4425C212.423 79.1502 213.504 80.5687 213.475 83.4466C213.434 87.6697 210.598 89.644 207.251 89.6109C204.874 89.5875 193.863 89.4788 193.863 89.4788L194.079 67.5813L202.494 67.6644C203.119 67.6705 203.995 67.6792 205.215 67.6912C209.751 67.736 212.673 69.6107 212.63 74.0215C212.606 76.3989 211.843 77.7053 210.459 78.4425ZM203.796 72.0259C202.576 72.0138 199.448 71.9829 198.791 71.9764L198.745 76.5749C200.497 76.5922 202.749 76.6144 203.969 76.6265C206.159 76.6481 207.943 76.5719 207.965 74.3821C207.986 72.1924 206.111 72.0487 203.796 72.0259ZM204.666 85.2681C207.012 85.2912 208.797 85.1524 208.819 82.9001C208.84 80.8355 207.529 80.4784 205.339 80.4568C203.838 80.442 199.99 80.404 198.708 80.3913L198.66 85.2088L202.633 85.248C204.51 85.2665 203.071 85.2523 204.666 85.2681ZM231.469 83.6868L231.624 67.9519L236.379 67.9989L236.163 89.8964L229.312 89.8287L219.864 74.0303L219.332 74.025L219.177 89.7287L214.422 89.6817L214.638 67.7843L221.051 67.8476L221.051 67.8788L221.489 67.8832L230.906 83.6813L231.469 83.6868ZM254.675 81.7573L259.618 81.806C259.132 86.6817 254.844 90.0808 248.744 90.0205C242.456 89.9585 237.707 86.1261 237.779 78.8061C237.85 71.6112 242.675 67.7169 248.963 67.779C255.063 67.8392 259.407 71.5424 259.673 76.2378L254.73 76.189C254.066 73.8048 252.45 72.6626 248.915 72.6277C245.161 72.5906 242.546 74.5045 242.503 78.8527C242.46 83.2009 245.038 85.1348 248.791 85.1718C252.451 85.208 254.06 83.9099 254.675 81.7573ZM278.259 81.9901L283.202 82.0389C282.716 86.9145 278.427 90.3136 272.327 90.2534C266.04 90.1913 261.291 86.3589 261.363 79.0389C261.434 71.844 266.259 67.9497 272.547 68.0118C278.647 68.072 282.99 71.7752 283.257 76.4706L278.314 76.4219C277.649 74.0376 276.034 72.8954 272.499 72.8605C268.745 72.8235 266.13 74.7373 266.087 79.0855C266.044 83.4337 268.621 85.3676 272.375 85.4046C276.035 85.4408 277.644 84.1427 278.259 81.9901Z" fill="white"/>
<path d="M564.996 81.9425C566.96 82.6501 568.041 84.0686 568.013 86.9466C567.971 91.1697 565.136 93.1439 561.788 93.1109C559.411 93.0874 548.4 92.9787 548.4 92.9787L548.616 71.0812L557.031 71.1643C557.656 71.1705 558.532 71.1791 559.752 71.1912C564.288 71.2359 567.211 73.1106 567.167 77.5214C567.144 79.8988 566.38 81.2053 564.996 81.9425ZM558.333 75.5258C557.113 75.5138 553.985 75.4829 553.328 75.4764L553.282 80.0749C555.034 80.0921 557.287 80.1144 558.507 80.1264C560.696 80.148 562.48 80.0718 562.502 77.8821C562.524 75.6923 560.648 75.5486 558.333 75.5258ZM559.203 88.768C561.55 88.7912 563.334 88.6524 563.356 86.4001C563.377 84.3354 562.066 83.9784 559.877 83.9567C558.375 83.9419 554.527 83.9039 553.245 83.8913L553.197 88.7087L557.17 88.7479C559.047 88.7665 557.608 88.7523 559.203 88.768ZM586.006 87.1868L586.162 71.4519L590.916 71.4988L590.7 93.3963L583.849 93.3287L574.401 77.5302L573.869 77.525L573.714 93.2286L568.959 93.1817L569.175 71.2842L575.588 71.3475L575.588 71.3788L576.026 71.3831L585.443 87.1812L586.006 87.1868ZM609.213 85.2572L614.155 85.306C613.669 90.1817 609.381 93.5807 603.281 93.5205C596.993 93.4584 592.244 89.626 592.317 82.306C592.388 75.1111 597.213 71.2168 603.5 71.2789C609.6 71.3391 613.944 75.0424 614.21 79.7378L609.268 79.689C608.603 77.3047 606.987 76.1625 603.452 76.1276C599.699 76.0906 597.083 78.0044 597.04 82.3526C596.997 86.7009 599.575 88.6347 603.329 88.6718C606.989 88.7079 608.597 87.4098 609.213 85.2572ZM632.796 85.49L637.739 85.5388C637.253 90.4145 632.965 93.8135 626.865 93.7533C620.577 93.6912 615.828 89.8588 615.9 82.5388C615.971 75.3439 620.796 71.4496 627.084 71.5117C633.184 71.5719 637.528 75.2752 637.794 79.9706L632.851 79.9218C632.187 77.5376 630.571 76.3953 627.036 76.3604C623.282 76.3234 620.667 78.2372 620.624 82.5855C620.581 86.9337 623.159 88.8675 626.912 88.9046C630.572 88.9407 632.181 87.6426 632.796 85.49Z" fill="white"/>
<path d="M919.533 85.4424C921.497 86.1501 922.578 87.5686 922.55 90.4465C922.508 94.6696 919.673 96.6439 916.326 96.6108C913.948 96.5874 902.937 96.4787 902.937 96.4787L903.153 74.5812L911.568 74.6642C912.194 74.6704 913.07 74.6791 914.29 74.6911C918.826 74.7359 921.748 76.6106 921.704 81.0213C921.681 83.3988 920.917 84.7052 919.533 85.4424ZM912.87 79.0257C911.65 79.0137 908.522 78.9828 907.865 78.9763L907.82 83.5748C909.572 83.5921 911.824 83.6143 913.044 83.6264C915.234 83.648 917.018 83.5717 917.039 81.382C917.061 79.1922 915.185 79.0486 912.87 79.0257ZM913.741 92.2679C916.087 92.2911 917.871 92.1523 917.894 89.9C917.914 87.8354 916.604 87.4783 914.414 87.4567C912.912 87.4419 909.065 87.4039 907.782 87.3912L907.735 92.2087L911.707 92.2479C913.584 92.2664 912.145 92.2522 913.741 92.2679ZM940.543 90.6867L940.699 74.9518L945.454 74.9988L945.238 96.8962L938.387 96.8286L928.938 81.0302L928.406 81.0249L928.251 96.7285L923.496 96.6816L923.713 74.7841L930.125 74.8474L930.125 74.8787L930.563 74.883L939.98 90.6812L940.543 90.6867ZM963.75 88.7571L968.693 88.8059C968.206 93.6816 963.918 97.0806 957.818 97.0204C951.53 96.9584 946.782 93.126 946.854 85.806C946.925 78.6111 951.75 74.7168 958.038 74.7788C964.138 74.8391 968.481 78.5423 968.748 83.2377L963.805 83.1889C963.14 80.8047 961.525 79.6625 957.99 79.6276C954.236 79.5905 951.62 81.5044 951.577 85.8526C951.535 90.2008 954.112 92.1346 957.866 92.1717C961.526 92.2078 963.134 90.9097 963.75 88.7571ZM987.334 88.9899L992.276 89.0387C991.79 93.9144 987.502 97.3135 981.402 97.2532C975.114 97.1912 970.365 93.3588 970.438 86.0388C970.509 78.8439 975.334 74.9496 981.621 75.0117C987.721 75.0719 992.065 78.7751 992.331 83.4705L987.389 83.4217C986.724 81.0375 985.108 79.8953 981.574 79.8604C977.82 79.8233 975.204 81.7372 975.161 86.0854C975.118 90.4336 977.696 92.3675 981.45 92.4045C985.11 92.4406 986.718 91.1425 987.334 88.9899Z" fill="white"/>
<path d="M1274.07 88.9424C1276.04 89.6501 1277.12 91.0686 1277.09 93.9465C1277.05 98.1696 1274.21 100.144 1270.86 100.111C1268.49 100.087 1257.47 99.9787 1257.47 99.9787L1257.69 78.0812L1266.11 78.1642C1266.73 78.1704 1267.61 78.1791 1268.83 78.1911C1273.36 78.2359 1276.29 80.1106 1276.24 84.5213C1276.22 86.8988 1275.46 88.2052 1274.07 88.9424ZM1267.41 82.5257C1266.19 82.5137 1263.06 82.4828 1262.4 82.4763L1262.36 87.0748C1264.11 87.0921 1266.36 87.1143 1267.58 87.1264C1269.77 87.148 1271.56 87.0717 1271.58 84.882C1271.6 82.6922 1269.72 82.5486 1267.41 82.5257ZM1268.28 95.7679C1270.62 95.7911 1272.41 95.6523 1272.43 93.4C1272.45 91.3354 1271.14 90.9783 1268.95 90.9567C1267.45 90.9419 1263.6 90.9039 1262.32 90.8912L1262.27 95.7087L1266.25 95.7479C1268.12 95.7664 1266.68 95.7522 1268.28 95.7679ZM1295.08 94.1867L1295.24 78.4518L1299.99 78.4988L1299.78 100.396L1292.92 100.329L1283.48 84.5302L1282.94 84.5249L1282.79 100.229L1278.03 100.182L1278.25 78.2841L1284.66 78.3474L1284.66 78.3787L1285.1 78.383L1294.52 94.1812L1295.08 94.1867ZM1318.29 92.2571L1323.23 92.3059C1322.74 97.1816 1318.46 100.581 1312.36 100.52C1306.07 100.458 1301.32 96.626 1301.39 89.306C1301.46 82.1111 1306.29 78.2168 1312.58 78.2788C1318.68 78.3391 1323.02 82.0423 1323.29 86.7377L1318.34 86.6889C1317.68 84.3047 1316.06 83.1625 1312.53 83.1276C1308.77 83.0905 1306.16 85.0044 1306.12 89.3526C1306.07 93.7008 1308.65 95.6346 1312.4 95.6717C1316.06 95.7078 1317.67 94.4097 1318.29 92.2571ZM1341.87 92.4899L1346.81 92.5387C1346.33 97.4144 1342.04 100.813 1335.94 100.753C1329.65 100.691 1324.9 96.8588 1324.98 89.5388C1325.05 82.3439 1329.87 78.4496 1336.16 78.5117C1342.26 78.5719 1346.6 82.2751 1346.87 86.9705L1341.93 86.9217C1341.26 84.5375 1339.65 83.3953 1336.11 83.3604C1332.36 83.3233 1329.74 85.2372 1329.7 89.5854C1329.66 93.9336 1332.23 95.8675 1335.99 95.9045C1339.65 95.9406 1341.26 94.6425 1341.87 92.4899Z" fill="white"/>
<path d="M150.246 66.0471L151.673 75.8813L161.477 77.5022L151.643 78.9292L150.022 88.7333L148.595 78.8991L138.791 77.2782L148.625 75.8512L150.246 66.0471Z" fill="white"/>
<path d="M504.784 69.547L506.211 79.3812L516.015 81.0021L506.181 82.4291L504.56 92.2332L503.133 82.399L493.329 80.7781L503.163 79.3511L504.784 69.547Z" fill="white"/>
<path d="M859.321 73.047L860.748 82.8812L870.552 84.502L860.718 85.9291L859.097 95.7331L857.67 85.899L847.866 84.2781L857.7 82.8511L859.321 73.047Z" fill="white"/>
<path d="M1213.86 76.5469L1215.29 86.3811L1225.09 88.002L1215.26 89.429L1213.63 99.2331L1212.21 89.3989L1202.4 87.778L1212.24 86.351L1213.86 76.5469Z" fill="white"/>
<path d="M327.515 67.7971L328.942 77.6313L338.746 79.2522L328.912 80.6792L327.291 90.4833L325.864 80.6491L316.06 79.0282L325.894 77.6012L327.515 67.7971Z" fill="white"/>
<path d="M682.052 71.297L683.48 81.1312L693.284 82.7521L683.449 84.1791L681.829 93.9832L680.402 84.149L670.597 82.5281L680.432 81.1011L682.052 71.297Z" fill="white"/>
<path d="M1036.59 74.797L1038.02 84.6312L1047.82 86.2521L1037.99 87.6791L1036.37 97.4832L1034.94 87.649L1025.13 86.0281L1034.97 84.6011L1036.59 74.797Z" fill="white"/>
<path d="M1391.13 78.2969L1392.55 88.1311L1402.36 89.752L1392.52 91.179L1390.9 100.983L1389.48 91.1489L1379.67 89.528L1389.51 88.101L1391.13 78.2969Z" fill="white"/>
</g>
<defs>
<filter id="filter0_dii_107_802" x="-14.1337" y="28.4229" width="1479.35" height="113.541" filterUnits="userSpaceOnUse" color-interpolation-filters="sRGB">
<feFlood flood-opacity="0" result="BackgroundImageFix"/>
<feColorMatrix in="SourceAlpha" type="matrix" values="0 0 0 0 0 0 0 0 0 0 0 0 0 0 0 0 0 0 127 0" result="hardAlpha"/>
<feOffset dy="3.27013"/>
<feGaussianBlur stdDeviation="1.63506"/>
<feComposite in2="hardAlpha" operator="out"/>
<feColorMatrix type="matrix" values="0 0 0 0 0 0 0 0 0 0 0 0 0 0 0 0 0 0 0.25 0"/>
<feBlend mode="normal" in2="BackgroundImageFix" result="effect1_dropShadow_107_802"/>
<feBlend mode="normal" in="SourceGraphic" in2="effect1_dropShadow_107_802" result="shape"/>
<feColorMatrix in="SourceAlpha" type="matrix" values="0 0 0 0 0 0 0 0 0 0 0 0 0 0 0 0 0 0 127 0" result="hardAlpha"/>
<feOffset dx="-18.1463" dy="18.1463"/>
<feGaussianBlur stdDeviation="9.07317"/>
<feComposite in2="hardAlpha" operator="arithmetic" k2="-1" k3="1"/>
<feColorMatrix type="matrix" values="0 0 0 0 1 0 0 0 0 1 0 0 0 0 1 0 0 0 0.117 0"/>
<feBlend mode="normal" in2="shape" result="effect2_innerShadow_107_802"/>
<feColorMatrix in="SourceAlpha" type="matrix" values="0 0 0 0 0 0 0 0 0 0 0 0 0 0 0 0 0 0 127 0" result="hardAlpha"/>
<feOffset dx="18.1463" dy="-18.1463"/>
<feGaussianBlur stdDeviation="9.07317"/>
<feComposite in2="hardAlpha" operator="arithmetic" k2="-1" k3="1"/>
<feColorMatrix type="matrix" values="0 0 0 0 0.0119216 0 0 0 0 0.0119216 0 0 0 0 0.134118 0 0 0 0.117 0"/>
<feBlend mode="normal" in2="effect2_innerShadow_107_802" result="effect3_innerShadow_107_802"/>
</filter>
</defs>
</svg>
