<svg width="72" height="54" viewBox="0 0 72 54" fill="none" xmlns="http://www.w3.org/2000/svg">
<path d="M57.5415 28.8749C61.1448 28.8749 64.6004 27.3935 67.1483 24.7568C69.6962 22.12 71.1276 18.5437 71.1276 14.8147C71.1276 11.0857 69.6962 7.50949 67.1483 4.8727C64.6004 2.23591 61.1448 0.754578 57.5415 0.754578V28.8749Z" fill="#AB8BE0"/>
<path d="M57.5407 28.8749C53.9374 28.8749 50.4817 27.3935 47.9339 24.7568C45.386 22.12 43.9546 18.5437 43.9546 14.8147C43.9546 11.0857 45.386 7.50949 47.9339 4.8727C50.4817 2.23591 53.9374 0.754578 57.5407 0.754578V28.8749Z" fill="#EDADE3"/>
<path d="M57.5409 43.225V29.0405C53.889 29.0401 50.384 30.5286 47.7848 33.1835C45.1857 35.8384 43.7017 39.446 43.6543 43.225H57.5409Z" fill="#EDADE3"/>
<path d="M71.4482 43.225C71.3955 39.4441 69.9072 35.8365 67.3048 33.1822C64.7025 30.5279 61.1953 29.0401 57.5415 29.0405V43.225H71.4482Z" fill="#AB8BE0"/>
<path d="M14.5293 28.8749C18.1325 28.8749 21.5882 27.3935 24.1361 24.7568C26.684 22.12 28.1154 18.5437 28.1154 14.8147C28.1154 11.0857 26.684 7.50949 24.1361 4.8727C21.5882 2.23591 18.1325 0.754578 14.5293 0.754578V28.8749Z" fill="#AB8BE0"/>
<path d="M14.5275 28.8749C10.9242 28.8749 7.46855 27.3935 4.92067 24.7568C2.37279 22.12 0.941406 18.5437 0.941406 14.8147C0.941406 11.0857 2.37279 7.50949 4.92067 4.8727C7.46855 2.23591 10.9242 0.754578 14.5275 0.754578V28.8749Z" fill="#EDADE3"/>
<path d="M14.5287 43.225V29.0405C10.8768 29.0401 7.37174 30.5286 4.77261 33.1835C2.17348 35.8384 0.689518 39.446 0.64209 43.225H14.5287Z" fill="#EDADE3"/>
<path d="M28.436 43.225C28.3833 39.4441 26.895 35.8365 24.2926 33.1822C21.6903 30.5279 18.1831 29.0401 14.5293 29.0405V43.225H28.436Z" fill="#AB8BE0"/>
<path d="M36.27 38.9991C39.8733 38.9991 43.3289 37.5178 45.8768 34.881C48.4247 32.2442 49.8561 28.668 49.8561 24.939C49.8561 21.21 48.4247 17.6338 45.8768 14.997C43.3289 12.3602 39.8733 10.8788 36.27 10.8788V38.9991Z" fill="#AB8BE0"/>
<path d="M36.2682 38.9991C32.6649 38.9991 29.2093 37.5178 26.6614 34.881C24.1135 32.2442 22.6821 28.668 22.6821 24.939C22.6821 21.21 24.1135 17.6338 26.6614 14.997C29.2093 12.3602 32.6649 10.8788 36.2682 10.8788V38.9991Z" fill="#EDADE3"/>
<path d="M36.2685 53.3494V39.1648C32.6166 39.1645 29.1115 40.6529 26.5124 43.3078C23.9132 45.9627 22.4293 49.5703 22.3818 53.3494H36.2685Z" fill="#EDADE3"/>
<path d="M50.1767 53.3494C50.1241 49.5684 48.6357 45.9608 46.0334 43.3065C43.431 40.6522 39.9238 39.1644 36.27 39.1648V53.3494H50.1767Z" fill="#AB8BE0"/>
</svg>
