<svg width="66" height="62" viewBox="0 0 66 62" fill="none" xmlns="http://www.w3.org/2000/svg">
<path d="M65.735 36.8435C65.735 33.3308 63.8722 30.3031 61.1294 28.6709C61.7237 27.4172 62.0779 26.0335 62.0779 24.5432C62.0779 20.593 59.7351 17.2104 56.398 15.7912C56.5123 15.2589 56.5923 14.7031 56.5923 14.1354C56.5923 9.96039 53.3124 6.566 49.2782 6.566C49.1868 6.566 49.1068 6.58966 49.0268 6.58966C48.2153 3.31354 45.3811 0.888977 41.964 0.888977C37.9298 0.888977 34.6499 4.27154 34.6499 8.45834V52.9284C34.6499 57.6356 38.3298 61.4439 42.8783 61.4439C46.5125 61.4439 49.5525 58.9957 50.6496 55.625C51.0953 55.7077 51.5524 55.7669 52.021 55.7669C56.5695 55.7669 60.2494 51.9585 60.2494 47.2513C60.2494 46.6836 60.1923 46.1278 60.0894 45.5837C63.4036 44.1645 65.735 40.7819 65.735 36.8435Z" fill="#AB8BE0"/>
<path d="M23.9067 0.889038C20.4896 0.889038 17.6554 3.3136 16.844 6.58972C16.7526 6.58972 16.684 6.56606 16.5926 6.56606C12.5584 6.56606 9.27842 9.96045 9.27842 14.1354C9.27842 14.7031 9.34699 15.259 9.4727 15.7912C6.13562 17.2105 3.79281 20.593 3.79281 24.5433C3.79281 26.0335 4.15852 27.4173 4.74137 28.671C1.99856 30.3031 0.135742 33.3309 0.135742 36.8435C0.135742 40.782 2.46712 44.1645 5.78135 45.5838C5.67849 46.1278 5.62135 46.6837 5.62135 47.2514C5.62135 51.9586 9.30128 55.7669 13.8498 55.7669C14.3183 55.7669 14.7755 55.7078 15.2212 55.625C16.3183 58.9957 19.3582 61.444 22.9924 61.444C27.5409 61.444 31.2208 57.6356 31.2208 52.9284V8.4584C31.2208 4.28343 27.9409 0.889038 23.9067 0.889038Z" fill="#EDADE3"/>
</svg>
