<svg width="83" height="53" viewBox="0 0 83 53" fill="none" xmlns="http://www.w3.org/2000/svg">
<path d="M42.1624 3.42161L29.7595 14.1242C27.6966 15.8989 27.2994 19.0933 28.8626 21.3731C30.5155 23.803 33.7315 24.2808 35.9482 22.4379L48.6714 11.8991C49.5683 11.1619 50.8496 11.3257 51.5543 12.2813C52.259 13.2369 52.0924 14.602 51.1955 15.3529L48.5176 17.5644L66.3276 35.0381V9.26437H66.2379L65.7382 8.92309L56.436 2.57523C54.4756 1.2374 52.1821 0.527527 49.8502 0.527527C47.0569 0.527527 44.3406 1.55138 42.1624 3.42161Z" fill="#AB8BE0"/>
<path d="M70.1147 10.5115V41.0905C70.1147 43.5068 71.947 45.4589 74.2149 45.4589H78.315C80.5829 45.4589 82.4151 43.5068 82.4151 41.0905V12.6957C82.4151 11.4944 81.4926 10.5115 80.3651 10.5115H70.1147ZM74.2149 38.9063C74.2149 38.327 74.4309 37.7714 74.8153 37.3618C75.1998 36.9522 75.7212 36.7221 76.2649 36.7221C76.8087 36.7221 77.3301 36.9522 77.7146 37.3618C78.099 37.7714 78.315 38.327 78.315 38.9063C78.315 39.4856 78.099 40.0411 77.7146 40.4508C77.3301 40.8604 76.8087 41.0905 76.2649 41.0905C75.7212 41.0905 75.1998 40.8604 74.8153 40.4508C74.4309 40.0411 74.2149 39.4856 74.2149 38.9063Z" fill="#AB8BE0"/>
<path d="M44.5291 20.4036L37.9048 25.8915C33.8687 29.2497 28.0132 28.376 24.9894 23.953C22.1449 19.7893 22.8624 13.9739 26.6166 10.7385L37.277 1.55115C35.7907 0.882235 34.189 0.540951 32.5618 0.540951C30.153 0.5273 27.8082 1.29177 25.7966 2.71151L16.5713 9.26415V39.8431H20.1845L31.8955 51.2283C34.4069 53.6719 38.2892 53.4808 40.5827 50.8051C41.2874 49.9724 41.7615 49.0032 42.0049 47.993L44.1831 50.1226C46.6816 52.5661 50.5768 52.3887 52.8703 49.7267C53.4468 49.0578 53.8697 48.2796 54.1387 47.4742C56.6244 49.2489 60.0071 48.8803 62.0956 46.4504C64.3891 43.7883 64.2225 39.6383 61.724 37.1948L44.5291 20.4036Z" fill="#EDADE3"/>
<path d="M2.22145 10.5124C1.09392 10.5124 0.171387 11.4953 0.171387 12.6966V41.0914C0.171387 43.5076 2.00363 45.4598 4.27152 45.4598H8.37165C10.6395 45.4598 12.4718 43.5076 12.4718 41.0914V10.5124H2.22145ZM6.32158 36.7229C6.8653 36.7229 7.38674 36.9531 7.7712 37.3627C8.15566 37.7723 8.37165 38.3279 8.37165 38.9071C8.37165 39.4864 8.15566 40.042 7.7712 40.4516C7.38674 40.8612 6.8653 41.0914 6.32158 41.0914C5.77787 41.0914 5.25643 40.8612 4.87197 40.4516C4.48751 40.042 4.27152 39.4864 4.27152 38.9071C4.27152 38.3279 4.48751 37.7723 4.87197 37.3627C5.25643 36.9531 5.77787 36.7229 6.32158 36.7229Z" fill="#EDADE3"/>
</svg>
