<svg width="62" height="54" viewBox="0 0 62 54" fill="none" xmlns="http://www.w3.org/2000/svg">
<path d="M45.6937 4.02024C47.5879 1.74556 50.0004 0.608215 52.931 0.608215C55.3613 0.608215 57.4163 1.53288 59.0961 3.38222C60.7758 5.23155 61.6693 7.35829 61.7766 9.76243C61.7766 11.6672 60.8831 13.9419 59.0961 16.5865C57.3091 19.231 55.5489 21.441 53.8156 23.2163C52.0822 24.9917 49.3749 27.627 45.6937 31.1222C41.9768 27.627 39.2427 24.9917 37.4915 23.2163C35.7403 21.441 33.9801 19.231 32.211 16.5865C30.4419 13.9419 29.5752 11.6672 29.6109 9.76243C29.6109 7.24733 30.4776 5.12059 32.211 3.38222C33.9444 1.64384 36.0351 0.719175 38.4833 0.608215C41.3424 0.608215 43.7459 1.74556 45.6937 4.02024Z" fill="#EDADE3"/>
<path d="M0.124023 20.026H10.8888V50.54H0.124023V20.026Z" fill="#AB8BE0"/>
<path d="M48.372 39.4441C49.9088 39.4441 51.2043 39.9989 52.2587 41.1085C53.313 42.2181 53.8312 43.5127 53.8133 44.9921L32.2892 53.3141L13.5259 47.7661V22.8001H18.7528L38.2398 30.2622C39.6336 30.8355 40.3306 31.8711 40.3306 33.3691C40.3306 34.2382 40.0268 34.9965 39.4192 35.6437C38.8116 36.291 38.0432 36.6331 37.114 36.6701H29.6087L24.9179 34.8115L24.0333 37.4191L29.6087 39.4441H48.372Z" fill="#EDADE3"/>
</svg>
