<svg width="63" height="55" viewBox="0 0 63 55" fill="none" xmlns="http://www.w3.org/2000/svg">
<path d="M58.9546 48.4565C59.7381 48.4574 60.4917 48.7679 61.0615 49.3245C61.6312 49.8811 61.974 50.6419 62.02 51.4513C62.0659 52.2608 61.8114 53.0578 61.3085 53.6796C60.8056 54.3014 60.0923 54.701 59.3143 54.7968L58.9546 54.819H3.62237C2.83886 54.8181 2.08526 54.5077 1.51553 53.951C0.945809 53.3944 0.602962 52.6337 0.557045 51.8242C0.511128 51.0148 0.765607 50.2177 1.26849 49.5959C1.77136 48.9741 2.48469 48.5745 3.26271 48.4788L3.62237 48.4565H58.9546Z" fill="#AB8BE0"/>
<path d="M52.8058 0.737305C54.3569 0.736797 55.8508 1.34304 56.9882 2.43451C58.1255 3.52598 58.8222 5.022 58.9385 6.62268L58.9539 7.09987V38.9127C58.9544 40.5179 58.3685 42.064 57.3139 43.241C56.2592 44.418 54.8136 45.139 53.2669 45.2593L52.8058 45.2753H9.76961C8.21854 45.2758 6.7246 44.6695 5.58727 43.578C4.44994 42.4866 3.75328 40.9906 3.63695 39.3899L3.62158 38.9127V7.09987C3.62109 5.49467 4.20689 3.9486 5.26156 2.77158C6.31623 1.59457 7.7618 0.873602 9.30851 0.753212L9.76961 0.737305H52.8058Z" fill="#EDADE3"/>
</svg>
