<svg width="44" height="68" viewBox="0 0 44 68" fill="none" xmlns="http://www.w3.org/2000/svg">
<path d="M36.9447 7.11926C32.9191 2.94766 27.5266 0.650576 21.7607 0.650576C18.9459 0.643632 16.1576 1.21227 13.5558 2.32382C10.954 3.43537 8.58999 5.06793 6.59964 7.12773C4.60929 9.18754 3.03177 11.634 1.9577 14.3266C0.883632 17.0192 0.334172 19.9048 0.340881 22.8178C0.340881 29.2768 2.73321 35.3188 6.9007 39.3934L7.48439 39.96C9.89546 42.2932 13.1928 45.4894 13.1928 48.3102V51.6353C13.1928 52.2232 13.4184 52.787 13.8201 53.2027C14.2218 53.6184 14.7667 53.852 15.3348 53.852H18.5477C18.8318 53.852 19.1042 53.7352 19.305 53.5274C19.5059 53.3195 19.6187 53.0376 19.6187 52.7436V36.5089C19.6188 36.2847 19.5532 36.0658 19.4306 35.8811C19.308 35.6963 19.1341 35.5544 18.9319 35.4739C17.6951 34.9518 16.52 34.2847 15.4298 33.4858C15.1848 33.3239 14.9742 33.1121 14.8109 32.8632C14.6475 32.6144 14.5348 32.3338 14.4796 32.0384C14.4244 31.743 14.4279 31.4391 14.4898 31.1452C14.5518 30.8513 14.6709 30.5735 14.8399 30.3287C15.0089 30.0839 15.2243 29.8773 15.4729 29.7215C15.7216 29.5656 15.9983 29.4638 16.2862 29.4221C16.5741 29.3805 16.8671 29.4 17.1475 29.4793C17.4279 29.5586 17.6898 29.6962 17.9172 29.8836C18.9078 30.6096 20.8155 31.6847 21.7607 31.6847C22.7058 31.6847 24.6136 30.6069 25.6069 29.8836C26.0694 29.5827 26.6256 29.4761 27.1616 29.5855C27.6976 29.695 28.1729 30.0122 28.4903 30.4724C28.8077 30.9326 28.9432 31.5009 28.8691 32.061C28.795 32.6212 28.5169 33.1309 28.0916 33.4858C27.0012 34.2833 25.8262 34.9489 24.5895 35.4698C24.3873 35.5502 24.2134 35.6922 24.0908 35.8769C23.9682 36.0617 23.9026 36.2806 23.9027 36.5047V52.7436C23.9027 53.0376 24.0155 53.3195 24.2164 53.5274C24.4172 53.7352 24.6896 53.852 24.9737 53.852H28.1866C28.7547 53.852 29.2996 53.6184 29.7013 53.2027C30.103 52.787 30.3286 52.2232 30.3286 51.6353V48.3102C30.3286 45.5559 33.5898 42.3624 35.9714 40.0293L36.6287 39.3837C40.9154 35.1484 43.1805 29.414 43.1805 22.8178C43.1947 19.9046 42.6509 17.0173 41.5806 14.3227C40.5103 11.6282 38.9346 9.17991 36.9447 7.11926Z" fill="#EDADE3"/>
<path d="M25.6551 62.7189H17.0872C16.5191 62.7189 15.9743 62.9524 15.5726 63.3682C15.1709 63.7839 14.9452 64.3477 14.9452 64.9356C14.9452 65.5235 15.1709 66.0874 15.5726 66.5031C15.9743 66.9188 16.5191 67.1524 17.0872 67.1524H25.6551C26.2232 67.1524 26.768 66.9188 27.1697 66.5031C27.5714 66.0874 27.7971 65.5235 27.7971 64.9356C27.7971 64.3477 27.5714 63.7839 27.1697 63.3682C26.768 62.9524 26.2232 62.7189 25.6551 62.7189ZM27.7971 56.0687H14.9452C14.3771 56.0687 13.8323 56.3023 13.4306 56.718C13.0289 57.1337 12.8032 57.6975 12.8032 58.2854C12.8032 58.8734 13.0289 59.4372 13.4306 59.8529C13.8323 60.2686 14.3771 60.5022 14.9452 60.5022H27.7971C28.3652 60.5022 28.91 60.2686 29.3117 59.8529C29.7134 59.4372 29.9391 58.8734 29.9391 58.2854C29.9391 57.6975 29.7134 57.1337 29.3117 56.718C28.91 56.3023 28.3652 56.0687 27.7971 56.0687Z" fill="#AB8BE0"/>
</svg>
