<svg width="1440" height="1492" viewBox="0 0 1440 1492" fill="none" xmlns="http://www.w3.org/2000/svg">
<circle opacity="0.16" cx="119.5" cy="467.5" r="225.28" stroke="white" stroke-width="0.44086"/>
<path d="M1496.4 732.998C1498.94 732.998 1501.01 730.937 1500.95 728.397C1500.07 691.24 1488.65 655.062 1467.97 624.106C1446.43 591.874 1415.82 566.752 1380.01 551.918C1344.19 537.083 1304.78 533.201 1266.76 540.764C1228.74 548.327 1193.82 566.994 1166.41 594.405C1139 621.816 1120.33 656.74 1112.77 694.76C1105.2 732.781 1109.08 772.19 1123.92 808.004C1138.75 843.818 1163.88 874.429 1196.11 895.966C1227.06 916.65 1263.24 928.072 1300.4 928.944C1302.94 929.004 1305 926.938 1305 924.397V923.721C1305 921.18 1302.94 919.126 1300.4 919.063C1265.2 918.193 1230.93 907.351 1201.6 887.753C1170.99 867.301 1147.13 838.233 1133.05 804.224C1118.96 770.214 1115.27 732.792 1122.45 696.687C1129.64 660.583 1147.36 627.42 1173.39 601.39C1199.42 575.36 1232.59 557.634 1268.69 550.452C1304.79 543.271 1342.22 546.957 1376.23 561.044C1410.24 575.131 1439.3 598.987 1459.75 629.594C1479.35 658.925 1490.19 693.194 1491.07 728.397C1491.13 730.937 1493.18 732.998 1495.72 732.998H1496.4Z" fill="url(#paint0_linear_2022_4)" fill-opacity="0.7"/>
<path d="M1154.35 725.533C1152.2 725.426 1150.36 727.084 1150.31 729.237C1149.6 758.478 1157.19 787.352 1172.24 812.492C1187.97 838.749 1211.12 859.753 1238.78 872.85C1266.44 885.946 1297.37 890.547 1327.64 886.069C1357.91 881.591 1386.18 868.236 1408.87 847.693C1431.55 827.15 1447.63 800.342 1455.08 770.658C1462.53 740.974 1461.01 709.748 1450.71 680.929C1440.41 652.11 1421.8 626.991 1397.23 608.75C1373.7 591.284 1345.72 580.875 1316.55 578.692C1314.4 578.531 1312.57 580.194 1312.46 582.345C1312.36 584.495 1314.02 586.32 1316.16 586.484C1343.79 588.588 1370.29 598.466 1392.58 615.012C1415.92 632.334 1433.59 656.186 1443.37 683.553C1453.15 710.92 1454.59 740.572 1447.52 768.76C1440.45 796.948 1425.17 822.405 1403.63 841.913C1382.09 861.42 1355.25 874.102 1326.5 878.354C1297.75 882.606 1268.39 878.238 1242.12 865.802C1215.85 853.365 1193.87 833.419 1178.93 808.486C1164.67 784.669 1157.46 757.323 1158.1 729.623C1158.15 727.47 1156.5 725.64 1154.35 725.533Z" fill="url(#paint1_linear_2022_4)" fill-opacity="0.7"/>
<path d="M1399.64 747.8C1401 748.011 1402.27 747.087 1402.44 745.731C1404.85 727.312 1401.99 708.568 1394.16 691.682C1385.99 674.047 1372.78 659.231 1356.18 649.108C1339.59 638.985 1320.37 634.009 1300.95 634.81C1281.53 635.61 1262.78 642.152 1247.08 653.607C1231.38 665.062 1219.43 680.915 1212.74 699.163C1206.04 717.411 1204.91 737.234 1209.49 756.124C1214.06 775.015 1224.13 792.125 1238.43 805.29C1252.12 817.896 1269.1 826.344 1287.37 829.676C1288.72 829.921 1289.99 828.994 1290.2 827.643C1290.41 826.292 1289.48 825.028 1288.14 824.781C1270.83 821.602 1254.76 813.589 1241.79 801.647C1228.21 789.145 1218.65 772.897 1214.3 754.959C1209.96 737.021 1211.03 718.197 1217.39 700.869C1223.74 683.54 1235.09 668.485 1250 657.608C1264.91 646.73 1282.71 640.519 1301.16 639.758C1319.6 638.998 1337.85 643.723 1353.6 653.336C1369.36 662.949 1381.91 677.018 1389.67 693.765C1397.08 709.761 1399.81 727.514 1397.55 744.966C1397.37 746.322 1398.29 747.589 1399.64 747.8Z" fill="url(#paint2_linear_2022_4)" fill-opacity="0.7"/>
<g filter="url(#filter0_f_2022_4)">
<circle cx="1395" cy="862" r="230" fill="url(#paint3_linear_2022_4)" fill-opacity="0.7"/>
</g>
<g filter="url(#filter1_f_2022_4)">
<path d="M148.756 96.247L231.126 279.121L430.758 259.756L247.884 342.126L267.249 541.758L184.879 358.884L-14.7531 378.249L168.121 295.879L148.756 96.247Z" fill="url(#paint4_linear_2022_4)" fill-opacity="0.8"/>
</g>
<path d="M140.436 541.279L138.934 553.287L129.604 558.913L140.267 561.148L145.644 571.99L147.146 559.982L156.477 554.356L145.813 552.12L140.436 541.279Z" fill="#15BFFD"/>
<path d="M1132.67 498.162L1131.7 504.986L1126.33 508.095L1132.38 509.476L1135.33 515.704L1136.31 508.881L1141.68 505.771L1135.63 504.391L1132.67 498.162Z" fill="#15BFFD"/>
<path d="M321.675 654.162L320.699 660.986L315.328 664.095L321.378 665.476L324.331 671.704L325.307 664.881L330.678 661.771L324.628 660.391L321.675 654.162Z" fill="#15BFFD"/>
<defs>
<filter id="filter0_f_2022_4" x="765" y="232" width="1260" height="1260" filterUnits="userSpaceOnUse" color-interpolation-filters="sRGB">
<feFlood flood-opacity="0" result="BackgroundImageFix"/>
<feBlend mode="normal" in="SourceGraphic" in2="BackgroundImageFix" result="shape"/>
<feGaussianBlur stdDeviation="200" result="effect1_foregroundBlur_2022_4"/>
</filter>
<filter id="filter1_f_2022_4" x="-110.795" y="0.205284" width="637.595" height="637.595" filterUnits="userSpaceOnUse" color-interpolation-filters="sRGB">
<feFlood flood-opacity="0" result="BackgroundImageFix"/>
<feBlend mode="normal" in="SourceGraphic" in2="BackgroundImageFix" result="shape"/>
<feGaussianBlur stdDeviation="48.0208" result="effect1_foregroundBlur_2022_4"/>
</filter>
<linearGradient id="paint0_linear_2022_4" x1="1152.12" y1="573.898" x2="1375.02" y2="995.589" gradientUnits="userSpaceOnUse">
<stop stop-color="#15BFFD"/>
<stop offset="1" stop-color="#9C37FD"/>
</linearGradient>
<linearGradient id="paint1_linear_2022_4" x1="1184.3" y1="607.392" x2="1360.28" y2="940.306" gradientUnits="userSpaceOnUse">
<stop stop-color="#15BFFD"/>
<stop offset="1" stop-color="#9C37FD"/>
</linearGradient>
<linearGradient id="paint2_linear_2022_4" x1="1228.35" y1="653.227" x2="1340.11" y2="864.657" gradientUnits="userSpaceOnUse">
<stop stop-color="#15BFFD"/>
<stop offset="1" stop-color="#9C37FD"/>
</linearGradient>
<linearGradient id="paint3_linear_2022_4" x1="1240" y1="686" x2="1625" y2="981.5" gradientUnits="userSpaceOnUse">
<stop stop-color="#A839FF"/>
<stop offset="1" stop-color="#FFCCF7"/>
</linearGradient>
<linearGradient id="paint4_linear_2022_4" x1="148.756" y1="96.247" x2="267.249" y2="541.758" gradientUnits="userSpaceOnUse">
<stop stop-color="#65E0E9"/>
<stop offset="1" stop-color="#FF90EE"/>
</linearGradient>
</defs>
</svg>
